<?xml version="1.0" standalone="no"?>
<!DOCTYPE svg PUBLIC "-//W3C//DTD SVG 1.1//EN" "http://www.w3.org/Graphics/SVG/1.1/DTD/svg11.dtd" >
<svg>
<metadata>
Created by FontForge 20090622 at Wed Jan 20 09:01:12 2016
 By deploy user
Copyright &#239;&#190;&#169; Irmug, 2008. All rights reserved.
</metadata>
<defs>
<font id="XBNiloofar" horiz-adv-x="1" >
  <font-face 
    font-family="XB Niloofar"
    font-weight="400"
    font-stretch="normal"
    units-per-em="2048"
    panose-1="2 0 5 3 8 0 0 2 0 3"
    ascent="1638"
    descent="-410"
    x-height="880"
    cap-height="1376"
    bbox="-587 -1834 3251 2570"
    underline-thickness="60"
    underline-position="-540"
    unicode-range="U+000D-U+FEFC"
  />
<missing-glyph horiz-adv-x="1301" 
d="M725 347q0 -36 -27 -61.5t-63 -25.5q-35 0 -60 26t-25 61q0 36 25.5 61.5t63.5 25.5q36 0 61 -25.5t25 -61.5zM849 904q0 -51 -27 -81.5t-71 -30.5q-36 0 -58 22t-22 54q0 26 11.5 43t25.5 29t26 21t12 17q0 23 -23 37t-57 14q-45 0 -72.5 -24.5t-27.5 -61.5
q0 -20 12 -50t27 -59.5l28 -53t15 -29.5q12 -34 20 -73t8 -84q0 -23 -1.5 -47.5l-3.5 -55.5h-45v21l4 35q0 39 -51 84q-45 38 -68.5 60t-28.5 28q-51 61 -51 139q0 47 17 87t47 69.5t69.5 46t84.5 16.5q42 0 78 -12t63.5 -35t43 -54.5t15.5 -71.5zM153 36h998v1265h-998
v-1265zM117 0v1338h1068v-1338h-1068z" />
    <glyph glyph-name="fi" unicode="fi" horiz-adv-x="1197" 
d="M1187 0h-498v53q50 0 85 9t56.5 28t31 48t9.5 69v441q0 34 -6.5 57.5t-15.5 30.5q-10 8 -28.5 12.5t-39.5 8.5t-42.5 7.5t-38.5 7.5v44l288 100h41v-745q0 -118 158 -118v-53zM914 1378q0 -7 -8 -25.5t-18.5 -37.5t-21.5 -33.5t-18 -14.5q-8 0 -28 15l-56 40
q-41 27 -84.5 39.5t-87.5 13.5q-239 0 -239 -333v-162h222l17 -107h-239v-597q0 -33 7.5 -56.5t25.5 -38.5t48.5 -21.5t76.5 -6.5h88v-53h-551v53q49 0 78.5 7.5t45 24.5t20.5 45t5 70v573h-161v48q44 9 85 23.5t76 32.5q2 65 9.5 130.5t24.5 112.5q20 58 54.5 110.5
t79.5 98.5q78 81 158 119t160 38q37 0 78 -10.5t75 -26t56 -34.5t22 -37z" />
    <glyph glyph-name="fl" unicode="fl" horiz-adv-x="1222" 
d="M1193 0h-504v53q101 0 142 33t41 110v1058v17.5t-2 14.5q-6 -8 -11.5 -13.5t-10.5 -5.5q-8 0 -28 15l-56 40q-46 31 -87 41t-85 12q-239 0 -239 -333v-162h222l17 -107h-239v-597q0 -33 7.5 -56.5t25.5 -38.5t48.5 -21.5t76.5 -6.5h88v-53h-551v53q49 0 78.5 7.5t45 24.5
t20.5 45t5 70v573h-161v48q44 9 85 23.5t76 32.5q2 65 9.5 130.5t24.5 112.5q20 58 54.5 110.5t79.5 98.5q78 81 158 119t160 38q50 0 93 -11.5t78 -32.5l69 22l67 22h39v-1307q0 -126 123 -126h41v-53z" />
    <glyph glyph-name="afii57410" unicode="&#x627;&#x653;" horiz-adv-x="403" 
d="M50 1277l121 142q-6 -78 -6 -160q1 -51 4 -114.5t10 -141.5l13 -158l9 -75q11 -118 16.5 -212t5.5 -166q0 -66 -6 -121.5t-16.5 -96t-24 -63.5t-28.5 -23q-8 0 -14 10t-6 25q0 4 1.5 22.5t3 39.5t2.5 38.5t1 19.5q0 45 -5.5 100.5t-13.5 123.5l-10 76q-2 12 -2.5 30.5
t-4.5 44.5l-8 81q-4 23 -6.5 46.5t-4.5 49.5l-9 99q-4 32 -5.5 53.5t-3.5 34.5l-9 149q-3 56 -3 70l-1 47v29zM-57 1687q5 0 22 -3.5l40 -8t49 -8.5t50 -4q49 0 98.5 9.5t93 25.5t77.5 38t53 47q9 9 12 9l3 -2q3 -1 3 -6q0 -10 -5.5 -26t-14.5 -33t-21 -34t-24 -29
q-25 -25 -64.5 -46.5t-86 -37.5t-96 -25t-95.5 -9q-18 0 -38.5 2.5l-43.5 5.5l-28 4q-6 1 -10 1.5t-8 0.5q-35 0 -95 -55q-6 -7 -9 -7q-9 0 -9 17q0 24 14 54t35.5 56.5t47.5 45t50 18.5z" />
    <glyph glyph-name="uniFE82" unicode="&#xfe8e;&#x653;" horiz-adv-x="460" arabic-form="final" 
d="M-54 1687q5 0 22 -3.5l40 -8t49 -8.5t50 -4q49 0 98.5 9.5t93 25.5t77.5 38t53 47q9 9 12 9l3 -2q3 -1 3 -6q0 -10 -5.5 -26t-14.5 -33t-21 -34t-24 -29q-25 -25 -64.5 -46.5t-86 -37.5t-96 -25t-95.5 -9q-18 0 -38.5 2.5l-43.5 5.5l-28 4q-6 1 -10 1.5t-8 0.5
q-35 0 -95 -55q-6 -7 -9 -7q-9 0 -9 17q0 24 14 54t35.5 56.5t47.5 45t50 18.5zM50 1323l109 122q0 -30 2 -73.5t4 -100.5l5 -114q3 -63 6.5 -100t3.5 -48l29 -428q5 -65 10.5 -108.5t15 -72t24 -47t36.5 -33.5q31 -22 74 -32t91 -10h10q8 0 13.5 -7.5t9 -19.5t5.5 -27.5
t2 -31.5q0 -33 -7.5 -60t-22.5 -27h-30q-251 0 -296 180q-14 54 -21 178l-12 197l-10 129q-5 61 -6 94.5t-2 38.5l-25 240q-2 25 -6.5 64.5z" />
    <glyph glyph-name="afii57411" unicode="&#x627;&#x654;" horiz-adv-x="403" 
d="M-36 1370q-15 24 -15 43q0 55 50 105q-42 16 -59.5 41t-17.5 54q0 35 20.5 72t51 68t65.5 50.5t65 19.5q35 0 58 -16.5t23 -39.5q0 -34 -47 -79q-11 13 -18.5 21t-15 12.5t-16.5 6t-21 1.5q-13 0 -29 -4t-29.5 -11.5t-23 -17t-9.5 -20.5q0 -12 10.5 -24.5t28 -23
t39.5 -17.5t46 -7q23 0 80 13t134 43q-8 -28 -17 -48.5t-20 -34.5t-26 -23.5t-36 -16.5q-69 -24 -116 -45t-77.5 -40.5t-48 -39.5t-29.5 -42zM50 1277l121 142q-6 -78 -6 -160q0 -51 4 -114t10 -142l13 -158l9 -75q11 -118 16.5 -212t5.5 -166q0 -66 -6 -122t-16.5 -96.5
t-24 -63t-28.5 -22.5q-8 0 -14 10t-6 25q0 4 1.5 22.5t3 39.5t2.5 38.5t1 19.5q0 45 -5.5 100t-13.5 124l-10 76q-2 12 -2.5 30.5t-4.5 44.5l-8 81q-4 23 -6.5 46.5t-4.5 49.5l-9 99q-4 32 -5.5 53.5t-3.5 34.5l-9 149q-3 56 -3 70l-1 47v29z" />
    <glyph glyph-name="uniFE84" unicode="&#xfe8e;&#x654;" horiz-adv-x="460" arabic-form="final" 
d="M-22 1405q-15 24 -15 43q0 51 51 105q-79 39 -79 90q0 35 20.5 72.5t51 68.5t66 51t65.5 20q35 0 58 -15t23 -39q0 -38 -48 -79q-21 26 -33.5 33.5t-35.5 7.5q-15 0 -31.5 -5t-30 -12.5t-22.5 -17t-9 -18.5q0 -13 11 -26t29 -23t40 -16t44 -6q26 1 59.5 6.5t71.5 18.5
l62 21q2 1 8 3l15 5q-7 -29 -16.5 -48.5t-21.5 -33t-27 -22.5t-34 -17l-107 -38q-119 -41 -165 -129zM50 1323l109 122q0 -30 2 -73.5t4 -100.5l5 -114q3 -63 6.5 -100t3.5 -48l29 -428q5 -65 10.5 -108.5t15 -72t24 -47t36.5 -33.5q31 -22 74 -32t91 -10h10q8 0 13.5 -7.5
t9 -19.5t5.5 -27.5t2 -31.5q0 -33 -7.5 -60t-22.5 -27h-30q-251 0 -296 180q-14 54 -21 178l-12 197l-10 129q-5 61 -6 94.5t-2 38.5l-25 240q-2 25 -6.5 64.5z" />
    <glyph glyph-name="afii57412" unicode="&#x648;&#x654;" horiz-adv-x="876" 
d="M252 728q-15 23 -15 43q0 52 50 105q-78 39 -78 91q0 35 20.5 72.5t51 68.5t65.5 51.5t64 20.5q35 0 59 -16t24 -39q0 -35 -48 -79q-11 13 -19 21t-15.5 12.5t-15.5 6t-19 1.5q-15 0 -31.5 -5t-30 -12.5t-22.5 -17t-9 -19.5q0 -12 11 -25t28.5 -23t40 -16.5t44.5 -6.5
q26 0 59 6t71 20l62 21q2 1 8.5 2.5t14.5 4.5q-8 -28 -17 -47.5t-20.5 -33.5t-26 -23.5t-34.5 -16.5l-108 -37q-60 -20 -100.5 -54t-63.5 -76zM597 269q-6 0 -31 -25q-23 -23 -39.5 -31t-41.5 -8q-71 0 -111 42t-40 117q0 34 8 73t21.5 77t32 73.5t40.5 62.5t46 43t48 16
q34 0 64 -28t52.5 -74t36 -106t13.5 -125q0 -122 -50 -260q-47 -136 -136 -249q-34 -45 -77 -82t-90 -63.5t-96 -41t-95 -14.5q-27 0 -59.5 8t-67 23.5t-69.5 39t-68 53.5l-28.5 26t-9.5 16q0 5 6.5 10t13.5 5q8 0 26 -6l81.5 -25t50.5 -13.5t34.5 -5.5t33.5 -1
q61 0 123.5 22.5t120 59.5t107.5 83.5t87 95.5t58.5 95.5t21.5 82.5q0 15 -5.5 24.5t-11.5 9.5zM608 396q-3 37 -14 65t-27 47t-34.5 28.5t-37.5 9.5q-12 0 -23.5 -7.5t-20.5 -19.5t-14.5 -28t-5.5 -34q0 -74 104 -74q37 0 73 13z" />
    <glyph glyph-name="uniFE86" unicode="&#xfeee;&#x654;" horiz-adv-x="880" arabic-form="final" 
d="M264 605q-17 23 -17 43q0 52 51 104q-78 39 -78 92q0 32 20 69.5t50 69t65.5 52.5t67.5 21q35 0 58.5 -15.5t23.5 -39.5q0 -35 -48 -79q-10 13 -18.5 21t-16.5 12.5t-16.5 6t-19.5 1.5q-16 0 -32.5 -5t-29.5 -13t-21 -17.5t-8 -17.5q0 -13 10.5 -25.5t28 -23t40 -17
t46.5 -6.5q25 0 57 6t73 20l60 20q7 1 24 10q-16 -56 -37.5 -82.5t-62.5 -40.5l-106 -37q-60 -20 -100.5 -53t-63.5 -76zM594 284q-3 36 -12.5 62.5t-23.5 43t-31.5 24.5t-35.5 8q-28 0 -48 -26t-20 -63q0 -67 88 -67q44 0 83 18zM671 105q-15 -62 -30.5 -110t-31.5 -83
q-31 -71 -70.5 -129t-87.5 -106q-71 -72 -149 -113t-147 -41q-25 0 -47.5 3.5t-44.5 11t-46 19.5t-52 29q-24 16 -45 32t-36.5 30t-24.5 25t-9 17t5 10t12 4q12 0 30 -7l81 -25q33 -10 65 -15.5t63 -5.5q49 0 107.5 25t117 65.5t110.5 91.5t88 102q34 52 49 89.5t15 76.5v5
l-46 -1q-63 0 -105.5 8t-67.5 25.5t-35.5 44t-10.5 63.5q0 112 86 239q35 50 64 75t56 25q20 0 43.5 -21.5t44 -61.5t35.5 -97t18 -127h215q15 0 22.5 -27t7.5 -59.5t-7.5 -59.5t-22.5 -27h-219z" />
    <glyph glyph-name="afii57413" unicode="&#x627;&#x655;" horiz-adv-x="403" 
d="M4 -448q-15 22 -15 43q0 53 51 105q-79 39 -79 91q0 34 20 71.5t50.5 69t66 51.5t65.5 20q35 0 59 -15.5t24 -38.5q0 -37 -48 -80q-11 13 -19 21t-15.5 12.5t-15.5 6t-20 1.5q-16 0 -32.5 -5t-30 -12.5t-21.5 -17t-8 -18.5q0 -13 11 -25.5t29 -23t40 -17t44 -6.5
q26 0 59 6.5t71 20.5l62 21q2 1 8 2.5t15 4.5q-16 -56 -37.5 -82.5t-62.5 -39.5l-106 -36q-118 -44 -165 -130zM50 1277l121 142q-6 -78 -6 -160q1 -51 4 -114.5t10 -141.5l13 -158l9 -75q11 -118 16.5 -212t5.5 -166q0 -66 -6 -121.5t-16.5 -96t-24 -63.5t-28.5 -23
q-8 0 -14 10t-6 25q0 4 1.5 22.5t3 39.5t2.5 38.5t1 19.5q0 45 -5.5 100.5t-13.5 123.5l-10 76q-2 12 -2.5 30.5t-4.5 44.5l-8 81q-4 23 -6.5 46.5t-4.5 49.5l-9 99q-4 32 -5.5 53.5t-3.5 34.5l-9 149q-3 56 -3 70l-1 47v29z" />
    <glyph glyph-name="uniFE88" unicode="&#xfe8e;&#x655;" horiz-adv-x="460" arabic-form="final" 
d="M-51 -490q-16 22 -16 43q0 51 51 105q-79 39 -79 91q0 34 20 71.5t50.5 69t66 51.5t65.5 20q35 0 59 -15.5t24 -38.5q0 -37 -48 -80q-11 13 -19 21t-15.5 12.5t-15.5 6t-20 1.5q-16 0 -32.5 -5t-30 -12.5t-21.5 -17t-8 -18.5q0 -13 11 -25.5t29 -23t40 -17t44 -6.5
q54 0 130 27l62 21q2 1 8.5 2.5t14.5 4.5q-16 -56 -37.5 -82.5t-62.5 -39.5l-106 -36q-119 -45 -164 -130zM50 1323l109 122q0 -30 2 -73.5t4 -100.5l5 -114q3 -63 6.5 -100t3.5 -48l29 -428q5 -65 10.5 -108.5t15 -72t24 -47t36.5 -33.5q31 -22 74 -32t91 -10h10
q8 0 13.5 -7.5t9 -19.5t5.5 -27.5t2 -31.5q0 -33 -7.5 -60t-22.5 -27h-30q-251 0 -296 180q-14 54 -21 178l-12 197l-10 129q-5 61 -6 94.5t-2 38.5l-25 240q-2 25 -6.5 64.5z" />
    <glyph glyph-name="afii57414" unicode="&#x64a;&#x654;" horiz-adv-x="1380" 
d="M1 569q-16 22 -16 43q0 52 52 105q-79 39 -79 92q0 35 20.5 72.5t51 68.5t66 51.5t65.5 20.5q35 0 58 -16.5t23 -39.5q0 -36 -48 -80q-10 14 -17.5 22t-15.5 12.5t-16.5 5.5t-19.5 1q-19 0 -35.5 -5t-29.5 -13t-20.5 -17t-7.5 -17q0 -13 11 -25.5t28.5 -23t40 -17
t45.5 -6.5q20 0 79 13t136 42q-8 -28 -17 -48t-21 -34t-27 -23.5t-35 -16.5q-69 -24 -116 -45t-77.5 -40.5t-48.5 -39.5t-29 -42zM1171 720q-32 14 -60.5 21t-54.5 7q-48 0 -106 -20t-109 -54q-159 -105 -159 -208q0 -55 47 -85.5t149 -42.5q97 -10 153.5 -22.5t86 -28
t38 -35.5t8.5 -44q0 -22 -4 -58t-13.5 -75t-25 -75t-39.5 -58t-64 -49t-84.5 -53t-88 -48.5t-73.5 -34.5q-110 -45 -205 -68t-186 -23q-98 0 -177.5 22.5t-136 69t-87 118.5t-30.5 171q0 49 10.5 103.5t27 107.5t37 102t41 86t39 59t30.5 22q17 0 17 -16q0 -5 -6.5 -21
l-16 -38l-21 -48l-22 -49.5l-18.5 -42t-10 -27.5q-21 -70 -21 -131q0 -69 26 -124.5t74.5 -95t118 -60.5t157.5 -21q76 0 193 27q111 26 196 59t142.5 66t87 63t29.5 51q0 15 -10.5 25t-34.5 16.5t-63.5 10t-97.5 4.5q-54 0 -101.5 13.5t-83 40t-56.5 65.5t-21 90
q0 59 27.5 121.5t71 123t98.5 114.5t109.5 95t103 65t80.5 24q64 0 117 -47q0 -34 -7 -73.5t-22 -86.5z" />
    <glyph glyph-name="uniFE8A" unicode="&#xfef2;&#x654;" horiz-adv-x="1310" arabic-form="final" 
d="M14 238q-16 22 -16 43q0 53 51 105q-79 41 -79 92q0 34 20.5 71.5t50.5 68.5t65.5 51.5t65.5 20.5q35 0 59 -15.5t24 -40.5q0 -35 -48 -79q-11 13 -19 21t-15.5 12.5t-15.5 6t-20 1.5q-17 0 -33.5 -5t-30 -12.5t-21.5 -17t-8 -17.5q0 -13 11 -26t28.5 -23t40 -16t45.5 -6
q12 -4 43.5 2.5t67 17t65.5 21l39 13.5q-8 -28 -17 -47.5t-21 -34t-27 -24t-35 -16.5q-69 -25 -116 -46t-77.5 -40.5t-48 -39t-28.5 -41.5zM1320 278q15 0 22.5 -27t7.5 -59.5t-7.5 -59.5t-22.5 -27h-10q-114 0 -192 -3t-128.5 -8t-78 -11.5t-40.5 -13.5t-15 -14t-2 -12
q0 -17 72 -34q82 -18 132.5 -31t78 -25t36.5 -24t9 -27q0 -39 -23 -86t-70 -94t-118 -91.5t-167 -79.5q-55 -20 -104.5 -35t-95.5 -24.5t-89.5 -14t-87.5 -4.5q-20 0 -60.5 3t-88.5 10.5t-97 20t-86 31.5q-145 76 -145 251q0 66 20.5 139t58.5 139q15 26 29.5 47.5t28 37
t24 24.5t17.5 9q17 0 17 -18q0 -6 -18 -35q-44 -66 -65 -126t-21 -114q0 -110 104.5 -171.5t322.5 -61.5q109 0 210 15.5t198 46.5q40 13 73 25.5t57 24.5t37 21.5t13 16.5t-25.5 16t-63.5 19l-82 21.5t-82 23.5t-63.5 23.5t-25.5 21.5q0 26 11.5 58t30.5 66t44.5 67
t53.5 61.5t57.5 50t56.5 31.5q5 2 23.5 3.5t45.5 2.5t60.5 1.5l67.5 1l66.5 1t58.5 0.5h30z" />
    <glyph glyph-name="uniFE8B" unicode="&#xfef3;&#x654;" horiz-adv-x="560" arabic-form="initial" 
d="M-4 789q-18 21 -18 43q0 51 50 104q-74 33 -74 97q0 33 18.5 69.5t47 66.5t64 50t69.5 20q35 0 56.5 -17t21.5 -46q0 -18 -11.5 -34t-34.5 -39q-16 23 -31 32.5t-41 9.5q-13 0 -28.5 -5t-29 -12.5t-22 -17t-8.5 -18.5q0 -13 11 -26t28.5 -23.5t38.5 -17t40 -6.5
q44 0 104 17.5t117 45.5q-6 -22 -12 -41t-17.5 -35t-29.5 -29.5t-48 -24.5q-68 -24 -112.5 -43t-73.5 -37t-45.5 -37.5t-29.5 -45.5zM-10 105q-10 0 -16.5 12.5t-10 32t-3.5 42t3.5 41.5t10 32t16.5 13h10q80 0 133.5 3t88 11t53 22t26.5 37q-17 53 -38 94.5t-56 85.5
l85 164q28 -46 45.5 -90.5t27 -84t12.5 -71.5t3 -55q0 -17 -8 -49t-20.5 -67t-29 -68t-34.5 -51q-10 -11 -28.5 -20.5t-49 -17t-77 -12t-113.5 -4.5h-30z" />
    <glyph glyph-name="uniFE8C" unicode="&#xfef4;&#x654;" horiz-adv-x="560" arabic-form="medial" 
d="M-4 631q-18 23 -18 43q0 51 50 104q-74 33 -74 98q0 33 18.5 69.5t47 66.5t64 50t69.5 20q35 0 56.5 -17.5t21.5 -45.5q0 -19 -11.5 -35t-34.5 -39q-16 23 -31 32.5t-41 9.5q-13 0 -28.5 -4.5t-29 -12t-22 -17t-8.5 -18.5q0 -13 11 -26.5t28.5 -24t38.5 -17t40 -6.5
q44 0 104 17.5t117 45.5q-6 -21 -12 -40t-17.5 -35t-29.5 -29.5t-48 -24.5l-56 -20q-47 -16 -80.5 -31t-56.5 -31.5t-39 -36t-29 -45.5zM-10 105q-15 0 -22.5 27t-7.5 59.5t7.5 59.5t22.5 27h10q47 0 96 6.5t94 21t84 38t66 57.5q25 31 38 31q9 0 14 -9.5t13 -36.5
q9 -28 25.5 -48.5t38 -34t45.5 -19.5t46 -6h10q15 0 22.5 -27t7.5 -59.5t-7.5 -59.5t-22.5 -27h-30q-60 0 -95.5 21.5t-56.5 48t-32.5 48t-22.5 21.5q-7 0 -30.5 -21.5t-62.5 -48t-94 -48t-126 -21.5h-30z" />
    <glyph glyph-name="uni0681" unicode="&#x62d;&#x654;" horiz-adv-x="1315" 
d="M1043 439q-27 0 -60 -2.5t-68 -6.5t-71 -9.5l-69 -10.5q-82 -13 -164.5 -41t-157 -68.5t-139 -93.5t-112 -118.5t-74.5 -141.5t-27 -163q0 -55 14.5 -114t48 -115.5t89.5 -107.5t139.5 -90t197 -61.5t261.5 -22.5q51 0 110.5 2.5t122 7.5t125 12.5t120.5 18.5
q23 5 38.5 6t24.5 1q16 0 19.5 -5t3.5 -14q0 -6 -17.5 -19t-49.5 -30.5t-77 -37.5t-101 -40q-61 -21 -113 -35.5t-101 -23t-98.5 -12.5t-107.5 -4q-174 0 -313 39t-236 113.5t-149 181.5t-52 243t39 252.5t108.5 214t164 175t205.5 134.5v4q-22 3 -53 8.5l-65.5 11.5
t-69.5 10t-66 4q-49 0 -80 -12.5t-51 -27.5t-32 -27.5t-24 -12.5q-18 0 -18 24q0 7 8 26.5t23.5 45t38.5 53.5t52.5 51.5t65 38.5t77.5 15q52 0 101 -10l112 -24q33 -7 70 -13.5t80.5 -11.5t95 -8.5t112.5 -3.5h221zM466 802q-8 11 -13 22t-5 21q0 53 51 104q-75 33 -75 98
q0 33 18.5 69.5t47 66.5t64.5 50t70 20q35 0 56 -17.5t21 -45.5q0 -18 -11.5 -34.5t-34.5 -39.5q-16 23 -30.5 32.5t-40.5 9.5q-14 0 -29.5 -4.5t-28.5 -12t-21.5 -17t-8.5 -18.5q0 -13 11 -26.5t28.5 -24t38 -17t39.5 -6.5q22 0 48.5 4.5t55.5 13t59.5 20t58.5 25.5
q-6 -21 -12.5 -39.5t-17.5 -35t-29.5 -30t-47.5 -24.5l-57 -20q-47 -16 -80 -31t-56.5 -31t-39.5 -35.5t-29 -46.5z" />
    <glyph glyph-name="uni0681.fin" unicode="&#xfea2;&#x654;" horiz-adv-x="1280" 
d="M466 802q-8 11 -13 22t-5 21q0 53 51 104q-75 33 -75 98q0 33 18.5 69.5t47 66.5t64.5 50t70 20q35 0 56 -17.5t21 -45.5q0 -18 -11.5 -34.5t-34.5 -39.5q-16 23 -30.5 32.5t-40.5 9.5q-14 0 -29.5 -4.5t-28.5 -12t-21.5 -17t-8.5 -18.5q0 -13 11 -26.5t28.5 -24t38 -17
t39.5 -6.5q22 0 48.5 4.5t55.5 13t59.5 20t58.5 25.5q-6 -21 -12.5 -39.5t-17.5 -35t-29.5 -30t-47.5 -24.5l-57 -20q-47 -16 -80 -31t-56.5 -31t-39.5 -35.5t-29 -46.5zM1260 105h-226q-101 0 -160 16.5t-89 40.5t-38.5 50t-8.5 44q0 42 10.5 81.5t26.5 72.5
q-82 -13 -164.5 -41t-157 -68.5t-139 -93.5t-112 -118.5t-74.5 -141.5t-27 -163q0 -55 14.5 -114t48 -115.5t89.5 -107.5t139.5 -90t197 -61.5t261.5 -22.5q51 0 110.5 2.5t122 7.5t125 12.5t120.5 18.5q23 5 38.5 6t24.5 1q16 0 19.5 -5t3.5 -14q0 -6 -17.5 -19
t-49.5 -30.5t-77 -37.5t-101 -40q-61 -21 -113 -35.5t-101 -23t-98.5 -12.5t-107.5 -4q-174 0 -313 39t-236 113.5t-149 181.5t-52 243t39 252.5t108.5 214t164 175t205.5 134.5l-53 11.5t-65.5 12.5t-69.5 10t-66 4q-49 0 -80 -12.5t-51 -27.5t-32 -27.5t-24 -12.5
q-18 0 -18 24q0 6 8 25t23 44.5t37 54t50.5 52t63.5 39t76 15.5q35 0 69 -5.5t71 -13t79.5 -17t95 -17t117.5 -13t146 -5.5h221l-72 -155q-54 0 -102 -3t-101 -17q6 -46 23 -74t51.5 -43t91 -19.5t142.5 -4.5h142q15 0 22.5 -27t7.5 -59.5t-7.5 -59.5t-22.5 -27h-30z" />
    <glyph glyph-name="uni0681.ini" unicode="&#xfea3;&#x654;" horiz-adv-x="1320" 
d="M466 855q-18 23 -18 43q0 52 51 104q-75 33 -75 97q0 33 18.5 69.5t47 67t64.5 50t70 19.5q35 0 56 -17t21 -46q0 -18 -11.5 -34t-34.5 -39q-16 23 -30.5 32.5t-40.5 9.5q-14 0 -29.5 -5t-28.5 -12.5t-21.5 -17t-8.5 -18.5q0 -13 11 -26t28.5 -23.5t38 -17t39.5 -6.5
q22 0 48.5 4.5t55.5 13t59.5 20t58.5 25.5q-6 -21 -12.5 -40t-17.5 -35t-29.5 -29.5t-47.5 -24.5l-57 -20q-47 -17 -80 -31.5t-56.5 -31t-39.5 -36t-29 -45.5zM0 278q75 -4 152 16.5t157 49.5l163.5 59t171.5 45q-27 16 -73 37t-96.5 40t-97.5 32t-75 13q-16 0 -40.5 -3.5
t-50 -9.5t-49.5 -13.5t-40 -16.5q-9 -4 -17 -4q-17 0 -17 15q0 3 2 9q15 31 36 65.5t48.5 64t61.5 48.5t74 19q46 0 92 -15t97.5 -37l111 -48.5t133 -48.5t163.5 -37t202 -15h111l-54 -151q-48 2 -93 3.5t-80 4.5q-101 9 -189 -9.5t-168 -51t-154.5 -73.5t-148.5 -76.5
t-151 -60t-162 -24.5h-30q-15 0 -22.5 27t-7.5 59.5t7.5 59.5t22.5 27h10z" />
    <glyph glyph-name="uni0681.med" unicode="&#xfea4;&#x654;" horiz-adv-x="1380" 
d="M466 855q-18 23 -18 43q0 52 51 104q-75 33 -75 97q0 33 18.5 69.5t47 67t64.5 50t70 19.5q35 0 56 -17t21 -46q0 -18 -11.5 -34t-34.5 -39q-16 23 -30.5 32.5t-40.5 9.5q-14 0 -29.5 -5t-28.5 -12.5t-21.5 -17t-8.5 -18.5q0 -13 11 -26t28.5 -23.5t38 -17t39.5 -6.5
q22 0 48.5 4.5t55.5 13t59.5 20t58.5 25.5q-6 -21 -12.5 -40t-17.5 -35t-29.5 -29.5t-47.5 -24.5l-57 -20q-47 -17 -80 -31.5t-56.5 -31t-39.5 -36t-29 -45.5zM1360 105h-184q-82 0 -136 12t-86 32t-45.5 48t-13.5 59q0 42 12.5 70.5t27.5 49.5q-74 21 -147 9t-146.5 -42
t-147.5 -71t-151 -78t-157.5 -63t-165.5 -26h-30q-15 0 -22.5 27t-7.5 59.5t7.5 59.5t22.5 27h10q79 -1 157 18.5t155 47l154.5 56.5t156.5 45v5q-25 13 -69 31.5t-92 35.5t-92.5 29t-71.5 12q-17 0 -41 -4t-49 -10.5t-48.5 -14t-39.5 -14.5q-9 -5 -17 -5t-12.5 4.5
t-4.5 10.5q0 2 2 8q15 31 36 65.5t48.5 64t61.5 48.5t74 19q35 0 68.5 -9t71.5 -25t84 -39l105 -50q87 -43 200 -60.5t270 -17.5h134l-45 -148q-40 6 -91 6q-48 0 -98 -9q-7 -18 -7 -38q0 -13 9.5 -24.5t33.5 -19.5t63.5 -13t99.5 -5h184q15 0 22.5 -27t7.5 -59.5
t-7.5 -59.5t-22.5 -27h-30z" />
    <glyph glyph-name="uni06BE" unicode="&#xfeeb;&#x200d;" horiz-adv-x="1165" 
d="M516 427q8 0 25.5 6.5t35.5 17.5t31.5 25t13.5 28q0 22 -7.5 44.5t-19 41t-26 30t-29.5 11.5q-13 0 -39 -13.5t-52 -33.5t-45.5 -42t-19.5 -40q0 -8 18 -20.5t40.5 -24.5t44.5 -21t29 -9zM644 401q29 -12 66 -25t73 -23.5t67.5 -17t49.5 -6.5q23 0 23 16q0 15 -15 39
t-37.5 51t-49.5 54.5t-51.5 49t-42.5 35.5t-23 14q-18 0 -18 -37q0 -27 -11 -66t-31 -84zM398 737q36 170 112 170q23 0 54 -13.5t66.5 -36t72.5 -52t72 -62.5t65.5 -67t52.5 -65q92 -131 92 -245q0 -84 -33.5 -127t-96.5 -43q-35 0 -84 17.5t-97 38.5l-86 38.5t-51 17.5
q-15 0 -22 -12q-18 -28 -54 -53.5t-81.5 -48t-96 -40.5t-98 -31t-87.5 -20t-65 -7q-15 0 -24 2.5t-9 7.5q0 8 13 17q32 27 59.5 52.5t65 51t91.5 52t139 54.5q-14 14 -22.5 25.5t-13.5 22.5t-7 22.5t-2 25.5q0 29 11 64.5t31 72.5t47.5 73t60.5 66q-30 22 -75 32z" />
    <glyph glyph-name="uni06C0" unicode="&#x647;&#x654;" horiz-adv-x="628" 
d="M82 347q74 -63 154 -63q28 0 64.5 9t65.5 24q0 51 -16 89.5t-41 64t-55 38.5t-58 13q-40 0 -67 -41t-47 -134zM181 105q-33 0 -65.5 14.5t-58 40t-41.5 60t-16 75.5q0 103 57 250q70 181 153 181q44 0 86.5 -32.5t76 -84.5t54.5 -115.5t21 -125.5q0 -26 -2.5 -55.5
t-8 -56.5t-14.5 -48.5t-22 -30.5q-17 -12 -46 -24.5t-61 -23t-62.5 -17.5t-50.5 -7zM342 1158q-10 8 -26 8t-34.5 -5.5t-34.5 -13.5t-26.5 -18t-10.5 -19q0 -7 22 -12.5t48 -13.5t48 -19t22 -29q0 -42 -27 -73t-67 -51.5t-87 -31t-86 -10.5q-38 0 -61.5 16.5t-23.5 35.5
q0 11 12 15t31.5 6t44.5 4t52 7q43 9 77 21.5t48 25.5q-13 3 -34 6t-41 11.5t-35 24.5t-15 45q0 24 15.5 55t40 58t54.5 45.5t58 18.5q14 0 28 -6t25 -20q0 -34 -15 -75z" />
    <glyph glyph-name="uniFBA5" unicode="&#xfeea;&#x654;" horiz-adv-x="650" arabic-form="final" 
d="M141 502q0 -15 50.5 -29t134.5 -14q17 0 27 2t15 7t6.5 15t1.5 25q0 44 -3.5 71.5t-9.5 43t-12.5 21.5t-12.5 6q-8 0 -25.5 -8.5t-39.5 -22.5t-45.5 -31t-42.5 -33.5t-31.5 -30.5t-12.5 -22zM379 1284q-10 8 -26 8t-34.5 -5.5t-34.5 -13.5t-26.5 -18t-10.5 -19
q0 -7 21.5 -12.5t48 -13.5t48 -19t21.5 -29q0 -42 -27 -73t-67 -51.5t-86.5 -31t-85.5 -10.5t-62 16.5t-23 35.5q0 11 11.5 15t31 6t44.5 4t52 7q44 9 77.5 21.5t47.5 25.5q-12 3 -33.5 6t-41.5 11.5t-35 24.5t-15 45q0 24 15.5 55t40 58t54.5 45.5t58 18.5q14 0 28.5 -6
t25.5 -20q0 -34 -15 -75zM392 393q-25 -18 -66 -63q-14 -16 -25 -26.5t-21 -16.5t-20 -8.5t-22 -2.5q-48 0 -91 9t-75.5 23.5t-52 31.5t-19.5 32q0 56 31 114t80 109.5t108.5 91.5t117.5 60l-14 97l73 93l62 -410q14 -80 24.5 -128.5t19.5 -65.5q14 -26 47 -40.5t101 -14.5
h10q15 0 22.5 -27t7.5 -59.5t-7.5 -59.5t-22.5 -27h-30q-53 0 -91 11.5t-65.5 43.5t-46.5 88t-35 145z" />
    <glyph glyph-name="uni06C2" unicode="&#x6c1;&#x654;" horiz-adv-x="628" 
d="M82 347q74 -63 154 -63q28 0 64.5 9t65.5 24q0 51 -16 89.5t-41 64t-55 38.5t-58 13q-40 0 -67 -41t-47 -134zM181 105q-33 0 -65.5 14.5t-58 40t-41.5 60t-16 75.5q0 103 57 250q70 181 153 181q44 0 86.5 -32.5t76 -84.5t54.5 -115.5t21 -125.5q0 -26 -2.5 -55.5
t-8 -56.5t-14.5 -48.5t-22 -30.5q-17 -12 -46 -24.5t-61 -23t-62.5 -17.5t-50.5 -7zM62 803q-16 23 -16 43q0 54 51 105q-42 16 -59.5 41t-17.5 54q0 35 20.5 72t51 68t65.5 50.5t65 19.5q35 0 57.5 -16.5t22.5 -39.5q0 -35 -47 -79q-10 13 -18 21t-15.5 12.5t-16 6
t-20.5 1.5q-13 0 -29.5 -4t-30 -11.5t-23 -17t-9.5 -20.5q0 -12 10.5 -24.5t28 -23t39.5 -17.5t46 -7q23 0 80.5 13t134.5 43q-8 -28 -17 -48.5t-20.5 -34.5t-26.5 -23.5t-35 -16.5q-70 -24 -116.5 -45t-77.5 -40.5t-48.5 -39.5t-28.5 -42z" />
    <glyph glyph-name="uni06C2.fin" unicode="&#xfba7;&#x654;" horiz-adv-x="700" 
d="M142 743q-16 23 -16 43q0 53 50 105q-42 16 -59 41t-17 54q0 35 20.5 72t51 68t65.5 50.5t64 19.5q35 0 58 -16.5t23 -39.5q0 -34 -47 -78q-10 13 -18 21t-15.5 12.5t-16 6t-20.5 1.5q-13 0 -29.5 -4.5t-30 -12t-23 -17t-9.5 -20.5t10.5 -23.5t28 -23t39.5 -17.5t46 -7
q23 0 80.5 12.5t133.5 42.5q-8 -28 -17 -48t-20 -34.5t-26 -24t-35 -16.5q-70 -24 -116.5 -45t-77.5 -40.5t-48.5 -39.5t-28.5 -42zM681 105q-39 0 -74 16t-66.5 41.5t-60 56l-56 59.5t-54 52t-53.5 34q-30 0 -56 -34t-52.5 -88.5t-56.5 -123.5t-68 -139l-84 -23
q5 30 17.5 71.5t29 88.5t36 96.5t39 94l37 81.5t30.5 59q11 17 24 33.5t28.5 29.5t34 21t41.5 8q27 0 54 -19.5t55 -48.5l58 -62.5t63.5 -62.5t71.5 -48.5t81 -19.5h10q15 0 22.5 -27t7.5 -59.5t-7.5 -59.5t-22.5 -27h-29z" />
    <glyph glyph-name="uni06C7" unicode="&#x648;&#x64f;" horiz-adv-x="876" 
d="M597 269q-6 0 -31 -25q-23 -23 -39.5 -31t-41.5 -8q-71 0 -111 42t-40 117q0 34 8 73t21.5 77t32 73.5t40.5 62.5t46 43t48 16q34 0 64 -28t52.5 -74t36 -106t13.5 -125q0 -122 -50 -260q-47 -136 -136 -249q-34 -45 -77 -82t-90 -63.5t-96 -41t-95 -14.5q-27 0 -59.5 8
t-67 23.5t-69.5 39t-68 53.5l-28.5 26t-9.5 16q0 5 6.5 10t13.5 5q8 0 26 -6l81.5 -25t50.5 -13.5t34.5 -5.5t33.5 -1q61 0 123.5 22.5t120 59.5t107.5 83.5t87 95.5t58.5 95.5t21.5 82.5q0 15 -5.5 24.5t-11.5 9.5zM608 396q-3 37 -14 65t-27 47t-34.5 28.5t-37.5 9.5
q-12 0 -23.5 -7.5t-20.5 -19.5t-14.5 -28t-5.5 -34q0 -74 104 -74q37 0 73 13zM478 978q-81 21 -114.5 51t-33.5 83q0 36 17.5 75t45 72t61.5 54t66 21q45 0 72.5 -42t27.5 -109q0 -55 -22 -124q26 -13 41 -22t22.5 -16.5t9 -15t1.5 -18.5q0 -31 -36 -81q-8 8 -20 16t-24 15
l-23 13t-18 9q-37 -48 -71 -82t-72.5 -61.5t-84 -52.5l-106.5 -56l-99 -6q-7 0 -7 5l41 25q42 24 91 57.5t94.5 68t83.5 67t57 54.5zM548 1073q2 14 3 26t1 20q0 51 -21 82.5t-56 31.5q-14 0 -28 -6t-24.5 -15.5t-17 -21.5t-6.5 -24q0 -14 11 -28.5t31 -27t47 -22.5t60 -15z
" />
    <glyph glyph-name="uniFBD8" unicode="&#xfeee;&#x64f;" horiz-adv-x="880" arabic-form="final" 
d="M594 284q-3 36 -12.5 62.5t-23.5 43t-31.5 24.5t-35.5 8q-28 0 -48 -26t-20 -63q0 -67 88 -67q44 0 83 18zM478 873q-81 21 -114.5 51t-33.5 83q0 36 17.5 75t45 72t61.5 54t66 21q45 0 72.5 -42t27.5 -109q0 -55 -22 -124q26 -13 41 -22t22.5 -16.5t9 -15t1.5 -18.5
q0 -31 -36 -81q-8 8 -20 16t-24 15l-23 13t-18 9q-37 -48 -71 -82t-72.5 -61.5t-84 -52.5l-106.5 -56l-99 -6q-7 0 -7 5l41 25q42 24 91 57.5t94.5 68t83.5 67t57 54.5zM548 968q2 14 3 26t1 20q0 51 -21 82.5t-56 31.5q-14 0 -28 -6t-24.5 -15.5t-17 -21.5t-6.5 -24
q0 -14 11 -28.5t31 -27t47 -22.5t60 -15zM671 105q-15 -62 -30.5 -110t-31.5 -83q-31 -71 -70.5 -129t-87.5 -106q-71 -72 -149 -113t-147 -41q-25 0 -47.5 3.5t-44.5 11t-46 19.5t-52 29q-24 16 -45 32t-36.5 30t-24.5 25t-9 17t5 10t12 4q12 0 30 -7l81 -25
q33 -10 65 -15.5t63 -5.5q49 0 107.5 25t117 65.5t110.5 91.5t88 102q34 52 49 89.5t15 76.5v5l-46 -1q-63 0 -105.5 8t-67.5 25.5t-35.5 44t-10.5 63.5q0 112 86 239q35 50 64 75t56 25q20 0 43.5 -21.5t44 -61.5t35.5 -97t18 -127h215q15 0 22.5 -27t7.5 -59.5t-7.5 -59.5
t-22.5 -27h-219z" />
    <glyph glyph-name="uni06C8" unicode="&#x648;&#x670;" horiz-adv-x="876" 
d="M597 269q-6 0 -31 -25q-23 -23 -39.5 -31t-41.5 -8q-71 0 -111 42t-40 117q0 34 8 73t21.5 77t32 73.5t40.5 62.5t46 43t48 16q34 0 64 -28t52.5 -74t36 -106t13.5 -125q0 -122 -50 -260q-47 -136 -136 -249q-34 -45 -77 -82t-90 -63.5t-96 -41t-95 -14.5q-27 0 -59.5 8
t-67 23.5t-69.5 39t-68 53.5l-28.5 26t-9.5 16q0 5 6.5 10t13.5 5q8 0 26 -6l81.5 -25t50.5 -13.5t34.5 -5.5t33.5 -1q61 0 123.5 22.5t120 59.5t107.5 83.5t87 95.5t58.5 95.5t21.5 82.5q0 15 -5.5 24.5t-11.5 9.5zM608 396q-3 37 -14 65t-27 47t-34.5 28.5t-37.5 9.5
q-12 0 -23.5 -7.5t-20.5 -19.5t-14.5 -28t-5.5 -34q0 -74 104 -74q37 0 73 13zM331 1287l64 131q21 -37 39 -83.5t31 -95t20.5 -94.5t7.5 -83q0 -31 -6.5 -66t-16 -64.5t-21 -49t-20.5 -19.5q-10 0 -10 13q0 8 3 32.5t3 51.5q0 31 -7.5 72.5t-20 86.5t-29.5 89t-37 79z" />
    <glyph glyph-name="uniFBDC" unicode="&#xfeee;&#x670;" horiz-adv-x="830" arabic-form="final" 
d="M594 284q-3 36 -12.5 62.5t-23.5 43t-31.5 24.5t-35.5 8q-28 0 -48 -26t-20 -63q0 -67 88 -67q44 0 83 18zM331 1182l64 131q21 -37 39 -83.5t31 -95t20.5 -94.5t7.5 -83q0 -31 -6.5 -66t-16 -64.5t-21 -49t-20.5 -19.5q-10 0 -10 13q0 8 3 32.5t3 51.5q0 31 -7.5 72.5
t-20 86.5t-29.5 89t-37 79zM671 105q-15 -62 -30.5 -110t-31.5 -83q-31 -71 -70.5 -129t-87.5 -106q-71 -72 -149 -113t-147 -41q-25 0 -47.5 3.5t-44.5 11t-46 19.5t-52 29q-24 16 -45 32t-36.5 30t-24.5 25t-9 17t5 10t12 4q12 0 30 -7l81 -25q33 -10 65 -15.5t63 -5.5
q49 0 107.5 25t117 65.5t110.5 91.5t88 102q34 52 49 89.5t15 76.5v5l-46 -1q-63 0 -105.5 8t-67.5 25.5t-35.5 44t-10.5 63.5q0 112 86 239q35 50 64 75t56 25q20 0 43.5 -21.5t44 -61.5t35.5 -97t18 -127h165q15 0 22.5 -27t7.5 -59.5t-7.5 -59.5t-22.5 -27h-169z" />
    <glyph glyph-name="uni06D3" unicode="&#x6d2;&#x654;" horiz-adv-x="1787" 
d="M149 -357q0 -8 52 -12.5t138 -7t197.5 -3t230.5 -0.5q188 0 369.5 5.5t344.5 5.5q68 0 97 -10t29 -26q0 -9 -15.5 -18.5t-49 -23t-87 -33l-128.5 -48.5q-109 -8 -235 -12t-287 -4q-107 0 -202.5 -0.5t-180.5 -0.5q-123 0 -219.5 3.5t-164 14.5t-103 32.5t-35.5 56.5
q0 50 21 89t58.5 70.5t89.5 57t114 48t131.5 43.5l142.5 44q77 24 147.5 50.5t137 58t131.5 70.5t131 87q45 33 77 75.5t59 87.5l51 88.5t52 77.5t62.5 55t82.5 21q15 0 32 -17.5t36 -45.5t38.5 -62l39 -67.5t38.5 -62t35 -45.5q-11 -7 -27 -7q-30 0 -65 20.5t-67.5 44.5
l-60 44.5t-42.5 20.5q-37 0 -63 -14.5t-47.5 -39.5t-42.5 -59l-47 -73t-61 -81t-85 -83q-39 -33 -96.5 -69.5t-127.5 -72t-149 -67t-162 -53.5q-69 -19 -127 -41t-100 -43t-65 -39.5t-23 -29.5zM1011 752q-16 23 -16 43q0 53 51 105q-42 16 -59.5 40.5t-17.5 53.5
q0 35 20.5 72.5t51 68t65.5 50t65 19.5q35 0 57.5 -16t22.5 -39q0 -36 -47 -79q-10 13 -18 21t-15.5 12.5t-16 6t-20.5 1.5q-13 0 -29.5 -4t-30 -11.5t-23 -17.5t-9.5 -21t10.5 -23.5t28 -23t39.5 -17.5t46 -7q23 0 80.5 13t134.5 43q-9 -28 -18 -48.5t-20 -34.5t-26 -23.5
t-35 -16.5q-70 -24 -116.5 -45t-77.5 -40.5t-48.5 -39.5t-28.5 -42z" />
    <glyph glyph-name="uniFBB1" unicode="&#xfbaf;&#x654;" horiz-adv-x="1660" arabic-form="final" 
d="M1162 510q-16 26 -16 43q0 54 51 105q-42 16 -59.5 41t-17.5 54q0 35 20.5 72t51 68t65.5 50.5t65 19.5q35 0 58 -16.5t23 -39.5q0 -34 -48 -79q-10 13 -18 21t-15.5 12.5t-16 6t-20.5 1.5q-13 0 -29 -4t-30 -11.5t-23 -17t-9 -20.5q0 -12 10.5 -24.5t28 -23t39.5 -17.5
t46 -7q23 0 80 13t134 43q-16 -56 -37 -82.5t-62 -40.5q-70 -24 -116.5 -45t-77 -40.5t-48 -39.5t-29.5 -42zM149 -515q0 -7 31 -11.5t85.5 -7.5t128 -4t158.5 -1t177.5 1t184.5 2.5l179 3t162 3t133.5 2.5t92.5 1q68 0 97 -10.5t29 -26.5q0 -9 -15.5 -18.5t-49 -23t-87 -33
l-128.5 -48.5q-109 -8 -235 -11.5t-287 -3.5q-107 0 -202.5 -0.5t-180.5 -0.5q-123 0 -219.5 3.5t-164 14.5t-103 32t-35.5 57q0 49 21 88t58.5 70.5t89.5 57t114 48t131.5 43.5l142.5 44l157.5 50.5t159 58.5t153.5 70.5t141 86.5q64 47 113.5 97t95.5 91t94.5 68t109.5 27
q18 0 39.5 -4t45 -9.5t47.5 -9.5t47 -4h10q15 0 22.5 -27t7.5 -59.5t-7.5 -59.5t-22.5 -27h-30q-43 0 -69 4t-42.5 9t-28 9t-25.5 4q-55 0 -98 -13t-88 -40.5t-98 -71.5l-128 -106q-39 -33 -106.5 -70t-149.5 -72t-171 -66t-172 -53q-69 -19 -127 -41t-100 -43.5t-65 -40
t-23 -29.5z" />
    <glyph glyph-name="uniFC32" unicode="&#x20;&#xfed3;&#xfef2;" horiz-adv-x="1351" arabic-form="isolated" 
d="M1036 668q-18 -34 -34.5 -57.5t-34.5 -37.5t-37.5 -20t-42.5 -6q-67 0 -104 44.5t-37 126.5q0 34 10.5 73t28 77.5t40 74.5t47.5 63t50.5 43.5t48.5 16.5q40 0 80.5 -61.5t77.5 -203.5q18 -72 28.5 -132t9.5 -109q0 -29 -4 -54.5t-12 -50t-21.5 -50t-32.5 -53.5
q-16 -24 -27 -50q30 -7 49.5 -15.5t31 -21.5t16 -31.5t4.5 -46.5q0 -40 -5 -72.5t-19 -62t-39.5 -59t-66.5 -63.5q-77 -64 -165 -113q-241 -132 -480 -132q-90 0 -163 22.5t-125 64.5t-80 102.5t-28 136.5q0 173 120 383q32 56 51 79t32 23q15 0 15 -15q0 -8 -18 -43
q-45 -84 -70 -162.5t-26 -132.5q0 -69 30 -122t81.5 -90t122 -56t151.5 -19q80 0 188 30q76 20 149 49t130.5 59.5t93 58.5t35.5 47q0 32 -59.5 57.5t-193.5 33.5l-31 1q-12 1 -19.5 1.5t-9.5 -0.5l35 128q12 2 20 4.5t12 3.5l40 8q103 21 158 71.5t55 124.5q0 73 -56 135z
M885 891q-43 -41 -43 -108q0 -62 56 -62q23 0 46.5 21.5t35.5 52.5l1 3q-10 34 -35.5 58.5t-60.5 34.5zM901 1541q75 -75 147 -115l-29 -33t-22.5 -30t-21.5 -36t-26 -50l-69 54.5t-76 48.5l-13 7l15 21l58 77.5t37 55.5zM465 -447l62.5 -49t53.5 -36l20 -12q46 59 76 111
l6 9l8 -6.5t5 -3.5l22 -19q17 -14 35 -26t38 -24l25 -14q2 -1 6 -3.5l12 -7.5q-53 -56 -97 -141q-60 56 -131 95q-18 -22 -37 -54t-40 -76q-20 21 -49 45t-68 50l-27 17q-3 1 -12 9q58 70 92 136z" />
    <glyph glyph-name="uni06CC_uni0659" unicode="&#x6cc;&#x659;" horiz-adv-x="1380" 
d="M74 1070q0 10 26 16t70.5 12l104 14.5t127.5 23.5q54 13 107 20.5t93 7.5q32 0 50.5 -5.5t20.5 -19.5q0 -7 -24 -17.5t-64 -22.5t-91.5 -24t-106 -21.5t-107.5 -15.5t-96 -6q-48 0 -77.5 9t-32.5 29zM1171 720q-32 14 -60.5 21t-54.5 7q-48 0 -106 -20t-109 -54
q-159 -105 -159 -208q0 -55 47 -85.5t149 -42.5q97 -10 153.5 -22.5t86 -28t38 -35.5t8.5 -44q0 -22 -4 -58t-13.5 -75t-25 -75t-39.5 -58t-64 -49t-84.5 -53t-88 -48.5t-73.5 -34.5q-110 -45 -205 -68t-186 -23q-98 0 -177.5 22.5t-136 69t-87 118.5t-30.5 171
q0 49 10.5 103.5t27 107.5t37 102t41 86t39 59t30.5 22q17 0 17 -16q0 -5 -6.5 -21l-16 -38l-21 -48l-22 -49.5l-18.5 -42t-10 -27.5q-21 -70 -21 -131q0 -69 26 -124.5t74.5 -95t118 -60.5t157.5 -21q76 0 193 27q111 26 196 59t142.5 66t87 63t29.5 51q0 15 -10.5 25
t-34.5 16.5t-63.5 10t-97.5 4.5q-54 0 -101.5 13.5t-83 40t-56.5 65.5t-21 90q0 59 27.5 121.5t71 123t98.5 114.5t109.5 95t103 65t80.5 24q64 0 117 -47q0 -34 -7 -73.5t-22 -86.5z" />
    <glyph glyph-name="uni06CC_uni0659.fin" unicode="&#xfbfd;&#x659;" horiz-adv-x="1310" 
d="M178 628q0 10 26 16t70.5 12l104 14.5t127.5 23.5q54 13 107 20.5t92 7.5q32 0 51 -5.5t21 -19.5q0 -7 -24 -17.5t-64 -22.5t-91.5 -24t-106 -21.5t-107.5 -15.5t-96 -6q-48 0 -77.5 9t-32.5 29zM1320 278q15 0 22.5 -27t7.5 -59.5t-7.5 -59.5t-22.5 -27h-10
q-114 0 -192 -3t-128.5 -8t-78 -11.5t-40.5 -13.5t-15 -14t-2 -12q0 -17 72 -34q82 -18 132.5 -31t78 -25t36.5 -24t9 -27q0 -39 -23 -86t-70 -94t-118 -91.5t-167 -79.5q-55 -20 -104.5 -35t-95.5 -24.5t-89.5 -14t-87.5 -4.5q-20 0 -60.5 3t-88.5 10.5t-97 20t-86 31.5
q-145 76 -145 251q0 66 20.5 139t58.5 139q15 26 29.5 47.5t28 37t24 24.5t17.5 9q17 0 17 -18q0 -6 -18 -35q-44 -66 -65 -126t-21 -114q0 -110 104.5 -171.5t322.5 -61.5q109 0 210 15.5t198 46.5q40 13 73 25.5t57 24.5t37 21.5t13 16.5t-25.5 16t-63.5 19l-82 21.5
t-82 23.5t-63.5 23.5t-25.5 21.5q0 26 11.5 58t30.5 66t44.5 67t53.5 61.5t57.5 50t56.5 31.5q5 2 23.5 3.5t45.5 2.5t60.5 1.5l67.5 1l66.5 1t58.5 0.5h30z" />
    <glyph glyph-name="uni06CC_uni0659.ini" unicode="&#xfbfe;&#x659;" horiz-adv-x="620" 
d="M-139 1025q0 10 26 16t70.5 12l104 14.5t127.5 23.5q54 13 107 20.5t93 7.5q32 0 50.5 -5.5t20.5 -19.5q0 -7 -24 -17.5t-64 -22.5t-91.5 -24t-106 -21.5t-107.5 -15.5t-96 -6q-48 0 -77.5 9t-32.5 29zM244 -120q35 -35 72.5 -64t82.5 -54q-29 -35 -50.5 -68.5
t-39.5 -71.5q-32 29 -65.5 55t-69.5 44q-24 -29 -46 -59t-36 -64l-71.5 58t-81.5 48q28 34 53.5 69.5t44.5 74.5q25 -28 58.5 -52.5t71.5 -44.5q25 29 44.5 61.5t32.5 67.5zM-10 105q-15 0 -22.5 27t-7.5 59.5t7.5 59.5t22.5 27h10q160 0 252 16.5t109 56.5q-17 53 -38 94.5
t-56 85.5l85 164q28 -46 45.5 -90.5t27 -84t12.5 -71.5t3 -55q0 -17 -8 -49t-20.5 -67t-29 -68t-34.5 -51q-21 -22 -107 -38t-221 -16h-30z" />
    <glyph glyph-name="uni06CC_uni0659.med" unicode="&#xfbff;&#x659;" horiz-adv-x="560" 
d="M-139 825q0 11 26 17t70.5 12l104 14t127.5 23q54 13 107 21t93 8q32 0 50.5 -6t20.5 -19q0 -7 -24 -17.5t-64 -22.5t-91.5 -24t-106 -21.5t-107.5 -15.5t-96 -6q-48 0 -77.5 8.5t-32.5 28.5zM244 -120q35 -35 72.5 -64t82.5 -54q-29 -35 -50.5 -68.5t-39.5 -71.5
q-32 29 -65.5 55t-69.5 44q-24 -29 -46 -59t-36 -64l-71.5 58t-81.5 48q28 34 53.5 69.5t44.5 74.5q25 -28 58.5 -52.5t71.5 -44.5q25 29 44.5 61.5t32.5 67.5zM-10 105q-15 0 -22.5 27t-7.5 59.5t7.5 59.5t22.5 27h10q47 0 96 6.5t94 21t84 38t66 57.5q25 31 38 31
q9 0 14 -9.5t13 -36.5q9 -28 25.5 -48.5t38 -34t45.5 -19.5t46 -6h10q15 0 22.5 -27t7.5 -59.5t-7.5 -59.5t-22.5 -27h-30q-60 0 -95.5 21.5t-56.5 48t-32.5 48t-22.5 21.5q-7 0 -30.5 -21.5t-62.5 -48t-94 -48t-126 -21.5h-30z" />
    <glyph glyph-name="afii57448_uni0659" unicode="&#x648;&#x659;" horiz-adv-x="876" 
d="M597 269q-6 0 -31 -25q-23 -23 -39.5 -31t-41.5 -8q-71 0 -111 42t-40 117q0 34 8 73t21.5 77t32 73.5t40.5 62.5t46 43t48 16q34 0 64 -28t52.5 -74t36 -106t13.5 -125q0 -122 -50 -260q-47 -136 -136 -249q-34 -45 -77 -82t-90 -63.5t-96 -41t-95 -14.5q-27 0 -59.5 8
t-67 23.5t-69.5 39t-68 53.5l-28.5 26t-9.5 16q0 5 6.5 10t13.5 5q8 0 26 -6l81.5 -25t50.5 -13.5t34.5 -5.5t33.5 -1q61 0 123.5 22.5t120 59.5t107.5 83.5t87 95.5t58.5 95.5t21.5 82.5q0 15 -5.5 24.5t-11.5 9.5zM608 396q-3 37 -14 65t-27 47t-34.5 28.5t-37.5 9.5
q-12 0 -23.5 -7.5t-20.5 -19.5t-14.5 -28t-5.5 -34q0 -74 104 -74q37 0 73 13zM132 1070q0 10 26 16t70.5 12l104 14.5t127.5 23.5q54 13 107 20.5t92 7.5q32 0 50.5 -5.5t20.5 -19.5q0 -7 -24 -17.5t-64 -22.5t-91.5 -24t-106 -21.5t-107.5 -15.5t-96 -6q-48 0 -77.5 9
t-31.5 29z" />
    <glyph glyph-name="afii57448_uni0659.fin" unicode="&#xfeee;&#x659;" horiz-adv-x="880" 
d="M594 284q-3 36 -12.5 62.5t-23.5 43t-31.5 24.5t-35.5 8q-28 0 -48 -26t-20 -63q0 -67 88 -67q44 0 83 18zM132 965q0 10 26 16t70.5 12l104 14.5t127.5 23.5q54 13 107 20.5t92 7.5q32 0 50.5 -5.5t20.5 -19.5q0 -7 -24 -17.5t-64 -22.5t-91.5 -24t-106 -21.5
t-107.5 -15.5t-96 -6q-48 0 -77.5 9t-31.5 29zM671 105q-15 -62 -30.5 -110t-31.5 -83q-31 -71 -70.5 -129t-87.5 -106q-71 -72 -149 -113t-147 -41q-25 0 -47.5 3.5t-44.5 11t-46 19.5t-52 29q-24 16 -45 32t-36.5 30t-24.5 25t-9 17t5 10t12 4q12 0 30 -7l81 -25
q33 -10 65 -15.5t63 -5.5q49 0 107.5 25t117 65.5t110.5 91.5t88 102q34 52 49 89.5t15 76.5v5l-46 -1q-63 0 -105.5 8t-67.5 25.5t-35.5 44t-10.5 63.5q0 112 86 239q35 50 64 75t56 25q20 0 43.5 -21.5t44 -61.5t35.5 -97t18 -127h215q15 0 22.5 -27t7.5 -59.5t-7.5 -59.5
t-22.5 -27h-219z" />
    <glyph glyph-name="uniFC5D" unicode="&#x649;&#x670;" horiz-adv-x="1380" arabic-form="isolated" 
d="M263 1203l64 131q21 -37 39 -83.5t31 -95t20.5 -94.5t7.5 -83q0 -31 -6.5 -66t-16 -64.5t-21 -49t-20.5 -19.5q-10 0 -10 13q0 8 3 32.5t3 51.5q0 31 -7.5 72.5t-20 86.5t-29.5 89t-37 79zM1171 720q-32 14 -60.5 21t-54.5 7q-48 0 -106 -20t-109 -54
q-159 -105 -159 -208q0 -55 47 -85.5t149 -42.5q97 -10 153.5 -22.5t86 -28t38 -35.5t8.5 -44q0 -22 -4 -58t-13.5 -75t-25 -75t-39.5 -58t-64 -49t-84.5 -53t-88 -48.5t-73.5 -34.5q-110 -45 -205 -68t-186 -23q-98 0 -177.5 22.5t-136 69t-87 118.5t-30.5 171
q0 49 10.5 103.5t27 107.5t37 102t41 86t39 59t30.5 22q17 0 17 -16q0 -5 -6.5 -21l-16 -38l-21 -48l-22 -49.5l-18.5 -42t-10 -27.5q-21 -70 -21 -131q0 -69 26 -124.5t74.5 -95t118 -60.5t157.5 -21q76 0 193 27q111 26 196 59t142.5 66t87 63t29.5 51q0 15 -10.5 25
t-34.5 16.5t-63.5 10t-97.5 4.5q-54 0 -101.5 13.5t-83 40t-56.5 65.5t-21 90q0 59 27.5 121.5t71 123t98.5 114.5t109.5 95t103 65t80.5 24q64 0 117 -47q0 -34 -7 -73.5t-22 -86.5z" />
    <glyph glyph-name="uniFC90" unicode="&#xfef0;&#x670;" horiz-adv-x="1310" arabic-form="final" 
d="M326 909l64 131q21 -37 39 -83.5t31 -95t20.5 -94.5t7.5 -83q0 -31 -6.5 -66t-16 -64.5t-21 -49t-20.5 -19.5q-10 0 -10 13q0 8 3 32.5t3 51.5q0 31 -7.5 72.5t-20 86.5t-29.5 89t-37 79zM1320 278q15 0 22.5 -27t7.5 -59.5t-7.5 -59.5t-22.5 -27h-10q-114 0 -192 -3
t-128.5 -8t-78 -11.5t-40.5 -13.5t-15 -14t-2 -12q0 -17 72 -34q82 -18 132.5 -31t78 -25t36.5 -24t9 -27q0 -39 -23 -86t-70 -94t-118 -91.5t-167 -79.5q-55 -20 -104.5 -35t-95.5 -24.5t-89.5 -14t-87.5 -4.5q-20 0 -60.5 3t-88.5 10.5t-97 20t-86 31.5q-145 76 -145 251
q0 66 20.5 139t58.5 139q15 26 29.5 47.5t28 37t24 24.5t17.5 9q17 0 17 -18q0 -6 -18 -35q-44 -66 -65 -126t-21 -114q0 -110 104.5 -171.5t322.5 -61.5q109 0 210 15.5t198 46.5q40 13 73 25.5t57 24.5t37 21.5t13 16.5t-25.5 16t-63.5 19l-82 21.5t-82 23.5t-63.5 23.5
t-25.5 21.5q0 26 11.5 58t30.5 66t44.5 67t53.5 61.5t57.5 50t56.5 31.5q5 2 23.5 3.5t45.5 2.5t60.5 1.5l67.5 1l66.5 1t58.5 0.5h30z" />
    <glyph glyph-name="uni06CC_uni0654" unicode="&#x6cc;&#x654;" horiz-adv-x="1380" 
d="M281 925q-8 7 -26 7q-16 0 -34.5 -5t-34.5 -13.5t-26.5 -18t-10.5 -18.5q0 -7 22 -13l48 -13.5t48 -19t22 -28.5q0 -42 -27 -73t-67 -51.5t-87 -31t-86 -10.5t-62 16.5t-23 35.5q0 11 11.5 15t31 6t45 4t52.5 7q43 9 77 21.5t47 25.5q-12 3 -33 6t-41.5 11.5t-35 24.5
t-14.5 45q0 24 15.5 55t40 58t54.5 45.5t58 18.5q14 0 28 -6t25 -20q0 -34 -15 -75zM1171 720q-32 14 -60.5 21t-54.5 7q-48 0 -106 -20t-109 -54q-159 -105 -159 -208q0 -55 47 -85.5t149 -42.5q97 -10 153.5 -22.5t86 -28t38 -35.5t8.5 -44q0 -22 -4 -58t-13.5 -75
t-25 -75t-39.5 -58t-64 -49t-84.5 -53t-88 -48.5t-73.5 -34.5q-110 -45 -205 -68t-186 -23q-98 0 -177.5 22.5t-136 69t-87 118.5t-30.5 171q0 49 10.5 103.5t27 107.5t37 102t41 86t39 59t30.5 22q17 0 17 -16q0 -5 -6.5 -21l-16 -38l-21 -48l-22 -49.5l-18.5 -42
t-10 -27.5q-21 -70 -21 -131q0 -69 26 -124.5t74.5 -95t118 -60.5t157.5 -21q76 0 193 27q111 26 196 59t142.5 66t87 63t29.5 51q0 15 -10.5 25t-34.5 16.5t-63.5 10t-97.5 4.5q-54 0 -101.5 13.5t-83 40t-56.5 65.5t-21 90q0 59 27.5 121.5t71 123t98.5 114.5t109.5 95
t103 65t80.5 24q64 0 117 -47q0 -34 -7 -73.5t-22 -86.5z" />
    <glyph glyph-name="uni06CC_uni0654.fin" unicode="&#xfbfd;&#x654;" horiz-adv-x="1310" 
d="M258 591q-10 8 -26 8t-34.5 -5.5t-34.5 -13.5t-26.5 -18t-10.5 -19q0 -7 22 -12.5t48 -13.5t48 -19t22 -29q0 -42 -27 -73t-67 -51.5t-87 -31t-86 -10.5t-62 16.5t-23 35.5q0 11 11.5 15t31 6t45 4t52.5 7q43 9 77 21.5t48 25.5q-13 3 -34 6t-41 11.5t-35 24.5t-15 45
q0 24 15.5 55t40 58t54.5 45.5t58 18.5q14 0 28 -6t25 -20q0 -34 -15 -75zM1320 278q15 0 22.5 -27t7.5 -59.5t-7.5 -59.5t-22.5 -27h-10q-114 0 -192 -3t-128.5 -8t-78 -11.5t-40.5 -13.5t-15 -14t-2 -12q0 -17 72 -34q82 -18 132.5 -31t78 -25t36.5 -24t9 -27
q0 -39 -23 -86t-70 -94t-118 -91.5t-167 -79.5q-55 -20 -104.5 -35t-95.5 -24.5t-89.5 -14t-87.5 -4.5q-20 0 -60.5 3t-88.5 10.5t-97 20t-86 31.5q-145 76 -145 251q0 66 20.5 139t58.5 139q15 26 29.5 47.5t28 37t24 24.5t17.5 9q17 0 17 -18q0 -6 -18 -35
q-44 -66 -65 -126t-21 -114q0 -110 104.5 -171.5t322.5 -61.5q109 0 210 15.5t198 46.5q40 13 73 25.5t57 24.5t37 21.5t13 16.5t-25.5 16t-63.5 19l-82 21.5t-82 23.5t-63.5 23.5t-25.5 21.5q0 26 11.5 58t30.5 66t44.5 67t53.5 61.5t57.5 50t56.5 31.5q5 2 23.5 3.5
t45.5 2.5t60.5 1.5l67.5 1l66.5 1t58.5 0.5h30z" />
    <glyph glyph-name="afii57451" unicode="&#xfe70;" arabic-form="isolated" 
d="M381 1798q-2 -26 -7.5 -45t-17.5 -34.5t-31 -29.5t-48 -30t-70.5 -35l-96.5 -45q-44 -20 -72.5 -36l-50.5 -28.5l-42 -23.5t-47 -22l-6 -2l-1 5q0 38 17 62t45.5 42t66.5 34.5t80 38.5l99.5 49l83 42.5l62 34t36.5 23.5zM376 1979q-3 -36 -12.5 -59t-37.5 -45t-80 -48
l-139 -67l-59.5 -27l-34.5 -15.5t-17 -8t-7 -4.5q-57 -29 -76.5 -42t-18.5 -12l-6 -3l-1 6q0 35 16 58.5t44 43t66.5 37l82.5 38.5l128 63.5l79 40.5t45.5 26z" />
    <glyph glyph-name="afii57452" unicode="&#xfe72;" arabic-form="isolated" 
d="M-232 1725q9 36 24.5 61.5t34.5 42t41 24t44 7.5q33 0 57 -14t39.5 -37.5t23.5 -54t8 -63.5q0 -28 -5.5 -56.5t-16.5 -54.5q29 18 62 42l63 48t54 46t35 36q-42 15 -69 28.5t-42.5 28.5t-21.5 33.5t-6 42.5q0 36 17.5 73t45.5 67t62 48.5t67 18.5q42 0 64 -36t22 -102
q0 -22 -4 -51.5t-16 -77.5q63 -31 63 -62q0 -24 -38 -84q-6 8 -11.5 14.5t-13.5 12.5t-19.5 12l-28.5 15q-52 -62 -133.5 -129t-173.5 -125q-43 -26 -50 -26q-6 0 -6 10q0 20 4.5 41t10.5 42t10.5 42t4.5 40q0 133 -107 133q-41 0 -95 -36zM301 1845q3 23 3 42q0 48 -17 78
t-45 30q-13 0 -27.5 -5t-26.5 -13t-20 -18t-8 -21q0 -28 39 -53.5t102 -39.5z" />
    <glyph glyph-name="afii57453" unicode="&#xfe74;" arabic-form="isolated" 
d="M246 -786q-2 -26 -7.5 -45t-17.5 -34.5t-31 -29.5t-48 -30t-70.5 -35l-96.5 -45q-44 -20 -72.5 -36l-50.5 -28.5l-42 -23.5t-47 -22l-6 -2l-1 5q0 37 17 61.5t45.5 42.5t66.5 34.5t80 38.5l99.5 48.5l83 43l62 34t36.5 23.5zM241 -605q-3 -36 -12.5 -59.5t-37.5 -45
t-80 -47.5l-139 -67l-59.5 -27l-34.5 -15.5t-17 -8t-7 -4.5q-57 -29 -76.5 -42t-18.5 -12l-6 -3l-1 6q0 34 16 58t44 43.5t66.5 37l82.5 38.5l128 63.5l79 40.5t45.5 26z" />
    <glyph glyph-name="afii57454" unicode="&#xfe76;" arabic-form="isolated" 
d="M394 1869q0 -32 -7.5 -55t-29 -44t-60 -43t-100.5 -52l-135 -66.5l-81.5 -41l-54.5 -29.5l-54 -31q-4 -2 -6.5 -3t-4.5 -2h-5q-3 3 -3 4q0 17 10.5 37.5t23.5 39t24 31.5t12 14q15 11 76.5 41.5l171.5 81.5l93 45l63.5 32.5t41 23t25.5 17.5z" />
    <glyph glyph-name="afii57455" unicode="&#xfe78;" arabic-form="isolated" 
d="M174 1745q-81 21 -114.5 51t-33.5 84q0 36 17.5 75t45 71.5t61.5 53.5t66 21q22 0 40.5 -11t31.5 -31t20.5 -47.5t7.5 -60.5q0 -53 -23 -124q27 -13 41.5 -22t22 -16.5t9 -15t1.5 -18.5q0 -33 -36 -81q-8 8 -20 16t-24 15t-23 12.5t-18 8.5q-37 -48 -71 -82t-72 -61.5
t-84 -52.5l-107 -56l-98 -5q-8 0 -8 4q58 33 115 71.5t106.5 75.5t88 70t58.5 55zM243 1841q2 14 3 25.5t1 20.5q0 51 -20.5 82t-55.5 31q-14 0 -28 -5.5t-25 -15t-17.5 -21.5t-6.5 -25q0 -14 11 -28.5t31 -27t47 -22t60 -14.5z" />
    <glyph glyph-name="afii57456" unicode="&#xfe7a;" arabic-form="isolated" 
d="M282 -603q0 -32 -8.5 -55.5t-36 -47.5t-80 -53t-139.5 -72l-94.5 -47l-53 -26t-25.5 -12t-11 -5l-73 -43q-4 -2 -7 -3t-5 -2h-5q-1 1 -1 6q0 2 1 4.5t8 18.5q19 44 32.5 65t27.5 31q15 10 76.5 41l170.5 82l94 45t63.5 33t40.5 23.5t25 16.5z" />
    <glyph glyph-name="afii57457" unicode="&#xfe7c;" arabic-form="isolated" 
d="M326 1926l-1 -45q0 -131 -31 -200t-91 -69q-40 0 -82 23q-24 -22 -41 -36t-31 -22t-28 -11t-32 -3q-90 0 -90 91q0 28 8.5 63t20.5 66t26 52.5t25 21.5q5 0 9.5 -5.5t4.5 -13.5q0 -13 -4 -29.5t-9 -33t-9 -32t-4 -28.5q0 -17 9 -27t33 -10q34 0 59 24t33 65q20 87 49 87
q13 0 13 -20q0 -10 -0.5 -20.5t-0.5 -21.5q0 -13 2.5 -25.5t9.5 -21.5t20 -14.5t35 -5.5q33 0 33 22q0 11 -3.5 24.5t-3.5 26.5q0 38 17 68.5t54 59.5z" />
    <glyph glyph-name="afii57458" unicode="&#xfe7e;" arabic-form="isolated" 
d="M-33 1709q0 42 14 83t37.5 72.5t53 51t60.5 19.5q26 0 50.5 -15.5t44 -40t31 -56t11.5 -64.5q0 -37 -16 -72t-41.5 -61t-58 -42t-64.5 -16q-27 0 -49.5 10.5t-38.5 29t-25 44.5t-9 57zM15 1747q0 -15 7 -28.5t19.5 -23.5t29.5 -16t36 -6q20 0 37.5 6t31.5 15.5t22 21
t8 22.5q0 15 -9 31t-23.5 29.5t-31.5 22.5t-33 9q-18 0 -34.5 -7t-30 -18.5t-21.5 -26.5t-8 -31z" />
    <glyph glyph-name="uniFDFA" unicode="&#xfdfa;" horiz-adv-x="2652" arabic-form="isolated" 
d="M1270 999q52 18 86 48.5t54.5 67.5t29 78.5t8.5 83.5q0 10 -4.5 53t-12 103l-16 129l-16.5 132l-14 111.5t-8 67.5l16 61.5t17 61.5l44 -114q3 -7 6 -15t5 -18l58 -589q8 -67 17.5 -109t23.5 -67t33.5 -36t48.5 -16q-6 35 -8 72.5t-10 72.5q8 32 15 64l14 61l40.5 -104
t23 -66t10 -44.5t2.5 -39.5q16 10 30 23l26 25l69 68h14q8 -51 25 -82t31 -47l75 114.5t83.5 109t93.5 81.5t105 32q46 0 81.5 -14.5t59 -38t35 -53t11.5 -60.5q0 -19 -5.5 -42t-8.5 -34q-4 -47 -43 -92.5t-97.5 -80.5t-131 -56t-144.5 -21q-29 0 -62.5 2.5t-68.5 16.5
q-15 -15 -26.5 -29t-18.5 -28h-30l35 82q-8 9 -25 30t-29 57q-14 -31 -33.5 -50.5t-48.5 -34.5q1 -9 3 -35.5l4 -55t3.5 -52t1.5 -27.5t3.5 -28t8 -58.5l10 -75l10 -75.5t7.5 -61t3 -34q5 -29 13 -54t23 -42.5t36.5 -28t50.5 -10.5q9 0 27 2.5t34 8.5l-62 62.5t-33 35.5
q-12 33 -24.5 58t-12.5 45q0 19 5.5 55.5t24 73.5t53 64.5t92.5 27.5q82 0 148.5 -24t123.5 -77v-24q-63 21 -114.5 26.5t-83.5 5.5q-8 0 -21 -1t-35.5 -7.5t-57 -19t-86.5 -35.5l2 9l-3 -10q0 -25 26 -57.5t63.5 -61t81 -48.5t79.5 -20q21 0 47.5 6.5t61 20.5t78.5 37
t100 58l-25 -66.5l-24 -63.5l-36 -20l-57.5 -33l-58 -35t-41.5 -27l-13 -7v1q-38 -16 -76.5 -29.5t-75.5 -24t-71 -17t-62 -6.5q-68 0 -111 41t-54 141h-2q-26 -99 -64.5 -142.5t-101.5 -43.5q-61 0 -98.5 41.5t-48.5 114.5l-114 -62t-93.5 -46.5t-78 -32t-68.5 -20.5
q2 -67 7.5 -123t19 -96t37.5 -63t64 -25q29 -2 52.5 -3t39.5 -1q5 0 12 1t21 4t38 10.5l64 20.5q34 7 82 24t116 54h34q-8 -21 -14.5 -43.5t-6.5 -30.5q0 -13 4.5 -26.5t12.5 -24.5t21 -18.5t28 -7.5q34 0 76 38t107 130h23q-1 -9 -1.5 -14.5t-1.5 -8.5l-1 -4q0 -55 23 -86
t62 -31q22 0 33 7t20 15q-8 18 -14.5 30t-10.5 26v-1l-6.5 11t-7.5 11q13 28 28.5 56.5t27.5 55.5q9 -1 16 -11.5t13 -26.5t9.5 -36t3.5 -40q0 -54 -13.5 -95t-34 -68.5t-45.5 -42t-49 -14.5q-51 0 -80 25t-37 67q-9 -15 -22 -28t-24 -28q0 -13 -1 -23t-1 -16
q0 -46 15 -80.5t38.5 -57t54 -33.5t60.5 -11q33 0 73.5 5.5t95.5 29t129 71t173 129.5q-4 19 -10.5 42.5t-31.5 40.5l-1 -1v1q-2 2 -12 2.5t-16 2.5h-105q-22 0 -37 8t-22.5 21.5t-11 30.5t-3.5 36v35q1 29 10.5 55t25.5 45.5t36.5 31.5t43.5 12q30 0 61 -26.5t56.5 -67
t41.5 -88.5t16 -90q0 -63 -9.5 -106t-30.5 -76.5t-56 -64.5t-86 -70q-22 -17 -40 -33.5t-42 -18.5q-47 -24 -82.5 -40t-64.5 -26t-54 -14t-50 -4q-49 0 -86.5 22t-64.5 60.5t-41 92t-14 115.5v21q-24 -13 -41 -18t-36 -5q-61 0 -87 38.5t-26 117.5q-66 -35 -115 -56.5
t-90.5 -34t-81.5 -17t-88 -4.5q-51 0 -85.5 14t-56.5 43.5t-32 74.5t-12 107h-1q-1 -3 -2 -7t-3 -7v1q-12 -20 -19.5 -42t-17.5 -33l-62 -95q38 -26 58 -43.5t27 -35.5q-3 -29 -6.5 -58.5t-7.5 -57.5q-54 18 -97 23t-77 5q-42 0 -86.5 -17.5t-89 -42.5t-87 -54l-79.5 -52
q-64 -48 -108.5 -71t-81.5 -23q-30 0 -52.5 12t-38 33.5t-24.5 50t-10 60.5q1 1 1 18q6 68 122 244q7 -4 14.5 -6.5t14.5 -4.5q-57 -94 -80.5 -145t-23.5 -80q0 -33 17 -58.5t55 -25.5q18 0 32.5 2.5t34 13.5t48 33l77.5 62q53 44 109 78t110 55q12 3 21.5 4.5t20 3t23.5 4
t33 7.5v1q-10 4 -32 4q-26 0 -51 -16q7 38 22.5 66t39.5 54h-1q60 31 91 44.5t41 18.5l8 2q42 36 70 95.5t35 138.5v6h-92q-118 0 -202 49t-116 139l-27 110q-15 0 -31.5 -9.5t-33 -24.5t-33.5 -34.5t-32 -38.5q-12 -22 -29 -60.5t-34 -88.5q-31 -95 -54 -136.5t-44 -41.5
q-14 0 -37.5 24.5t-45.5 70t-38.5 111.5t-16.5 149q0 42 0.5 76.5t2.5 58.5h29q4 -95 17 -162t29.5 -109.5t34.5 -62.5t32 -20q0 2 9 24.5l23.5 57t34 76.5t40 82t41 73.5t37.5 51.5q59 68 107 68q20 0 29.5 -16.5t14.5 -44.5q17 -85 39.5 -136.5t62 -79t101.5 -36.5t157 -9
h15q-5 51 -8.5 99t-8.5 99h-5q-60 0 -106.5 14t-78 44.5t-48 78.5t-16.5 118q0 17 7 46.5t17 65l21 72.5t19 71q-24 16 -37.5 50.5t-24.5 88.5h-2q-15 -58 -36 -96.5t-46.5 -62t-55.5 -34.5t-64 -16q-38 1 -69 19t-53 48t-34 70.5t-12 87.5q0 36 4 77t18 104l-2 1
q-11 -15 -21.5 -37t-15.5 -46q-5 -9 -15 -63t-20 -143q-10 -51 -33 -81t-58 -30q-33 0 -57 21.5t-40 56.5t-23 79.5t-7 91.5q0 15 2 31.5t8 36.5t16.5 44.5t27.5 59.5q4 -3 8 -7t9 -7q-12 -48 -19.5 -84.5t-7.5 -66.5q0 -55 20.5 -95t64.5 -53q12 0 20.5 20t15.5 50.5
t13 68.5t14 74q15 73 53.5 133t102.5 102q3 -3 7.5 -8t8.5 -10q-21 -93 -30 -154t-9 -110q0 -74 27 -120t86 -46q36 0 67.5 15.5t55 41.5t38 60t14.5 70q0 44 -12 106t-32 151l31 96q6 -11 16.5 -41.5t22.5 -70.5t22.5 -84t16.5 -82q10 -66 26 -110.5t36.5 -72t44.5 -39.5
t51 -12q22 0 37 12t40 50q-18 47 -36 100l-33.5 101.5l-29 88.5t-24.5 61q2 23 6 54t15 55l54.5 -68.5l54.5 -67.5v-35l-35 15l35 -94t22.5 -62.5t12 -50t3.5 -57.5v-29q-3 -17 -3 -31q0 -69 -34 -111.5t-97 -42.5q-20 0 -36 2.5t-39 17.5q-24 -71 -34.5 -114t-10.5 -74
q0 -39 12.5 -70.5t35 -53.5t53.5 -34t68 -13q-2 33 -6 70.5t-6 71.5l15.5 59.5l15.5 59.5q38 -48 52 -108.5t14 -145.5q117 16 229.5 65t233.5 123q-7 9 -27.5 20t-44 21t-45 17.5t-32.5 10.5q-27 9 -63.5 16l-83.5 16q10 26 18 52.5t19 50.5l54 18l-1 2zM1654 918
q-88 2 -131.5 49t-51.5 127h-2q-10 -30 -30 -61.5t-60 -73.5q53 -20 82 -34.5t41.5 -26.5t14 -24t1.5 -28q0 -32 -4.5 -60t-12.5 -42q-11 -24 -36.5 -51t-63 -55.5t-83 -56t-95.5 -50.5t-101.5 -40t-99.5 -26l12 -100l12 -100q89 17 184 63t207 118q12 -47 23.5 -79t25 -52
t29.5 -29t37 -9q36 0 63.5 19.5t39.5 51.5q4 10 17 47.5t25 100.5zM1143 901q0 -40 -6.5 -100t-23.5 -127h-25l-23 324l-7.5 68.5l-12.5 114l-15 136.5l-15.5 136t-12.5 113t-7 67l-12 50t-12.5 51.5t-11.5 48l-9 39.5l23 58t26 59q27 -61 58.5 -125t58.5 -125v-61l-54 68
l-6 -4l40 -346l39 -344zM2339 1079q39 28 62 47t30 27q-13 19 -31 35.5t-42 30.5t-50.5 21.5t-55.5 7.5q-59 0 -129.5 -58.5t-155.5 -182.5q32 -5 67.5 -6t57.5 -1q33 0 61 4.5t56.5 14t59.5 24.5t70 36zM2189 1936q0 -1 2.5 -14.5t2.5 -26.5q0 -119 -137 -149
q-14 -4 -44 -14.5l-68 -23.5l-79.5 -27.5l-77 -27l-62 -21.5t-33.5 -11q-13 -11 -29 -26.5t-27 -31.5h1q-19 -8 -37 -17t-35 -16q12 63 37 99.5t64 63.5h-2l410 142q34 14 62.5 40t40.5 64zM1490 -357q1 -1 1 -18q0 -12 -5 -27t-13.5 -27.5t-19 -21t-21.5 -8.5q-10 0 -44 24
q-27 -27 -45.5 -37.5t-38.5 -10.5q-15 0 -20 4l-22 5q-34 -35 -62.5 -61.5t-53.5 -46.5t-47.5 -35l-44.5 -29h1q-39 -21 -104.5 -40t-163.5 -39l-2 10q108 44 188.5 86.5t134.5 77.5q34 21 80 58.5t97 86.5q20 -16 30.5 -19.5t16.5 -3.5q14 0 32.5 9.5t42.5 40.5
q8 -12 17.5 -19t14.5 -9q6 1 13.5 7.5t13.5 15.5l11.5 16.5t7.5 10.5h5zM772 1592l-1 1q-17 -54 -60 -54q-30 0 -59 43q-14 -24 -25.5 -36.5t-30.5 -12.5q-16 0 -26.5 8.5t-17 21t-9 26t-2.5 24.5l-1 32q-4 -6 -11.5 -14.5l-12.5 -14.5l-2 -2q-10 9 -10 14q0 13 59 97
q9 -1 15 -7t9 -20t4.5 -37t1.5 -59q0 -3 4 -3q9 0 20 8t16 23q-3 22 -5 42t-5 36l12 12t11 13l26 24q2 -76 13 -109t34 -33q6 0 13.5 4t7.5 11q0 10 -6.5 27.5t-19.5 36.5q9 20 16.5 38.5t14.5 38.5q20 -45 28 -78.5t8 -59.5zM1467 74l-33 -50.5l-33 -47.5l-80 58
q-20 -17 -34.5 -40l-28.5 -45q-23 19 -51 38l-54 37q17 24 33 50.5t33 50.5l78 -65q20 23 35 44t32 37zM643 1941q1 -14 2 -32.5t1 -45.5q0 -32 -6 -61.5t-34 -59.5q0 18 2.5 40t2.5 38q0 19 -1 35.5t-5.5 32.5t-14 31t-27.5 31v91q44 -31 58.5 -55t21.5 -45zM2323 -29
q-25 18 -40.5 26.5t-33.5 8.5q-9 0 -20 -5t-11 -15q0 -7 10 -10zM1270 999q-2 0 -4 -1z" />
    <glyph glyph-name="uniFDF7" unicode="&#xfdf7;" horiz-adv-x="3382" arabic-form="isolated" 
d="M3130 -68l-9 -4q-3 -3 -28.5 -13.5l-61.5 -25l-77 -31.5l-76 -30.5l-59 -23t-25 -9.5q-50 -17 -100.5 -32t-96 -26t-84 -18t-66.5 -7q-57 0 -103.5 16.5t-69.5 46.5q-15 18 -37.5 61.5t-49.5 103.5q-6 -49 -23.5 -89.5t-41.5 -70t-52.5 -45t-56.5 -15.5q-110 0 -178 113
q-12 -35 -41 -62.5t-71 -49t-95 -37t-112 -24.5q-4 -21 -8.5 -39.5t-15.5 -32.5q-3 11 -4 18.5t-1 15.5q0 5 1 11.5t4 16.5v2q-76 -8 -141 -12.5t-101 -4.5q-105 0 -179.5 19.5t-125 66.5t-79 124t-41.5 192q-32 -57 -79.5 -79.5t-119.5 -22.5q-40 0 -82.5 6t-77.5 16.5
t-57.5 23t-22.5 23.5q0 112 156 186q82 24 139 47.5t108 39.5q0 12 -0.5 26t-1.5 24v5q-1 1 -1 15v14q0 12 0.5 21.5t0.5 15.5q0 13 -4 22q3 14 14.5 43t34.5 75l25 -222q48 39 87.5 74.5l62.5 55.5l-20 79.5t-22.5 98l-23 109t-20.5 109.5q-5 15 -5.5 25t-0.5 19.5t-2 19.5
t-11 25q-11 -98 -45 -189t-82 -174q-26 -44 -58 -84.5t-67.5 -75t-71.5 -62t-70 -45.5q-26 -10 -61 -19.5t-75.5 -18.5t-83.5 -17.5l-86 -16.5l-1 7q47 37 87.5 65.5t84.5 56.5l3 2q14 16 35 28t35 27q102 67 159.5 117.5t68.5 70.5q7 24 9.5 50.5t2.5 48.5q0 26 -10.5 67
t-25.5 78q-8 18 -27.5 43.5t-46.5 54.5t-59.5 60.5l-65.5 61.5q-76 79 -135.5 119t-92.5 43l-5 -6q-6 -2 -13 -7l-10 -7q-53 23 -84 39.5t-35 18.5q-11 13 -18.5 47.5t-7.5 88.5q0 26 4.5 36.5t19.5 10.5q63 0 146.5 -41t184.5 -130q87 -76 156 -145.5t121 -148.5
q23 -36 36.5 -86t13.5 -116q0 -23 -3 -54t-10 -63q28 33 53.5 76t46 88t33 87.5t12.5 73.5q0 7 -0.5 13t-1.5 11l-6.5 58l-10.5 93.5t-11.5 111t-11.5 110.5t-9.5 91t-4.5 54q12 40 25 73t26 61q0 -3 5.5 -43l13.5 -98.5l17.5 -127.5l18 -128.5l15 -102.5l7.5 -50
q40 -229 73 -369t57 -191q48 -51 125.5 -82.5t166.5 -32.5q-8 18 -21.5 56.5t-29 87.5l-32.5 105.5t-30.5 111t-22 102t-8.5 80.5q0 25 10.5 53t28 53t41 45.5t49.5 31.5q16 114 44 174.5t63 60.5q18 0 45.5 -12t61 -33.5t72 -52t76.5 -67.5q-4 -44 -8.5 -74.5t-11.5 -39.5
q-12 -8 -72 -26t-148 -37q-74 -14 -122.5 -33.5t-58.5 -37.5l11.5 -50.5t14 -52.5t12.5 -45t6 -29q3 -8 10.5 -34.5l18 -62.5l22.5 -75.5l22.5 -74l18 -57.5t9.5 -26v1q2 -2 2 -5.5t2 -7.5v2q7 -7 7 -20q32 2 80.5 9t93.5 19q109 30 158 57h-2l23.5 35t33.5 39v-34
q-3 -5 -7 -20t-16 -41q48 3 92 7t86 12q32 0 58.5 23t39.5 58q8 19 18.5 37.5t16.5 25.5q5 -9 5.5 -13t0.5 -10q0 -23 -10 -41.5t-20 -32.5q11 -2 29.5 -3.5t29.5 -1.5q-3 31 -7 86.5l-9 125l-11 148l-12 156t-11 150l-9 128.5t-7 92t-3 42l17 46q2 5 4 12.5t2 9.5l5 12
q6 18 15.5 36.5t11.5 27.5l7 -1q0 -8 0.5 -13t1.5 -11v-9q1 0 1 -2v-4q2 -2 2 -9v-9q2 -2 2 -6.5t1 -4.5v-10q2 -26 5.5 -77t9 -118t10.5 -144t11 -157t10.5 -158l8.5 -144.5t7.5 -117.5t4.5 -79q42 10 73 23.5t39 29.5l7 7q3 6 3.5 11t2.5 8l1 5l12 23t25 27l1 -53
q0 -10 13 -21.5t32.5 -21t43.5 -16t47 -6.5q3 0 11 4t12 9q-26 106 -48 212.5t-38 204.5t-24 184.5t-8 152.5q0 18 -7 45.5t-17 56.5t-21 54.5t-20 40.5q0 1 -2.5 5.5t-2.5 7.5q0 5 6 28t14 49.5l14.5 48t8.5 24.5l7 -10q5 -5 10 -5q2 -6 8 -21t14.5 -32.5l18 -38
t21.5 -39.5v1q3 -5 4.5 -11t6.5 -12v1l1 -2l29.5 -58.5t14.5 -48.5q0 -18 -7.5 -43.5t-18.5 -54.5l-10 -30q4 -32 13.5 -88.5l21 -124l23.5 -138.5l23 -131l19 -102l10 -52q0 -45 -3.5 -88t-15.5 -76t-35 -53t-61 -20q-44 0 -80 19.5t-66 50.5q-31 -70 -123 -87v-14
q3 -68 7 -136t11.5 -129.5t18.5 -112t28 -81.5v1q15 -21 35.5 -40.5t44 -35t49.5 -24.5t53 -9q46 0 53 4q-56 75 -89 148.5t-33 164.5q0 21 10 48t26 54.5t34.5 50t34.5 33.5q49 35 102 54t107 19q153 0 230 -178q-60 24 -117 41.5t-96 17.5q-34 0 -78.5 -8t-84 -22.5
t-67 -33t-27.5 -39.5q0 -36 22 -81t56.5 -84t76.5 -65.5t81 -26.5q89 0 209 36t284 109zM2178 68q0 90 -5.5 178t-10.5 180q-29 9 -58 20t-42 22q-30 -37 -77 -59t-107 -22q-88 0 -103 30q-48 -32 -110.5 -55.5t-158.5 -48.5q-1 -1 -2 -1t-2 -1l-26 -4l24.5 -122l21 -109
t15 -87.5t5.5 -57.5v-27q0 -8 -1.5 -20.5t-2.5 -24.5v-4q0 -16 -1 -26t-1 -21l110.5 32.5t94.5 33t65.5 31t24.5 26.5q8 9 14 24.5t12.5 30t13.5 26.5t16 15l-2 -64q0 -14 -6 -22q50 -29 94.5 -50t64.5 -21q29 0 54 17t44 45t30.5 64t11.5 72zM1504 -159q0 19 -9 63.5
t-24.5 105.5t-36.5 136l-45 155q-21 -2 -41.5 -3t-31.5 -1q-99 0 -172 36t-126 103l-6 -9q-1 -1 -2 -1.5t-3 -2.5l-4 -4l-79.5 -93t-64.5 -71l22.5 -117t23.5 -105t23.5 -83t22.5 -52q42 -61 124.5 -88.5t219.5 -27.5q31 0 88 3t121 11v45zM3089 415q0 -38 -4 -80.5
t-10 -90.5q-27 -107 -75 -138v31q0 10 4 31t9.5 43t9.5 40.5t4 23.5q0 34 -5.5 97t-15 139l-20.5 157.5t-22 151.5q-6 50 -8.5 98t-11.5 78l-24.5 179.5t-19.5 154.5t-13 122.5t-5 80.5q0 11 5 32t12.5 42.5t16 37.5t16.5 16q9 0 12.5 -10t4 -26t1 -36t5.5 -40q1 -1 1 -9
h-14q6 -30 14 -89l18.5 -135.5l22.5 -164.5l24.5 -177t23 -172l19 -149l14 -109t6.5 -53q2 -14 3.5 -28t1.5 -25v-15v-8zM2060 1744l-188 -59l-197 -64.5l-188 -63l-161 -55.5l-116.5 -40.5t-55.5 -18.5q2 4 2.5 7.5t2.5 9.5l9 21q0 17 6 28t6 19l43 15l94 32.5l128 44
l144.5 50l144.5 49l126.5 42.5l91.5 31t40 13l82 26zM2013 923q0 -58 -19 -84.5t-52 -26.5q-25 0 -52 27l-4 5l-31.5 -26.5t-32 -23.5t-28.5 -16t-20 -6q-51 0 -71.5 36t-22.5 96q8 57 14 87.5t23 30.5q11 0 14 -4.5t3 -15.5q0 -13 -4 -30.5t-4 -25.5q0 -30 10 -45t38 -15
t44.5 11t22.5 28v17q0 20 2 41t6 47q3 -5 7.5 -10t8.5 -9l9 -15q9 -10 17 -21.5l14.5 -21.5t13.5 -17t13 -7q4 0 6.5 6t3.5 11q-8 14 -13.5 35t-6.5 33l9 39t11 40q34 -48 52.5 -89.5t18.5 -80.5zM2039 -478q-35 -48 -57.5 -75t-41.5 -29q-11 6 -24.5 12.5l-26 13
t-22.5 10.5t-14 4l-13 3q-2 1 -3.5 1.5l-4.5 1.5q-1 -2 -2 -3t-2 -3h-1q-12 -16 -36 -38t-49 -34q-19 9 -36.5 18.5t-36.5 17.5l-10 5q-7 0 -16.5 4t-17.5 9.5l-13.5 9.5t-6.5 5q42 44 65.5 74.5t26.5 36.5v-1l2.5 5t2.5 4l130 -74q25 21 50.5 46.5t37.5 39.5zM458 887
q5 -11 6.5 -17t1.5 -13q0 -9 -6 -22.5t-15 -23.5q-10 36 -21.5 54.5t-29.5 18.5q-12 0 -12 -24q0 -14 3 -38t5.5 -50l5 -50t2.5 -36q0 -20 -3.5 -47t-10 -50.5t-14 -40t-14.5 -16.5q-12 0 -17.5 13.5t-4.5 43.5l1 50q0 12 -12 37.5t-30.5 53.5t-39.5 51.5t-39 32.5
q-5 0 -10 -9l-4 -4q-37 2 -61 12t-24 31v52q0 13 10.5 22.5t26.5 10.5q90 -51 144 -129t61 -167q23 36 23 80q0 14 -3.5 39t-8.5 53t-8.5 53t-3.5 38q0 65 46 65zM747 -269l-38.5 -14.5l-64 -23.5l-76.5 -27.5l-75.5 -27l-62 -21.5t-34.5 -11v1q0 4 10 28t17 68q8 2 34.5 12
l63.5 24l79 31l78.5 32l64.5 27t36 18zM657 1359q0 -52 -6 -89t-13 -60l-10 1v15q0 131 -68 252q0 -17 -4 -17q-7 0 -16.5 17.5t-19.5 39.5t-17.5 41.5t-9.5 22.5q0 18 0.5 37.5t3.5 40.5q33 -24 62.5 -61.5t51 -80t34 -84.5t12.5 -75zM793 216q-92 -35 -152.5 -66
t-77.5 -48q15 -11 44 -14t75 -3q38 0 71.5 7t54.5 19zM1380 1183q11 4 18.5 5t11.5 1l5 -1q2 0 2 1q23 6 44.5 10.5t45.5 8.5q-14 23 -40.5 36t-49.5 13q-17 0 -26.5 -22t-11.5 -52h1zM1639 -564h1l-1 1v-1z" />
    <glyph glyph-name="afii57409" unicode="&#x621;" horiz-adv-x="744" arabic-form="isolated" 
d="M317 540q-22 31 -41 42t-50 11q-21 0 -43.5 -6t-40.5 -15.5t-30 -22t-12 -25.5q0 -18 14.5 -36t38.5 -33t54.5 -24t62.5 -9q46 0 124.5 22.5t169.5 59.5q-9 -35 -20.5 -62.5t-29.5 -49t-44 -37.5t-63 -28l-86 -29.5t-67.5 -26t-51.5 -24t-40 -24.5q-35 -25 -61 -54
t-43 -65q-22 31 -22 62q0 32 16 64t53 76q-32 18 -52.5 33t-32 30t-16 32.5t-4.5 41.5q0 31 12.5 64t33.5 64.5t49 59.5t59.5 49t64 33.5t63.5 12.5q44 0 72.5 -24.5t28.5 -62.5q0 -54 -66 -99z" />
    <glyph glyph-name="afii57415" unicode="&#x627;" horiz-adv-x="403" arabic-form="isolated" 
d="M50 1277l121 142q-6 -78 -6 -160q1 -51 4 -114.5t10 -141.5l13 -158l9 -75q11 -118 16.5 -212t5.5 -166q0 -66 -6 -121.5t-16.5 -96t-24 -63.5t-28.5 -23q-8 0 -14 10t-6 25q0 4 1.5 22.5t3 39.5t2.5 38.5t1 19.5q0 45 -5.5 100.5t-13.5 123.5l-10 76q-2 12 -2.5 30.5
t-4.5 44.5l-8 81q-4 23 -6.5 46.5t-4.5 49.5l-9 99q-4 32 -5.5 53.5t-3.5 34.5l-9 149q-3 56 -3 70l-1 47v29z" />
    <glyph glyph-name="uniFE8E" unicode="&#x627;" horiz-adv-x="460" arabic-form="final" 
d="M50 1323l109 122q0 -30 2 -73.5t4 -100.5l5 -114q3 -63 6.5 -100t3.5 -48l29 -428q5 -65 10.5 -108.5t15 -72t24 -47t36.5 -33.5q31 -22 74 -32t91 -10h10q8 0 13.5 -7.5t9 -19.5t5.5 -27.5t2 -31.5q0 -33 -7.5 -60t-22.5 -27h-30q-251 0 -296 180q-14 54 -21 178
l-12 197l-10 129q-5 61 -6 94.5t-2 38.5l-25 240q-2 25 -6.5 64.5z" />
    <glyph glyph-name="afii57416" unicode="&#x628;" horiz-adv-x="1768" arabic-form="isolated" 
d="M832 -246q83 -83 149 -116l-27 -28t-23 -29.5t-22.5 -38l-27.5 -52.5l-68.5 53.5t-77.5 49.5l-14 7q48 58 72.5 94.5t38.5 59.5zM1499 825q42 -66 65.5 -132.5t23.5 -140.5q0 -24 -11 -66.5t-28.5 -87.5t-40.5 -82.5t-47 -50.5q-60 -34 -151 -68t-205.5 -61.5
t-250.5 -44.5t-288 -17q-66 0 -134 5t-131 18t-118 35t-95.5 56.5t-64 82.5t-23.5 112q0 63 16 118t37.5 95.5t43.5 63.5t34 23q13 0 13 -14q0 -8 -6 -17q-26 -35 -37 -62t-11 -59q0 -63 40.5 -113.5t110.5 -85.5t164.5 -53.5t201.5 -18.5q104 0 211 12t207 30.5t187.5 41.5
t153 45.5t103 42t37.5 30.5q0 17 -7.5 39.5t-20 47t-28 49t-30.5 44.5z" />
    <glyph glyph-name="uniFE90" unicode="&#x628;" horiz-adv-x="1690" arabic-form="final" 
d="M832 -246q83 -83 149 -116l-27 -28t-23 -29.5t-22.5 -38l-27.5 -52.5l-68.5 53.5t-77.5 49.5l-14 7q48 58 72.5 94.5t38.5 59.5zM1670 105q-24 0 -57.5 2.5t-66 16.5t-58.5 44t-34 84q-2 0 -15.5 -15.5t-46 -39.5t-87.5 -51t-141 -51t-206.5 -39.5t-282.5 -15.5
q-76 0 -155.5 7.5t-154.5 24.5t-141.5 45.5t-116 71t-78.5 100t-29 132.5q0 57 15.5 112.5t36 99t40 70.5t28.5 27q10 0 10 -11q0 -9 -6 -25t-13.5 -38t-14 -49t-6.5 -58q0 -73 38 -125t97.5 -87.5t133 -57t144.5 -33t132 -15t95 -3.5q143 0 248.5 9.5t181.5 25t126 35.5
t81 41t47.5 41t26 35.5l15.5 25t16 9.5t16 -12t15 -44q8 -57 50.5 -86.5t136.5 -29.5h10q15 0 22.5 -27t7.5 -59.5t-7.5 -59.5t-22.5 -27h-30z" />
    <glyph glyph-name="uniFE91" unicode="&#x628;" horiz-adv-x="560" arabic-form="initial" 
d="M-10 105q-10 0 -16.5 12.5t-10 32t-3.5 42t3.5 41.5t10 32t16.5 13h10q80 0 133.5 3t88 11t53 22t26.5 37q-17 53 -38 94.5t-56 85.5l85 164q28 -46 45.5 -90.5t27 -84t12.5 -71.5t3 -55q0 -17 -8 -49t-20.5 -67t-29 -68t-34.5 -51q-10 -11 -28.5 -20.5t-49 -17t-77 -12
t-113.5 -4.5h-30zM119 -154q82 -84 149 -117l-27 -28t-23 -29.5t-22.5 -38l-27.5 -52.5q-33 28 -68.5 54.5t-77.5 48.5l-14 7q48 58 72.5 95t38.5 60z" />
    <glyph glyph-name="uniFE92" unicode="&#x628;" horiz-adv-x="500" arabic-form="medial" 
d="M119 -154q82 -84 149 -117l-27 -28t-23 -29.5t-22.5 -38l-27.5 -52.5q-33 28 -68.5 54.5t-77.5 48.5l-14 7q48 58 72.5 95t38.5 60zM-10 105q-15 0 -22.5 27t-7.5 59.5t7.5 59.5t22.5 27h10q25 0 61.5 6.5t76 21t77.5 38t65 57.5q25 31 38 31q9 0 14 -9.5t13 -36.5
q9 -28 25.5 -48.5t38 -34t45.5 -19.5t46 -6h10q15 0 22.5 -27t7.5 -59.5t-7.5 -59.5t-22.5 -27h-30q-60 0 -95.5 21.5t-56.5 48t-32.5 48t-22.5 21.5q-7 0 -29.5 -21.5t-56 -48t-76.5 -48t-91 -21.5h-30z" />
    <glyph glyph-name="afii57417" unicode="&#x629;" horiz-adv-x="628" arabic-form="isolated" 
d="M69 1181q34 -29 65.5 -51t70.5 -46q23 29 42 58l39 62l79.5 -55l43 -30l19.5 -13.5t9 -5.5q-26 -27 -50 -62.5t-47 -78.5q-60 57 -131 95q-35 -42 -76 -129q-18 22 -59.5 51.5l-96.5 69.5q29 35 52 69t40 66zM82 347q74 -63 154 -63q28 0 64.5 9t65.5 24q0 51 -16 89.5
t-41 64t-55 38.5t-58 13q-40 0 -67 -41t-47 -134zM181 105q-33 0 -65.5 14.5t-58 40t-41.5 60t-16 75.5q0 103 57 250q70 181 153 181q44 0 86.5 -32.5t76 -84.5t54.5 -115.5t21 -125.5q0 -26 -2.5 -55.5t-8 -56.5t-14.5 -48.5t-22 -30.5q-17 -12 -46 -24.5t-61 -23
t-62.5 -17.5t-50.5 -7z" />
    <glyph glyph-name="uniFE94" unicode="&#x629;" horiz-adv-x="650" arabic-form="final" 
d="M170 1363l66 -50.5t72 -46.5q44 57 79 120q10 -9 27 -21l37.5 -26.5t43.5 -29l44 -27.5q-26 -28 -50.5 -62.5t-46.5 -78.5q-63 60 -130 95q-18 -21 -38 -53.5t-40 -75.5q-18 22 -58 52.5t-98 67.5q30 36 52.5 70t39.5 66zM141 502q0 -15 50.5 -29t134.5 -14q17 0 27 2
t15 7t6.5 15t1.5 25q0 44 -3.5 71.5t-9.5 43t-12.5 21.5t-12.5 6q-8 0 -25.5 -8.5t-39.5 -22.5t-45.5 -31t-42.5 -33.5t-31.5 -30.5t-12.5 -22zM392 393q-25 -18 -66 -63q-14 -16 -25 -26.5t-21 -16.5t-20 -8.5t-22 -2.5q-48 0 -91 9t-75.5 23.5t-52 31.5t-19.5 32
q0 56 31 114t80 109.5t108.5 91.5t117.5 60l-14 97l73 93l62 -410q14 -80 24.5 -128.5t19.5 -65.5q14 -26 47 -40.5t101 -14.5h10q15 0 22.5 -27t7.5 -59.5t-7.5 -59.5t-22.5 -27h-30q-53 0 -91 11.5t-65.5 43.5t-46.5 88t-35 145z" />
    <glyph glyph-name="afii57418" unicode="&#x62a;" horiz-adv-x="1768" arabic-form="isolated" 
d="M1499 825q42 -66 65.5 -132.5t23.5 -140.5q0 -24 -11 -66.5t-28.5 -87.5t-40.5 -82.5t-47 -50.5q-60 -34 -151 -68t-205.5 -61.5t-250.5 -44.5t-288 -17q-66 0 -134 5t-131 18t-118 35t-95.5 56.5t-64 82.5t-23.5 112q0 63 16 118t37.5 95.5t43.5 63.5t34 23q13 0 13 -14
q0 -8 -6 -17q-26 -35 -37 -62t-11 -59q0 -63 40.5 -113.5t110.5 -85.5t164.5 -53.5t201.5 -18.5q104 0 211 12t207 30.5t187.5 41.5t153 45.5t103 42t37.5 30.5q0 17 -7.5 39.5t-20 47t-28 49t-30.5 44.5zM630 967q34 -29 66 -51l71 -47q45 59 75 111l4 9q36 -29 73 -53.5
l80 -50.5q-26 -28 -50.5 -62.5t-46.5 -78.5q-31 29 -63.5 53t-67.5 42q-37 -43 -77 -129q-10 12 -28.5 28t-40.5 33t-45 33t-42 27q29 35 52 69.5t40 66.5z" />
    <glyph glyph-name="uniFE96" unicode="&#x62a;" horiz-adv-x="1690" arabic-form="final" 
d="M662 967q34 -29 66 -51l70 -47q23 29 42 57t34 54l4 9q35 -29 72 -53.5l80 -50.5q-53 -56 -97 -141q-61 59 -131 95q-35 -41 -76 -129q-10 12 -28.5 28t-41 33l-45.5 33t-42 27q29 35 52.5 69.5t40.5 66.5zM1670 105q-24 0 -57.5 2.5t-66 16.5t-58.5 44t-34 84
q-2 0 -15.5 -15.5t-46 -39.5t-87.5 -51t-141 -51t-206.5 -39.5t-282.5 -15.5q-76 0 -155.5 7.5t-154.5 24.5t-141.5 45.5t-116 71t-78.5 100t-29 132.5q0 57 15.5 112.5t36 99t40 70.5t28.5 27q10 0 10 -11q0 -9 -6 -25t-13.5 -38t-14 -49t-6.5 -58q0 -73 38 -125
t97.5 -87.5t133 -57t144.5 -33t132 -15t95 -3.5q143 0 248.5 9.5t181.5 25t126 35.5t81 41t47.5 41t26 35.5l15.5 25t16 9.5t16 -12t15 -44q8 -57 50.5 -86.5t136.5 -29.5h10q15 0 22.5 -27t7.5 -59.5t-7.5 -59.5t-22.5 -27h-30z" />
    <glyph glyph-name="uniFE97" unicode="&#x62a;" horiz-adv-x="620" arabic-form="initial" 
d="M35 1172q34 -29 66 -51l70 -47q23 29 42 56.5t34 53.5l4 10q35 -29 72.5 -53.5l79.5 -50.5q-26 -28 -50 -62.5t-46 -78.5q-31 29 -63.5 53t-68.5 42q-35 -42 -76 -129q-10 12 -28.5 28t-41 33t-45.5 32.5t-42 26.5q29 36 52.5 70.5t40.5 66.5zM-10 105q-15 0 -22.5 27
t-7.5 59.5t7.5 59.5t22.5 27h10q160 0 252 16.5t109 56.5q-17 53 -38 94.5t-56 85.5l85 164q28 -46 45.5 -90.5t27 -84t12.5 -71.5t3 -55q0 -17 -8 -49t-20.5 -67t-29 -68t-34.5 -51q-21 -22 -107 -38t-221 -16h-30z" />
    <glyph glyph-name="uniFE98" unicode="&#x62a;" horiz-adv-x="560" arabic-form="medial" 
d="M35 983q34 -29 66 -51l70 -47q23 29 42 56.5t34 53.5l4 10q35 -29 72.5 -53.5l79.5 -50.5q-26 -28 -50 -62.5t-46 -78.5q-31 29 -63.5 53t-68.5 42q-35 -42 -76 -129q-10 12 -28.5 28t-41 33t-45.5 32.5t-42 26.5q29 36 52.5 70.5t40.5 66.5zM-10 105q-15 0 -22.5 27
t-7.5 59.5t7.5 59.5t22.5 27h10q47 0 96 6.5t94 21t84 38t66 57.5q25 31 38 31q9 0 14 -9.5t13 -36.5q9 -28 25.5 -48.5t38 -34t45.5 -19.5t46 -6h10q15 0 22.5 -27t7.5 -59.5t-7.5 -59.5t-22.5 -27h-30q-60 0 -95.5 21.5t-56.5 48t-32.5 48t-22.5 21.5q-7 0 -30.5 -21.5
t-62.5 -48t-94 -48t-126 -21.5h-30z" />
    <glyph glyph-name="afii57419" unicode="&#x62b;" horiz-adv-x="1768" arabic-form="isolated" 
d="M751 941l-75.5 63.5t-82.5 54.5q36 34 63 69t50 77q66 -72 149 -115q-65 -66 -104 -149zM686 704q-32 34 -70 64t-83 57q30 33 53.5 68t40.5 71q31 -30 64.5 -57.5t68.5 -47.5q25 28 47 58.5t38 64.5l70.5 -60t79.5 -50q-29 -35 -55 -69.5t-46 -72.5q-25 29 -58 53.5
t-71 47.5q-23 -29 -44 -60.5t-35 -66.5zM1499 825q42 -66 65.5 -132.5t23.5 -140.5q0 -24 -11 -66.5t-28.5 -87.5t-40.5 -82.5t-47 -50.5q-60 -34 -151 -68t-205.5 -61.5t-250.5 -44.5t-288 -17q-66 0 -134 5t-131 18t-118 35t-95.5 56.5t-64 82.5t-23.5 112q0 63 16 118
t37.5 95.5t43.5 63.5t34 23q13 0 13 -14q0 -8 -6 -17q-26 -35 -37 -62t-11 -59q0 -63 40.5 -113.5t110.5 -85.5t164.5 -53.5t201.5 -18.5q104 0 211 12t207 30.5t187.5 41.5t153 45.5t103 42t37.5 30.5q0 17 -7.5 39.5t-20 47t-28 49t-30.5 44.5z" />
    <glyph glyph-name="uniFE9A" unicode="&#x62b;" horiz-adv-x="1690" arabic-form="final" 
d="M728 704q-32 34 -70 64t-83 57q30 33 53.5 68t40.5 71q31 -30 64.5 -57.5t68.5 -47.5q25 28 47 58.5t38 64.5l70.5 -60t79.5 -50q-29 -35 -55 -69.5t-46 -72.5q-25 29 -58 53.5t-71 47.5q-23 -29 -44 -60.5t-35 -66.5zM793 941l-75.5 63.5t-82.5 54.5q36 34 63 69t50 77
q66 -72 149 -115q-65 -66 -104 -149zM1670 105q-24 0 -57.5 2.5t-66 16.5t-58.5 44t-34 84q-2 0 -15.5 -15.5t-46 -39.5t-87.5 -51t-141 -51t-206.5 -39.5t-282.5 -15.5q-76 0 -155.5 7.5t-154.5 24.5t-141.5 45.5t-116 71t-78.5 100t-29 132.5q0 57 15.5 112.5t36 99
t40 70.5t28.5 27q10 0 10 -11q0 -9 -6 -25t-13.5 -38t-14 -49t-6.5 -58q0 -73 38 -125t97.5 -87.5t133 -57t144.5 -33t132 -15t95 -3.5q143 0 248.5 9.5t181.5 25t126 35.5t81 41t47.5 41t26 35.5l15.5 25t16 9.5t16 -12t15 -44q8 -57 50.5 -86.5t136.5 -29.5h10
q15 0 22.5 -27t7.5 -59.5t-7.5 -59.5t-22.5 -27h-30z" />
    <glyph glyph-name="uniFE9B" unicode="&#x62b;" horiz-adv-x="620" arabic-form="initial" 
d="M166 1114l-75 63.5t-83 55.5q36 33 63 68.5t50 77.5q33 -37 70 -65t79 -51q-33 -34 -58.5 -70.5t-45.5 -78.5zM101 877q-32 34 -70 64t-82 58q59 66 93 138q31 -30 64.5 -57.5t68.5 -47.5q25 28 47 58.5t38 64.5l71 -60t80 -50q-29 -34 -55.5 -69t-46.5 -73
q-25 29 -58 53.5t-70 47.5q-24 -29 -45 -60.5t-35 -66.5zM-10 105q-15 0 -22.5 27t-7.5 59.5t7.5 59.5t22.5 27h10q160 0 252 16.5t109 56.5q-17 53 -38 94.5t-56 85.5l85 164q28 -46 45.5 -90.5t27 -84t12.5 -71.5t3 -55q0 -17 -8 -49t-20.5 -67t-29 -68t-34.5 -51
q-21 -22 -107 -38t-221 -16h-30z" />
    <glyph glyph-name="uniFE9C" unicode="&#x62b;" horiz-adv-x="560" arabic-form="medial" 
d="M166 925l-75 63.5t-83 55.5q36 33 63 68.5t50 77.5q33 -37 70 -65t79 -51q-33 -34 -58.5 -70.5t-45.5 -78.5zM101 688q-32 34 -70 64t-82 58q59 66 93 138q31 -30 64.5 -57.5t68.5 -47.5q25 28 47 58.5t38 64.5l71 -60t80 -50q-29 -34 -55.5 -69t-46.5 -73
q-25 29 -58 53.5t-70 47.5q-24 -29 -45 -60.5t-35 -66.5zM-10 105q-15 0 -22.5 27t-7.5 59.5t7.5 59.5t22.5 27h10q47 0 96 6.5t94 21t84 38t66 57.5q25 31 38 31q9 0 14 -9.5t13 -36.5q9 -28 25.5 -48.5t38 -34t45.5 -19.5t46 -6h10q15 0 22.5 -27t7.5 -59.5t-7.5 -59.5
t-22.5 -27h-30q-60 0 -95.5 21.5t-56.5 48t-32.5 48t-22.5 21.5q-7 0 -30.5 -21.5t-62.5 -48t-94 -48t-126 -21.5h-30z" />
    <glyph glyph-name="afii57420" unicode="&#x62c;" horiz-adv-x="1315" arabic-form="isolated" 
d="M622 -70q38 -39 75 -67.5t72 -48.5q-20 -22 -32.5 -37.5t-22 -31t-19.5 -34l-25 -46.5q-33 29 -70.5 55t-88.5 55q47 59 72.5 95.5t38.5 59.5zM1043 439q-27 0 -60 -2.5t-68 -6.5t-71 -9.5l-69 -10.5q-82 -13 -164.5 -41t-157 -68.5t-139 -93.5t-112 -118.5t-74.5 -141.5
t-27 -163q0 -55 14.5 -114t48 -115.5t89.5 -107.5t139.5 -90t197 -61.5t261.5 -22.5q51 0 110.5 2.5t122 7.5t125 12.5t120.5 18.5q23 5 38.5 6t24.5 1q16 0 19.5 -5t3.5 -14q0 -6 -17.5 -19t-49.5 -30.5t-77 -37.5t-101 -40q-61 -21 -113 -35.5t-101 -23t-98.5 -12.5
t-107.5 -4q-174 0 -313 39t-236 113.5t-149 181.5t-52 243t39 252.5t108.5 214t164 175t205.5 134.5v4q-22 3 -53 8.5l-65.5 11.5t-69.5 10t-66 4q-49 0 -80 -12.5t-51 -27.5t-32 -27.5t-24 -12.5q-18 0 -18 24q0 7 8 26.5t23.5 45t38.5 53.5t52.5 51.5t65 38.5t77.5 15
q52 0 101 -10l112 -24q33 -7 70 -13.5t80.5 -11.5t95 -8.5t112.5 -3.5h221z" />
    <glyph glyph-name="uniFE9E" unicode="&#x62c;" horiz-adv-x="1280" arabic-form="final" 
d="M663 -123q78 -79 146 -117q-18 -20 -29.5 -35t-22 -30.5t-21 -34.5l-25.5 -47q-33 27 -69.5 52.5t-76.5 48.5l-13 9l16 21l57.5 77.5t37.5 55.5zM1260 105h-226q-101 0 -160 16.5t-89 40.5t-38.5 50t-8.5 44q0 42 10.5 81.5t26.5 72.5q-82 -13 -164.5 -41t-157 -68.5
t-139 -93.5t-112 -118.5t-74.5 -141.5t-27 -163q0 -55 14.5 -114t48 -115.5t89.5 -107.5t139.5 -90t197 -61.5t261.5 -22.5q51 0 110.5 2.5t122 7.5t125 12.5t120.5 18.5q23 5 38.5 6t24.5 1q16 0 19.5 -5t3.5 -14q0 -6 -17.5 -19t-49.5 -30.5t-77 -37.5t-101 -40
q-61 -21 -113 -35.5t-101 -23t-98.5 -12.5t-107.5 -4q-174 0 -313 39t-236 113.5t-149 181.5t-52 243t39 252.5t108.5 214t164 175t205.5 134.5l-53 11.5t-65.5 12.5t-69.5 10t-66 4q-49 0 -80 -12.5t-51 -27.5t-32 -27.5t-24 -12.5q-18 0 -18 24q0 6 8 25t23 44.5t37 54
t50.5 52t63.5 39t76 15.5q35 0 69 -5.5t71 -13t79.5 -17t95 -17t117.5 -13t146 -5.5h221l-72 -155q-54 0 -102 -3t-101 -17q6 -46 23 -74t51.5 -43t91 -19.5t142.5 -4.5h142q15 0 22.5 -27t7.5 -59.5t-7.5 -59.5t-22.5 -27h-30z" />
    <glyph glyph-name="uniFE9F" unicode="&#x62c;" horiz-adv-x="1320" arabic-form="initial" 
d="M531 17q80 -80 147 -117q-18 -19 -29.5 -34t-21.5 -30.5t-20.5 -35.5l-26.5 -49q-32 29 -70 56.5t-89 54.5q47 58 72 94.5t38 60.5zM0 278q75 -4 152 16.5t157 49.5l163.5 59t171.5 45q-27 16 -73 37t-96.5 40t-97.5 32t-75 13q-16 0 -40.5 -3.5t-50 -9.5t-49.5 -13.5
t-40 -16.5q-9 -4 -17 -4q-17 0 -17 15q0 3 2 9q15 31 36 65.5t48.5 64t61.5 48.5t74 19q46 0 92 -15t97.5 -37l111 -48.5t133 -48.5t163.5 -37t202 -15h111l-54 -151q-48 2 -93 3.5t-80 4.5q-101 9 -189 -9.5t-168 -51t-154.5 -73.5t-148.5 -76.5t-151 -60t-162 -24.5h-30
q-15 0 -22.5 27t-7.5 59.5t7.5 59.5t22.5 27h10z" />
    <glyph glyph-name="uniFEA0" unicode="&#x62c;" horiz-adv-x="1380" arabic-form="medial" 
d="M531 17q80 -80 147 -117q-18 -19 -29.5 -34t-21.5 -30.5t-20.5 -35.5l-26.5 -49q-32 29 -70 56.5t-89 54.5q47 58 72 94.5t38 60.5zM1360 105h-184q-82 0 -136 12t-86 32t-45.5 48t-13.5 59q0 42 12.5 70.5t27.5 49.5q-74 21 -147 9t-146.5 -42t-147.5 -71t-151 -78
t-157.5 -63t-165.5 -26h-30q-15 0 -22.5 27t-7.5 59.5t7.5 59.5t22.5 27h10q79 -1 157 18.5t155 47l154.5 56.5t156.5 45v5q-25 13 -69 31.5t-92 35.5t-92.5 29t-71.5 12q-17 0 -41 -4t-49 -10.5t-48.5 -14t-39.5 -14.5q-9 -5 -17 -5t-12.5 4.5t-4.5 10.5q0 2 2 8
q15 31 36 65.5t48.5 64t61.5 48.5t74 19q35 0 68.5 -9t71.5 -25t84 -39l105 -50q87 -43 200 -60.5t270 -17.5h134l-45 -148q-40 6 -91 6q-48 0 -98 -9q-7 -18 -7 -38q0 -13 9.5 -24.5t33.5 -19.5t63.5 -13t99.5 -5h184q15 0 22.5 -27t7.5 -59.5t-7.5 -59.5t-22.5 -27h-30z
" />
    <glyph glyph-name="afii57421" unicode="&#x62d;" horiz-adv-x="1315" arabic-form="isolated" 
d="M1043 439q-27 0 -60 -2.5t-68 -6.5t-71 -9.5l-69 -10.5q-82 -13 -164.5 -41t-157 -68.5t-139 -93.5t-112 -118.5t-74.5 -141.5t-27 -163q0 -55 14.5 -114t48 -115.5t89.5 -107.5t139.5 -90t197 -61.5t261.5 -22.5q51 0 110.5 2.5t122 7.5t125 12.5t120.5 18.5
q23 5 38.5 6t24.5 1q16 0 19.5 -5t3.5 -14q0 -6 -17.5 -19t-49.5 -30.5t-77 -37.5t-101 -40q-61 -21 -113 -35.5t-101 -23t-98.5 -12.5t-107.5 -4q-174 0 -313 39t-236 113.5t-149 181.5t-52 243t39 252.5t108.5 214t164 175t205.5 134.5v4q-22 3 -53 8.5l-65.5 11.5
t-69.5 10t-66 4q-49 0 -80 -12.5t-51 -27.5t-32 -27.5t-24 -12.5q-18 0 -18 24q0 7 8 26.5t23.5 45t38.5 53.5t52.5 51.5t65 38.5t77.5 15q52 0 101 -10l112 -24q33 -7 70 -13.5t80.5 -11.5t95 -8.5t112.5 -3.5h221z" />
    <glyph glyph-name="uniFEA2" unicode="&#x62d;" horiz-adv-x="1280" arabic-form="final" 
d="M1260 105h-226q-101 0 -160 16.5t-89 40.5t-38.5 50t-8.5 44q0 42 10.5 81.5t26.5 72.5q-82 -13 -164.5 -41t-157 -68.5t-139 -93.5t-112 -118.5t-74.5 -141.5t-27 -163q0 -55 14.5 -114t48 -115.5t89.5 -107.5t139.5 -90t197 -61.5t261.5 -22.5q51 0 110.5 2.5t122 7.5
t125 12.5t120.5 18.5q23 5 38.5 6t24.5 1q16 0 19.5 -5t3.5 -14q0 -6 -17.5 -19t-49.5 -30.5t-77 -37.5t-101 -40q-61 -21 -113 -35.5t-101 -23t-98.5 -12.5t-107.5 -4q-174 0 -313 39t-236 113.5t-149 181.5t-52 243t39 252.5t108.5 214t164 175t205.5 134.5l-53 11.5
t-65.5 12.5t-69.5 10t-66 4q-49 0 -80 -12.5t-51 -27.5t-32 -27.5t-24 -12.5q-18 0 -18 24q0 6 8 25t23 44.5t37 54t50.5 52t63.5 39t76 15.5q35 0 69 -5.5t71 -13t79.5 -17t95 -17t117.5 -13t146 -5.5h221l-72 -155q-54 0 -102 -3t-101 -17q6 -46 23 -74t51.5 -43t91 -19.5
t142.5 -4.5h142q15 0 22.5 -27t7.5 -59.5t-7.5 -59.5t-22.5 -27h-30z" />
    <glyph glyph-name="uniFEA3" unicode="&#x62d;" horiz-adv-x="1320" arabic-form="initial" 
d="M0 278q75 -4 152 16.5t157 49.5l163.5 59t171.5 45q-27 16 -73 37t-96.5 40t-97.5 32t-75 13q-16 0 -40.5 -3.5t-50 -9.5t-49.5 -13.5t-40 -16.5q-9 -4 -17 -4q-17 0 -17 15q0 3 2 9q15 31 36 65.5t48.5 64t61.5 48.5t74 19q46 0 92 -15t97.5 -37l111 -48.5t133 -48.5
t163.5 -37t202 -15h111l-54 -151q-48 2 -93 3.5t-80 4.5q-101 9 -189 -9.5t-168 -51t-154.5 -73.5t-148.5 -76.5t-151 -60t-162 -24.5h-30q-15 0 -22.5 27t-7.5 59.5t7.5 59.5t22.5 27h10z" />
    <glyph glyph-name="uniFEA4" unicode="&#x62d;" horiz-adv-x="1380" arabic-form="medial" 
d="M1360 105h-184q-82 0 -136 12t-86 32t-45.5 48t-13.5 59q0 42 12.5 70.5t27.5 49.5q-74 21 -147 9t-146.5 -42t-147.5 -71t-151 -78t-157.5 -63t-165.5 -26h-30q-15 0 -22.5 27t-7.5 59.5t7.5 59.5t22.5 27h10q79 -1 157 18.5t155 47l154.5 56.5t156.5 45v5
q-25 13 -69 31.5t-92 35.5t-92.5 29t-71.5 12q-17 0 -41 -4t-49 -10.5t-48.5 -14t-39.5 -14.5q-9 -5 -17 -5t-12.5 4.5t-4.5 10.5q0 2 2 8q15 31 36 65.5t48.5 64t61.5 48.5t74 19q35 0 68.5 -9t71.5 -25t84 -39l105 -50q87 -43 200 -60.5t270 -17.5h134l-45 -148
q-40 6 -91 6q-48 0 -98 -9q-7 -18 -7 -38q0 -13 9.5 -24.5t33.5 -19.5t63.5 -13t99.5 -5h184q15 0 22.5 -27t7.5 -59.5t-7.5 -59.5t-22.5 -27h-30z" />
    <glyph glyph-name="afii57422" unicode="&#x62e;" horiz-adv-x="1315" arabic-form="isolated" 
d="M517 1210q77 -78 147 -117l-31.5 -37.5t-22.5 -31t-20 -34l-25 -46.5q-34 29 -69 56t-76 48l-14 7l71.5 95.5t39.5 59.5zM1043 439q-27 0 -60 -2.5t-68 -6.5t-71 -9.5l-69 -10.5q-82 -13 -164.5 -41t-157 -68.5t-139 -93.5t-112 -118.5t-74.5 -141.5t-27 -163
q0 -55 14.5 -114t48 -115.5t89.5 -107.5t139.5 -90t197 -61.5t261.5 -22.5q51 0 110.5 2.5t122 7.5t125 12.5t120.5 18.5q23 5 38.5 6t24.5 1q16 0 19.5 -5t3.5 -14q0 -6 -17.5 -19t-49.5 -30.5t-77 -37.5t-101 -40q-61 -21 -113 -35.5t-101 -23t-98.5 -12.5t-107.5 -4
q-174 0 -313 39t-236 113.5t-149 181.5t-52 243t39 252.5t108.5 214t164 175t205.5 134.5v4q-22 3 -53 8.5l-65.5 11.5t-69.5 10t-66 4q-49 0 -80 -12.5t-51 -27.5t-32 -27.5t-24 -12.5q-18 0 -18 24q0 7 8 26.5t23.5 45t38.5 53.5t52.5 51.5t65 38.5t77.5 15q52 0 101 -10
l112 -24q33 -7 70 -13.5t80.5 -11.5t95 -8.5t112.5 -3.5h221z" />
    <glyph glyph-name="uniFEA6" unicode="&#x62e;" horiz-adv-x="1280" arabic-form="final" 
d="M618 1211q77 -77 146 -117l-27.5 -33t-21 -29.5t-20.5 -35.5l-28 -51q-32 29 -69 55t-77 49l-13 7l71.5 95t38.5 60zM1260 105h-226q-101 0 -160 16.5t-89 40.5t-38.5 50t-8.5 44q0 42 10.5 81.5t26.5 72.5q-82 -13 -164.5 -41t-157 -68.5t-139 -93.5t-112 -118.5
t-74.5 -141.5t-27 -163q0 -55 14.5 -114t48 -115.5t89.5 -107.5t139.5 -90t197 -61.5t261.5 -22.5q51 0 110.5 2.5t122 7.5t125 12.5t120.5 18.5q23 5 38.5 6t24.5 1q16 0 19.5 -5t3.5 -14q0 -6 -17.5 -19t-49.5 -30.5t-77 -37.5t-101 -40q-61 -21 -113 -35.5t-101 -23
t-98.5 -12.5t-107.5 -4q-174 0 -313 39t-236 113.5t-149 181.5t-52 243t39 252.5t108.5 214t164 175t205.5 134.5l-53 11.5t-65.5 12.5t-69.5 10t-66 4q-49 0 -80 -12.5t-51 -27.5t-32 -27.5t-24 -12.5q-18 0 -18 24q0 6 8 25t23 44.5t37 54t50.5 52t63.5 39t76 15.5
q35 0 69 -5.5t71 -13t79.5 -17t95 -17t117.5 -13t146 -5.5h221l-72 -155q-54 0 -102 -3t-101 -17q6 -46 23 -74t51.5 -43t91 -19.5t142.5 -4.5h142q15 0 22.5 -27t7.5 -59.5t-7.5 -59.5t-22.5 -27h-30z" />
    <glyph glyph-name="uniFEA7" unicode="&#x62e;" horiz-adv-x="1320" arabic-form="initial" 
d="M450 1274q76 -76 147 -116l-27.5 -33t-21 -29.5t-20.5 -35.5l-28 -51q-32 28 -70.5 55.5t-89.5 54.5q47 59 72 96t38 59zM0 278q75 -4 152 16.5t157 49.5l163.5 59t171.5 45q-27 16 -73 37t-96.5 40t-97.5 32t-75 13q-16 0 -40.5 -3.5t-50 -9.5t-49.5 -13.5t-40 -16.5
q-9 -4 -17 -4q-17 0 -17 15q0 3 2 9q15 31 36 65.5t48.5 64t61.5 48.5t74 19q46 0 92 -15t97.5 -37l111 -48.5t133 -48.5t163.5 -37t202 -15h111l-54 -151q-48 2 -93 3.5t-80 4.5q-101 9 -189 -9.5t-168 -51t-154.5 -73.5t-148.5 -76.5t-151 -60t-162 -24.5h-30
q-15 0 -22.5 27t-7.5 59.5t7.5 59.5t22.5 27h10z" />
    <glyph glyph-name="uniFEA8" unicode="&#x62e;" horiz-adv-x="1380" arabic-form="medial" 
d="M450 1274q76 -76 147 -116l-27.5 -33t-21 -29.5t-20.5 -35.5l-28 -51q-32 28 -70.5 55.5t-89.5 54.5q47 59 72 96t38 59zM1360 105h-184q-82 0 -136 12t-86 32t-45.5 48t-13.5 59q0 42 12.5 70.5t27.5 49.5q-74 21 -147 9t-146.5 -42t-147.5 -71t-151 -78t-157.5 -63
t-165.5 -26h-30q-15 0 -22.5 27t-7.5 59.5t7.5 59.5t22.5 27h10q79 -1 157 18.5t155 47l154.5 56.5t156.5 45v5q-25 13 -69 31.5t-92 35.5t-92.5 29t-71.5 12q-17 0 -41 -4t-49 -10.5t-48.5 -14t-39.5 -14.5q-9 -5 -17 -5t-12.5 4.5t-4.5 10.5q0 2 2 8q15 31 36 65.5
t48.5 64t61.5 48.5t74 19q35 0 68.5 -9t71.5 -25t84 -39l105 -50q87 -43 200 -60.5t270 -17.5h134l-45 -148q-40 6 -91 6q-48 0 -98 -9q-7 -18 -7 -38q0 -13 9.5 -24.5t33.5 -19.5t63.5 -13t99.5 -5h184q15 0 22.5 -27t7.5 -59.5t-7.5 -59.5t-22.5 -27h-30z" />
    <glyph glyph-name="afii57423" unicode="&#x62f;" horiz-adv-x="808" arabic-form="isolated" 
d="M185 717l31 100t21 58.5t16 27.5t16 7q10 0 32.5 -12.5t50.5 -32t57 -43.5t51 -48q39 -41 70.5 -88t53 -97t33 -101.5t11.5 -100.5q0 -46 -9 -81.5t-30 -63.5t-56.5 -51t-88.5 -44q-70 -29 -144.5 -44t-154.5 -15q-29 0 -55.5 2.5t-46.5 11t-31.5 24t-11.5 40.5
q0 15 2 37t6 46t8.5 46t8.5 37q23 -11 42 -18.5t37.5 -11.5t38.5 -5.5t44 -1.5q55 0 118 11.5t117 29.5t90 40.5t36 44.5q0 19 -15 45t-41.5 54.5t-61.5 58t-75.5 56t-84 48t-85.5 34.5z" />
    <glyph glyph-name="uniFEAA" unicode="&#x62f;" horiz-adv-x="910" arabic-form="final" 
d="M501 1007l105 114q10 -61 20.5 -137.5l22 -157.5t24.5 -161.5t27.5 -148.5t30.5 -119.5t33 -74.5q20 -25 55 -34.5t91 -9.5h10q15 0 22.5 -27t7.5 -59.5t-7.5 -59.5t-22.5 -27h-30q-42 0 -77.5 8.5t-65.5 31t-54.5 60.5t-45.5 98q-15 40 -26 40q-12 0 -40 -38
q-34 -49 -69 -84t-74.5 -57.5t-86 -33t-103.5 -10.5q-46 0 -90.5 7.5t-79.5 19.5t-56.5 26.5t-21.5 27.5q0 7 1 10q17 120 32.5 170.5t26.5 50.5q5 0 6 -7.5t5 -19.5q12 -37 33.5 -59t51.5 -34t68 -15.5t81 -3.5q277 0 277 228q0 9 -3.5 40.5t-9 75t-13.5 95.5t-17 103
t-18.5 96.5t-19.5 75.5z" />
    <glyph glyph-name="afii57424" unicode="&#x630;" horiz-adv-x="808" arabic-form="isolated" 
d="M213 1453q81 -78 147 -116l-27.5 -33.5t-21 -29.5t-20.5 -35l-28 -51q-33 29 -71 55.5t-89 55.5q47 59 72 95.5t38 58.5zM185 717l31 100t21 58.5t16 27.5t16 7q10 0 32.5 -12.5t50.5 -32t57 -43.5t51 -48q39 -41 70.5 -88t53 -97t33 -101.5t11.5 -100.5q0 -46 -9 -81.5
t-30 -63.5t-56.5 -51t-88.5 -44q-70 -29 -144.5 -44t-154.5 -15q-29 0 -55.5 2.5t-46.5 11t-31.5 24t-11.5 40.5q0 15 2 37t6 46t8.5 46t8.5 37q23 -11 42 -18.5t37.5 -11.5t38.5 -5.5t44 -1.5q55 0 118 11.5t117 29.5t90 40.5t36 44.5q0 19 -15 45t-41.5 54.5t-61.5 58
t-75.5 56t-84 48t-85.5 34.5z" />
    <glyph glyph-name="uniFEAC" unicode="&#x630;" horiz-adv-x="910" arabic-form="final" 
d="M513 1519q78 -75 147 -115q-17 -19 -28.5 -33.5t-21.5 -30t-21 -35.5l-27 -50q-32 29 -70 55t-89 55q47 59 72 95.5t38 58.5zM501 1007l105 114q10 -61 20.5 -137.5l22 -157.5t24.5 -161.5t27.5 -148.5t30.5 -119.5t33 -74.5q20 -25 55 -34.5t91 -9.5h10q15 0 22.5 -27
t7.5 -59.5t-7.5 -59.5t-22.5 -27h-30q-42 0 -77.5 8.5t-65.5 31t-54.5 60.5t-45.5 98q-15 40 -26 40q-12 0 -40 -38q-34 -49 -69 -84t-74.5 -57.5t-86 -33t-103.5 -10.5q-46 0 -90.5 7.5t-79.5 19.5t-56.5 26.5t-21.5 27.5q0 7 1 10q17 120 32.5 170.5t26.5 50.5q5 0 6 -7.5
t5 -19.5q12 -37 33.5 -59t51.5 -34t68 -15.5t81 -3.5q277 0 277 228q0 9 -3.5 40.5t-9 75t-13.5 95.5t-17 103t-18.5 96.5t-19.5 75.5z" />
    <glyph glyph-name="afii57425" unicode="&#x631;" horiz-adv-x="777" arabic-form="isolated" 
d="M438 652q44 -32 74.5 -80.5t49 -104t27 -114t8.5 -110.5q0 -79 -22.5 -153t-60 -138.5t-86.5 -117.5t-102.5 -91t-107 -59t-100.5 -21q-19 0 -48.5 8.5t-62.5 22t-66.5 30t-60 31.5t-43.5 27.5t-17 17.5q0 11 8 13.5t14 2.5q5 0 25 -6t47.5 -13.5t59 -13.5t59.5 -6
q59 0 119 27t115.5 69t104.5 92.5t85 97t57 83.5t21 51q0 11 -13.5 47.5t-37.5 82.5t-57.5 92t-72.5 75z" />
    <glyph glyph-name="uniFEAE" unicode="&#x631;" horiz-adv-x="710" arabic-form="final" 
d="M450 410q40 -45 72.5 -71t62 -39.5t59.5 -17.5t66 -4h10q15 0 22.5 -27t7.5 -59.5t-7.5 -59.5t-22.5 -27h-103q-20 0 -33.5 -11t-22.5 -50q-22 -107 -65 -202.5t-103.5 -167.5t-136.5 -114t-165 -42q-21 0 -49 7.5t-58 18.5t-59.5 24.5t-52.5 26t-37.5 22t-14.5 13.5
q0 22 18 22q6 0 24 -3t40 -6l44.5 -6t39.5 -3q39 0 89 15.5t99.5 38.5t93.5 51t72 54q27 25 55 57.5t51 68.5t38 72.5t15 68.5q0 20 -11.5 44t-30.5 49t-43 50.5t-49 48.5z" />
    <glyph glyph-name="afii57426" unicode="&#x632;" horiz-adv-x="777" arabic-form="isolated" 
d="M328 1212q40 -39 76.5 -67.5t70.5 -48.5q-17 -19 -28.5 -33.5t-21.5 -30t-21 -35.5l-27 -50q-33 29 -70.5 55.5t-88.5 54.5q47 59 72 96t38 59zM438 652q44 -32 74.5 -80.5t49 -104t27 -114t8.5 -110.5q0 -79 -22.5 -153t-60 -138.5t-86.5 -117.5t-102.5 -91t-107 -59
t-100.5 -21q-19 0 -48.5 8.5t-62.5 22t-66.5 30t-60 31.5t-43.5 27.5t-17 17.5q0 11 8 13.5t14 2.5q5 0 25 -6t47.5 -13.5t59 -13.5t59.5 -6q59 0 119 27t115.5 69t104.5 92.5t85 97t57 83.5t21 51q0 11 -13.5 47.5t-37.5 82.5t-57.5 92t-72.5 75z" />
    <glyph glyph-name="uniFEB0" unicode="&#x632;" horiz-adv-x="740" arabic-form="final" 
d="M328 1002q40 -39 76.5 -67.5t70.5 -48.5q-17 -19 -28.5 -33.5t-21.5 -30t-21 -35.5l-27 -50q-33 29 -70.5 55.5t-88.5 54.5q47 59 72 96t38 59zM450 410q40 -45 73 -71t65.5 -39.5t68.5 -17.5t83 -4h10q15 0 22.5 -27t7.5 -59.5t-7.5 -59.5t-22.5 -27h-133
q-20 0 -33.5 -11t-22.5 -50q-22 -107 -65 -202.5t-103.5 -167.5t-136.5 -114t-165 -42q-21 0 -49 7.5t-58 18.5t-59.5 24.5t-52.5 26t-37.5 22t-14.5 13.5q0 22 18 22q6 0 24 -3t40 -6l44.5 -6t39.5 -3q39 0 89 15.5t99.5 38.5t93.5 51t72 54q27 25 55 57.5t51 68.5t38 72.5
t15 68.5q0 20 -11.5 44t-30.5 49t-43 50.5t-49 48.5z" />
    <glyph glyph-name="afii57427" unicode="&#x633;" horiz-adv-x="1951" arabic-form="isolated" 
d="M901 168l-10 11.5t-6 6.5l-23 23q-11 11 -24.5 28l-32.5 41l33.5 59.5t48.5 72.5l16 21q23 -46 45 -76t49 -47t62.5 -24t86.5 -7q54 0 96 11t76 35.5t61 63.5t51 95q22 50 47 50q28 0 38 -52q8 -38 20.5 -63t32.5 -40t48.5 -21.5t68.5 -6.5l29 1q-2 25 -6 44.5
t-11.5 36.5t-19 33t-27.5 34l106 150q45 -79 45 -181q0 -61 -14 -114t-39 -92.5t-59 -62t-75 -22.5q-34 0 -66 14t-58 30.5t-44 30t-23 13.5q-7 0 -20 -18q-51 -75 -113 -108t-153 -33q-38 0 -68.5 3t-54.5 11q0 -66 -15 -162q-42 -241 -204 -368q-162 -129 -421 -129
q-82 0 -150.5 24.5t-118 69t-77.5 107t-28 139.5q0 72 22.5 149t62.5 141q23 38 44.5 61t34.5 23q7 0 7 -7q0 -6 -11 -30.5l-25 -54l-27 -58t-18 -42.5q-8 -28 -13 -54.5t-5 -52.5q0 -50 29 -93t78.5 -74t116 -48.5t140.5 -17.5q73 0 148 13.5t139.5 39t112 61.5t64.5 80
q8 23 13 59t5 86q0 48 -4.5 94.5t-12.5 92.5z" />
    <glyph glyph-name="uniFEB2" unicode="&#x633;" horiz-adv-x="1910" arabic-form="final" 
d="M902 429q26 -49 48.5 -79t49.5 -46.5t61.5 -21.5t85.5 -5q42 0 72 7.5t58 25t58.5 46.5l72.5 71q8 8 20 8q22 0 34 -43q13 -51 36 -72.5t65 -21.5t67.5 19.5t47.5 69.5q27 61 47 61q10 0 19.5 -9.5t14.5 -32.5q22 -73 59 -100.5t92 -27.5h10q15 0 22.5 -27t7.5 -59.5
t-7.5 -59.5t-22.5 -27h-30q-12 0 -33 5.5t-42.5 17t-41 29.5t-30.5 43q-18 39 -26 39t-19 -14q-29 -37 -49.5 -60t-37.5 -36t-32.5 -18t-34.5 -5q-46 0 -74 22.5t-52 80.5q-20 48 -33 48q-5 0 -18 -13t-27 -29.5l-27 -31.5t-18 -20q-31 -28 -65.5 -42.5t-88.5 -14.5
q-40 0 -72 3t-58 11q0 -153 -42.5 -275.5t-123.5 -208t-197.5 -131t-265.5 -45.5q-80 0 -150 22t-121.5 65.5t-81 107.5t-29.5 148q0 67 20.5 140t58.5 136q26 44 48.5 70t32.5 26q7 0 8.5 -3.5t1.5 -10.5q0 -2 -0.5 -4t-3.5 -7.5l-8.5 -15.5t-14.5 -28q-33 -65 -52 -126
t-20 -102q0 -52 28.5 -95.5t78 -74.5t118 -48.5t147.5 -17.5q71 0 144.5 13.5t137 38.5t110 61t62.5 81q9 28 14 71t5 91q0 49 -4.5 95t-12.5 77l-54.5 56.5t-40.5 54.5q23 38 47.5 74.5z" />
    <glyph glyph-name="uniFEB3" unicode="&#x633;" horiz-adv-x="1310" arabic-form="initial" 
d="M1115 651q23 -44 34 -89t11 -92q0 -61 -14 -114.5t-39 -93t-59.5 -62.5t-75.5 -23q-40 0 -84 20t-83 55q-15 13 -21 13q-7 0 -20 -15q-55 -74 -115.5 -109.5t-146.5 -35.5q-33 0 -59 7.5t-49 20.5t-44 31t-42 39q-22 24 -32 24q-14 0 -34 -25q-43 -54 -103 -75.5
t-119 -21.5h-30q-15 0 -22.5 27t-7.5 59.5t7.5 59.5t22.5 27h10q67 0 113 7t77.5 22.5t52.5 42t37 65.5q15 34 31 34t31 -30q24 -47 46 -75t43.5 -43t44 -19.5t47.5 -4.5q35 0 74.5 11.5t70.5 30.5q37 23 64.5 60.5t58.5 103.5q23 50 43 50q19 0 34 -51q16 -49 32.5 -75.5
t39 -39t54 -14.5t77.5 -2q-1 25 -5 45t-11 37.5t-18.5 33.5t-28.5 34z" />
    <glyph glyph-name="uniFEB4" unicode="&#x633;" horiz-adv-x="1260" arabic-form="medial" 
d="M1270 278q15 0 22.5 -27t7.5 -59.5t-7.5 -59.5t-22.5 -27h-30q-31 0 -56 9.5t-44.5 24.5t-32.5 34.5t-21 40.5q-8 24 -20 24q-4 0 -30 -29q-27 -31 -46.5 -51t-36 -32t-32 -16.5t-33.5 -4.5q-39 0 -66.5 22.5t-46.5 67.5q-15 37 -23 50t-16 13q-5 0 -16 -11t-23 -25.5
l-22.5 -27.5t-14.5 -17q-32 -32 -72.5 -52t-88.5 -20q-27 0 -50 5t-44 15.5t-41.5 27t-43.5 39.5q-31 32 -48 32q-13 0 -35 -28q-67 -91 -217 -91h-30q-15 0 -22.5 27t-7.5 59.5t7.5 59.5t22.5 27h10q71 0 117.5 6.5t77.5 23.5t52 45.5t41 73.5q5 11 11 16t12 5q17 0 38 -40
q20 -38 38.5 -63t37.5 -40t40 -21t46 -6q29 0 55 6t51.5 20t52.5 36.5t57 55.5q35 38 52 38q9 0 17.5 -9.5t18.5 -40.5q16 -51 37 -68.5t60 -17.5q41 0 67.5 19.5t49.5 71.5q17 36 27 47.5t18 11.5q23 0 36 -51q17 -66 52 -92.5t98 -26.5h10z" />
    <glyph glyph-name="afii57428" unicode="&#x634;" horiz-adv-x="1951" arabic-form="isolated" 
d="M901 169q-6 8 -10 12l-6 6l-23 23q-11 11 -24.5 27.5l-32.5 40.5l33.5 59.5t48.5 72.5l16 21q23 -45 45 -75t49 -47t63 -24t86 -7q53 0 95 11t76 35t61.5 63t51.5 95q22 50 47 50q28 0 38 -51q8 -39 21 -64.5t33 -40.5t48.5 -20.5t67.5 -5.5h29q-2 25 -6 45t-11.5 37
t-19 33t-27.5 33l106 151q45 -81 45 -182q0 -61 -14 -114t-39 -92.5t-59 -62t-75 -22.5q-34 0 -66 14t-58 30.5t-44 30t-23 13.5q-7 0 -20 -18q-51 -75 -113 -108t-153 -33q-38 0 -68.5 3t-54.5 11q0 -66 -15 -161q-42 -242 -204 -369q-162 -129 -421 -129
q-82 0 -150.5 24.5t-118 69t-77.5 107t-28 139.5q0 72 22.5 148.5t62.5 142.5q23 38 44.5 61t34.5 23q7 0 7 -7q0 -10 -19 -45q-22 -42 -37.5 -76.5t-25 -64t-13.5 -56t-4 -51.5q0 -50 29 -93t78.5 -74t116 -48.5t140.5 -17.5q72 0 147 13.5t140 39t112.5 61.5t64.5 80
q8 23 13 59t5 86q0 48 -4.5 94.5t-12.5 93.5zM1443 1055l-75.5 63.5t-82.5 55.5q35 33 62.5 68.5t50.5 77.5q65 -71 149 -116q-33 -34 -58.5 -70.5t-45.5 -78.5zM1378 818q-32 34 -70 64t-83 58q59 65 94 138q31 -30 64.5 -57.5t68.5 -47.5q25 28 47 58.5t38 64.5l70.5 -60
t79.5 -50q-29 -34 -55 -69t-46 -73q-25 29 -58 54t-71 47q-23 -29 -44 -60.5t-35 -66.5z" />
    <glyph glyph-name="uniFEB6" unicode="&#x634;" horiz-adv-x="1910" arabic-form="final" 
d="M1371 996l-74.5 64.5t-82.5 54.5q35 33 62 68.5t50 77.5q65 -71 149 -115q-64 -67 -104 -150zM1306 759q-32 34 -69.5 64t-82.5 58q30 33 53 67.5t40 71.5q31 -30 65 -57.5t69 -47.5q24 27 46.5 57.5t38.5 64.5l70 -59.5t80 -50.5q-29 -34 -55.5 -69t-46.5 -73
q-24 29 -57.5 54t-70.5 47q-23 -29 -44.5 -60.5t-35.5 -66.5zM902 429q26 -49 48.5 -79t49.5 -46.5t61.5 -21.5t85.5 -5q42 0 72 7.5t58 25t58.5 46.5l72.5 71q8 8 20 8q22 0 34 -43q13 -51 36 -72.5t65 -21.5t67.5 19.5t47.5 69.5q27 61 47 61q10 0 19.5 -9.5t14.5 -32.5
q22 -73 59 -100.5t92 -27.5h10q15 0 22.5 -27t7.5 -59.5t-7.5 -59.5t-22.5 -27h-30q-12 0 -33 5.5t-42.5 17t-41 29.5t-30.5 43q-18 39 -26 39t-19 -14q-29 -37 -49.5 -60t-37.5 -36t-32.5 -18t-34.5 -5q-46 0 -74 22.5t-52 80.5q-20 48 -33 48q-5 0 -18 -13t-27 -29.5
l-27 -31.5t-18 -20q-31 -28 -65.5 -42.5t-88.5 -14.5q-40 0 -72 3t-58 11q0 -153 -42.5 -275.5t-123.5 -208t-197.5 -131t-265.5 -45.5q-80 0 -150 22t-121.5 65.5t-81 107.5t-29.5 148q0 67 20.5 140t58.5 136q26 44 48.5 70t32.5 26q7 0 8.5 -3.5t1.5 -10.5q0 -2 -0.5 -4
t-3.5 -7.5l-8.5 -15.5t-14.5 -28q-33 -65 -52 -126t-20 -102q0 -52 28.5 -95.5t78 -74.5t118 -48.5t147.5 -17.5q71 0 144.5 13.5t137 38.5t110 61t62.5 81q9 28 14 71t5 91q0 49 -4.5 95t-12.5 77l-54.5 56.5t-40.5 54.5q23 38 47.5 74.5z" />
    <glyph glyph-name="uniFEB7" unicode="&#x634;" horiz-adv-x="1310" arabic-form="initial" 
d="M680 1078l66 -49.5t71 -46.5q23 29 43 57.5t38 60.5l43 -32.5l38 -26.5l35.5 -23l35.5 -22q-52 -52 -99 -140q-61 58 -130 94q-34 -41 -75 -128q-20 20 -60 52t-98 68q58 70 92 136zM755 1326q44 -44 79.5 -70.5t67.5 -45.5l-27 -32.5t-21.5 -29t-22 -35.5l-28.5 -52
q-34 29 -71.5 55t-86.5 55q47 59 71.5 96zM1115 651q23 -44 34 -89t11 -92q0 -61 -14 -114.5t-39 -93t-59.5 -62.5t-75.5 -23q-40 0 -84 20t-83 55q-15 13 -21 13q-7 0 -20 -15q-55 -74 -115.5 -109.5t-146.5 -35.5q-33 0 -59 7.5t-49 20.5t-44 31t-42 39q-22 24 -32 24
q-14 0 -34 -25q-43 -54 -103 -75.5t-119 -21.5h-30q-15 0 -22.5 27t-7.5 59.5t7.5 59.5t22.5 27h10q67 0 113 7t77.5 22.5t52.5 42t37 65.5q15 34 31 34t31 -30q24 -47 46 -75t43.5 -43t44 -19.5t47.5 -4.5q35 0 74.5 11.5t70.5 30.5q37 23 64.5 60.5t58.5 103.5
q23 50 43 50q19 0 34 -51q16 -49 32.5 -75.5t39 -39t54 -14.5t77.5 -2q-1 25 -5 45t-11 37.5t-18.5 33.5t-28.5 34z" />
    <glyph glyph-name="uniFEB8" unicode="&#x634;" horiz-adv-x="1260" arabic-form="medial" 
d="M726 996l-75.5 64.5t-82.5 54.5q35 33 62 68.5t50 77.5q68 -73 150 -115q-34 -35 -59 -71.5t-45 -78.5zM660 759q-32 34 -69.5 64t-82.5 58q59 65 94 139q31 -30 64.5 -57.5t68.5 -47.5q25 27 47 57.5t38 64.5l70 -59.5t80 -50.5q-29 -34 -55 -69t-47 -73q-24 29 -57 54
t-71 47q-23 -29 -44.5 -60.5t-35.5 -66.5zM1270 278q15 0 22.5 -27t7.5 -59.5t-7.5 -59.5t-22.5 -27h-30q-31 0 -56 9.5t-44.5 24.5t-32.5 34.5t-21 40.5q-8 24 -20 24q-4 0 -30 -29q-27 -31 -46.5 -51t-36 -32t-32 -16.5t-33.5 -4.5q-39 0 -66.5 22.5t-46.5 67.5
q-15 37 -23 50t-16 13q-5 0 -16 -11t-23 -25.5l-22.5 -27.5t-14.5 -17q-32 -32 -72.5 -52t-88.5 -20q-27 0 -50 5t-44 15.5t-41.5 27t-43.5 39.5q-31 32 -48 32q-13 0 -35 -28q-67 -91 -217 -91h-30q-15 0 -22.5 27t-7.5 59.5t7.5 59.5t22.5 27h10q71 0 117.5 6.5t77.5 23.5
t52 45.5t41 73.5q5 11 11 16t12 5q17 0 38 -40q20 -38 38.5 -63t37.5 -40t40 -21t46 -6q29 0 55 6t51.5 20t52.5 36.5t57 55.5q35 38 52 38q9 0 17.5 -9.5t18.5 -40.5q16 -51 37 -68.5t60 -17.5q41 0 67.5 19.5t49.5 71.5q17 36 27 47.5t18 11.5q23 0 36 -51
q17 -66 52 -92.5t98 -26.5h10z" />
    <glyph glyph-name="afii57429" unicode="&#x635;" horiz-adv-x="2321" arabic-form="isolated" 
d="M1328 285q43 72 101 141.5t133 138.5q233 213 413 213q44 0 80 -17t61.5 -46.5t40 -67.5t14.5 -80q0 -73 -33.5 -134.5t-92.5 -111.5t-140 -88.5t-176 -65.5t-200 -42.5t-213 -19.5q-16 -26 -31.5 -54l-29 -51.5t-24 -39t-17.5 -15.5q-4 0 -7.5 6t-3.5 17q0 33 6 64.5
t17 71.5q-50 1 -84 2t-58 2.5t-40.5 4t-31.5 6.5q0 -150 -42 -271.5t-121.5 -208t-193 -133.5t-256.5 -47q-92 0 -166 22.5t-125.5 66t-79.5 105.5t-28 142q0 36 6 79.5t20 89.5t37 92.5t58 88.5q23 29 39 29q9 0 9 -8q0 -5 -2.5 -11t-5.5 -11q-48 -91 -69.5 -153
t-21.5 -107q0 -65 36 -111.5t91 -76t120.5 -43.5t124.5 -14q65 0 134 12.5t130.5 35t108.5 54t68 69.5q34 62 34 170q0 51 -5 98.5t-13 92.5q-48 43 -95 109q23 41 46.5 77.5t51.5 74.5q20 -45 40 -75t53 -47t85 -24t134 -7q57 0 114 6zM1429 281q67 0 138.5 8.5t139.5 23.5
t128.5 34.5t106.5 41t72.5 44t26.5 43.5q0 17 -17 35.5t-43.5 34t-59.5 26t-65 10.5q-61 0 -121.5 -27t-116.5 -70.5t-104.5 -97t-84.5 -106.5z" />
    <glyph glyph-name="uniFEBA" unicode="&#x635;" horiz-adv-x="2320" arabic-form="final" 
d="M1423 280q49 0 113.5 7.5t132 20.5t133 31.5t117 40t83 46t31.5 49.5q0 18 -16 36t-42.5 33t-59.5 24.5t-66 9.5q-63 0 -127 -29t-139 -90q-44 -36 -87 -85t-73 -94zM1838 205l9 1q8 0 51.5 11.5t107.5 25t141.5 24.5t152.5 11h30q15 0 22.5 -27t7.5 -59.5t-7.5 -59.5
t-22.5 -27h-30q-110 0 -198 1t-157 2.5t-120.5 3.5t-88.5 4q-86 4 -123 10q3 1 5 1h2q-2 0 -20.5 -1.5t-47 -3.5l-62.5 -4.5l-68 -5t-63.5 -4t-48.5 -1.5l-16 -19.5t-12.5 -18.5l-16 -28.5l-26.5 -49.5q-26 -47 -34 -47q-12 0 -12 28q0 61 25 133q-48 1 -80.5 2t-55.5 2.5
t-39.5 4t-32.5 6.5q0 -127 -34.5 -246t-109.5 -211t-192.5 -147.5t-283.5 -55.5q-93 0 -165.5 24.5t-122.5 69t-76 106.5t-26 137q0 158 85 295q22 36 44 60t33 24q10 0 10 -7q0 -5 -4 -12.5t-8 -13.5q-90 -156 -90 -268q0 -48 27.5 -90t75.5 -74t114 -50.5t142 -18.5
q115 0 216 27t173 77q26 18 44.5 38t30.5 47t17.5 62.5t5.5 82.5q0 54 -5 102.5t-13 91.5q-33 32 -55 57t-40 53q11 24 38 64.5l60 87.5q20 -44 46 -74t64 -48t92 -25.5t130 -7.5q18 0 39 1.5t46 3.5q73 106 144.5 186.5t154.5 147.5q94 77 182 118t160 41q44 0 81.5 -16.5
t65 -45t43 -68t15.5 -85.5q0 -118 -82 -203t-242 -148z" />
    <glyph glyph-name="uniFEBB" unicode="&#x635;" horiz-adv-x="1666" arabic-form="initial" 
d="M567 105q-4 0 -8.5 0.5t-11.5 0.5h-18.5h-30.5q-39 0 -68 6t-51.5 19t-40 32t-32.5 45q-13 20 -22 20q-11 0 -24 -14q-63 -60 -123.5 -84.5t-116.5 -24.5h-30q-15 0 -22.5 27t-7.5 59.5t7.5 59.5t22.5 27h10q119 0 186.5 24t84.5 82l12.5 32.5t9 17t9 6t11.5 0.5
q16 0 24.5 -11t18.5 -43q9 -30 23 -50.5t39.5 -33t67 -18t106.5 -5.5q17 0 35.5 1t40.5 4q93 130 176.5 217t146.5 134q185 141 326 141q43 0 79.5 -16.5t63 -45.5t41.5 -67.5t15 -82.5q0 -112 -89 -210q-121 -134 -398 -203q-36 -9 -84.5 -17t-100 -14.5t-101.5 -10.5
t-88 -4l-9.5 -14.5t-13.5 -22.5l-21 -36l-32 -56q-8 -15 -14 -23t-12 -8q-10 0 -10 29q0 58 24 131zM772 282q75 0 149.5 9t142.5 24t126.5 34.5t101.5 41.5t67.5 44.5t24.5 42.5q0 17 -17.5 35t-44.5 32.5t-60 23.5t-63 9q-60 0 -121.5 -27.5t-118 -70.5t-104.5 -95.5
t-83 -102.5z" />
    <glyph glyph-name="uniFEBC" unicode="&#x635;" horiz-adv-x="1670" arabic-form="medial" 
d="M1192 205l9 1q6 0 27 5.5t54.5 13.5t76 17t90.5 17t99.5 13.5t101.5 5.5h30q15 0 22.5 -27t7.5 -59.5t-7.5 -59.5t-22.5 -27h-30q-110 0 -198 1t-157 2.5t-120 3.5t-87 4q-85 4 -121 10q2 0 2.5 0.5t1.5 0.5q-9 -1 -42 -3.5l-76 -5.5l-88 -6l-77 -5q-6 -2 -12 -2.5
t-14 -0.5l-15 -18.5t-12.5 -18.5t-15.5 -28.5t-26 -47.5q-26 -47 -33 -47q-2 0 -3 0.5t-3 0.5h-1q-10 0 -10 29q0 58 24 131q-63 0 -106 6t-72 19t-48 32t-35 46q-13 20 -22 20q-11 0 -24 -14q-63 -60 -123.5 -84.5t-116.5 -24.5h-30q-15 0 -22.5 27t-7.5 59.5t7.5 59.5
t22.5 27h10q119 0 186.5 24t84.5 82l12.5 32.5t9 17t9 6t11.5 0.5q16 0 24.5 -11t18.5 -43q9 -30 23 -50.5t39.5 -33t67 -18t106.5 -5.5q13 1 22 1h17t16.5 1t20.5 3q3 0 5 1l72.5 98t71.5 86.5t74 77t80 69.5q94 77 182 118t161 41q44 0 81.5 -16.5t64.5 -45t42.5 -68
t15.5 -85.5q0 -118 -82 -203t-242 -148zM772 282q75 0 149.5 9t142.5 24t126.5 34.5t101.5 41.5t67.5 44.5t24.5 42.5q0 17 -17.5 35t-44.5 32.5t-60 23.5t-63 9q-60 0 -121.5 -27.5t-118 -70.5t-104.5 -95.5t-83 -102.5z" />
    <glyph glyph-name="afii57430" unicode="&#x636;" horiz-adv-x="2321" arabic-form="isolated" 
d="M1758 1226q38 -39 74.5 -68t71.5 -48q-17 -20 -28.5 -35t-22 -30.5t-21.5 -35l-26 -48.5q-33 29 -70.5 55t-88.5 56l71.5 95t39.5 59zM1328 285q43 72 101 141.5t133 138.5q233 213 413 213q44 0 80 -17t61.5 -46.5t40 -67.5t14.5 -80q0 -73 -33.5 -134.5t-92.5 -111.5
t-140 -88.5t-176 -65.5t-200 -42.5t-213 -19.5q-16 -26 -31.5 -54l-29 -51.5t-24 -39t-17.5 -15.5q-4 0 -7.5 6t-3.5 17q0 33 6 64.5t17 71.5q-50 1 -84 2t-58 2.5t-40.5 4t-31.5 6.5q0 -150 -42 -271.5t-121.5 -208t-193 -133.5t-256.5 -47q-92 0 -166 22.5t-125.5 66
t-79.5 105.5t-28 142q0 36 6 79.5t20 89.5t37 92.5t58 88.5q23 29 39 29q9 0 9 -8q0 -5 -2.5 -11t-5.5 -11q-48 -91 -69.5 -153t-21.5 -107q0 -65 36 -111.5t91 -76t120.5 -43.5t124.5 -14q65 0 134 12.5t130.5 35t108.5 54t68 69.5q34 62 34 170q0 51 -5 98.5t-13 92.5
q-48 43 -95 109q23 41 46.5 77.5t51.5 74.5q20 -45 40 -75t53 -47t85 -24t134 -7q57 0 114 6zM1429 281q67 0 138.5 8.5t139.5 23.5t128.5 34.5t106.5 41t72.5 44t26.5 43.5q0 17 -17 35.5t-43.5 34t-59.5 26t-65 10.5q-61 0 -121.5 -27t-116.5 -70.5t-104.5 -97
t-84.5 -106.5z" />
    <glyph glyph-name="uniFEBE" unicode="&#x636;" horiz-adv-x="2320" arabic-form="final" 
d="M1746 1220q78 -78 147 -117l-27.5 -33.5t-21.5 -30t-21 -35t-27 -50.5q-32 30 -71 55.5l-89 56.5q47 59 72 95.5t38 58.5zM1423 280q49 0 113.5 7.5t132 20.5t133 31.5t117 40t83 46t31.5 49.5q0 18 -16 36t-42.5 33t-59.5 24.5t-66 9.5q-63 0 -127 -29t-139 -90
q-44 -36 -87 -85t-73 -94zM1838 205l9 1q8 0 51.5 11.5t107.5 25t141.5 24.5t152.5 11h30q15 0 22.5 -27t7.5 -59.5t-7.5 -59.5t-22.5 -27h-30q-110 0 -198 1t-157 2.5t-120.5 3.5t-88.5 4q-86 4 -123 10q3 1 5 1h2q-2 0 -20.5 -1.5t-47 -3.5l-62.5 -4.5l-68 -5t-63.5 -4
t-48.5 -1.5l-16 -19.5t-12.5 -18.5l-16 -28.5l-26.5 -49.5q-26 -47 -34 -47q-12 0 -12 28q0 61 25 133q-48 1 -80.5 2t-55.5 2.5t-39.5 4t-32.5 6.5q0 -127 -34.5 -246t-109.5 -211t-192.5 -147.5t-283.5 -55.5q-93 0 -165.5 24.5t-122.5 69t-76 106.5t-26 137q0 158 85 295
q22 36 44 60t33 24q10 0 10 -7q0 -5 -4 -12.5t-8 -13.5q-90 -156 -90 -268q0 -48 27.5 -90t75.5 -74t114 -50.5t142 -18.5q115 0 216 27t173 77q26 18 44.5 38t30.5 47t17.5 62.5t5.5 82.5q0 54 -5 102.5t-13 91.5q-33 32 -55 57t-40 53q11 24 38 64.5l60 87.5
q20 -44 46 -74t64 -48t92 -25.5t130 -7.5q18 0 39 1.5t46 3.5q73 106 144.5 186.5t154.5 147.5q94 77 182 118t160 41q44 0 81.5 -16.5t65 -45t43 -68t15.5 -85.5q0 -118 -82 -203t-242 -148z" />
    <glyph glyph-name="uniFEBF" unicode="&#x636;" horiz-adv-x="1666" arabic-form="initial" 
d="M1100 1220q78 -78 147 -117q-18 -19 -29.5 -34t-21 -30.5l-20.5 -35l-27 -49.5q-32 30 -70.5 55.5l-88.5 56.5q47 58 72 94t38 60zM772 282q75 0 149.5 9t142.5 24t126.5 34.5t101.5 41.5t67.5 44.5t24.5 42.5q0 17 -17.5 35t-44.5 32.5t-60 23.5t-63 9
q-60 0 -121.5 -27.5t-118 -70.5t-104.5 -95.5t-83 -102.5zM567 105q-4 0 -8.5 0.5t-11.5 0.5h-18.5h-30.5q-39 0 -68 6t-51.5 19t-40 32t-32.5 45q-13 20 -22 20q-11 0 -24 -14q-63 -60 -123.5 -84.5t-116.5 -24.5h-30q-15 0 -22.5 27t-7.5 59.5t7.5 59.5t22.5 27h10
q119 0 186.5 24t84.5 82l12.5 32.5t9 17t9 6t11.5 0.5q16 0 24.5 -11t18.5 -43q9 -30 23 -50.5t39.5 -33t67 -18t106.5 -5.5q17 0 35.5 1t40.5 4q93 130 176.5 217t146.5 134q185 141 326 141q43 0 79.5 -16.5t63 -45.5t41.5 -67.5t15 -82.5q0 -112 -89 -210
q-121 -134 -398 -203q-36 -9 -84.5 -17t-100 -14.5t-101.5 -10.5t-88 -4l-9.5 -14.5t-13.5 -22.5l-21 -36l-32 -56q-8 -15 -14 -23t-12 -8q-10 0 -10 29q0 58 24 131z" />
    <glyph glyph-name="uniFEC0" unicode="&#x636;" horiz-adv-x="1670" arabic-form="medial" 
d="M1097 1223q79 -77 146 -116q-17 -20 -28 -34.5t-21 -30t-21 -35l-27 -48.5q-32 29 -70.5 54l-88.5 56q47 59 72 95.5t38 58.5zM772 282q75 0 149.5 9t142.5 24t126.5 34.5t101.5 41.5t67.5 44.5t24.5 42.5q0 17 -17.5 35t-44.5 32.5t-60 23.5t-63 9q-60 0 -121.5 -27.5
t-118 -70.5t-104.5 -95.5t-83 -102.5zM1192 205l9 1q6 0 27 5.5t54.5 13.5t76 17t90.5 17t99.5 13.5t101.5 5.5h30q15 0 22.5 -27t7.5 -59.5t-7.5 -59.5t-22.5 -27h-30q-110 0 -198 1t-157 2.5t-120 3.5t-87 4q-85 4 -121 10q2 0 2.5 0.5t1.5 0.5q-9 -1 -42 -3.5l-76 -5.5
l-88 -6l-77 -5q-6 -2 -12 -2.5t-14 -0.5l-15 -18.5t-12.5 -18.5t-15.5 -28.5t-26 -47.5q-26 -47 -33 -47q-2 0 -3 0.5t-3 0.5h-1q-10 0 -10 29q0 58 24 131q-63 0 -106 6t-72 19t-48 32t-35 46q-13 20 -22 20q-11 0 -24 -14q-63 -60 -123.5 -84.5t-116.5 -24.5h-30
q-15 0 -22.5 27t-7.5 59.5t7.5 59.5t22.5 27h10q119 0 186.5 24t84.5 82l12.5 32.5t9 17t9 6t11.5 0.5q16 0 24.5 -11t18.5 -43q9 -30 23 -50.5t39.5 -33t67 -18t106.5 -5.5q13 1 22 1h17t16.5 1t20.5 3q3 0 5 1l72.5 98t71.5 86.5t74 77t80 69.5q94 77 182 118t161 41
q44 0 81.5 -16.5t64.5 -45t42.5 -68t15.5 -85.5q0 -118 -82 -203t-242 -148z" />
    <glyph glyph-name="afii57431" unicode="&#x637;" horiz-adv-x="1381" arabic-form="isolated" 
d="M456 1538q33 -85 125 -179q-38 -31 -62.5 -61t-24.5 -63q0 -14 4 -26q3 -12 13 -62.5t20.5 -124.5t19 -162t8.5 -175q0 -56 -4.5 -107t-14.5 -96q56 57 121 107t130.5 87.5t126 59.5t105.5 22q46 0 84 -15.5t65.5 -42t43 -63t15.5 -78.5q0 -18 -5 -42.5t-13.5 -51
t-19.5 -52.5t-23 -47q-19 -33 -61 -61.5t-97 -53.5t-119.5 -45t-129 -36t-124.5 -27.5t-107 -17.5q-79 -11 -155.5 -13t-151.5 -7q-25 0 -44 2.5t-35.5 9.5t-32.5 18.5t-36 29.5q-77 69 -77 95q0 14 8 15.5t25 1.5l93 2q41 1 83 4t81 11.5t72.5 23t57.5 38.5q29 29 41.5 73
t12.5 115q-5 106 -12.5 218t-22 223t-36.5 216.5t-56 199.5q9 9 22.5 25l29 35t30.5 39.5zM1119 478q-30 55 -82.5 74.5t-118.5 19.5q-40 0 -87 -13.5t-96 -40t-97.5 -65t-93.5 -89.5q-37 -42 -37 -57q0 -8 10.5 -11.5t27.5 -3.5q28 0 69.5 7t83.5 16.5t79.5 19.5l58.5 16
q94 29 163 60.5t114 62.5z" />
    <glyph glyph-name="uniFEC2" unicode="&#x637;" horiz-adv-x="1360" arabic-form="final" 
d="M1119 478q-30 55 -82.5 74.5t-118.5 19.5q-40 0 -87 -13.5t-96 -40t-97.5 -65t-93.5 -89.5q-37 -42 -37 -57q0 -8 10.5 -11.5t27.5 -3.5q28 0 69.5 7t83.5 16.5t79.5 19.5l58.5 16q94 29 163 60.5t114 62.5zM456 1538q33 -85 125 -179q-38 -31 -62.5 -61t-24.5 -63
q0 -14 4 -26q3 -12 13 -62.5t20.5 -124.5t19 -162t8.5 -175q0 -56 -4.5 -107t-14.5 -96q56 57 121 107t130.5 87.5t126 59.5t105.5 22q46 0 84 -15.5t65.5 -42t43 -63t15.5 -78.5q0 -18 -5 -42.5t-13.5 -51t-19.5 -52.5t-23 -47q-15 -25 -42.5 -47.5t-65.5 -42.5
q14 -9 35 -13.5t44 -4.5q26 0 58 3t61 7l51.5 7t28.5 3h30q15 0 22.5 -27t7.5 -59.5t-7.5 -59.5t-22.5 -27h-30q-28 0 -68 -1t-72 2q-81 7 -154 12l-130.5 9t-95 5.5t-47.5 1.5t-38 -1t-66.5 -3l-85 -4.5t-94.5 -5.5q-28 -1 -61 -4t-67.5 -5l-69 -4t-66.5 -2q-25 0 -44 2.5
t-35.5 9.5t-32.5 18.5t-36 29.5q-77 69 -77 95q0 14 8 15.5t25 1.5l93 2q41 1 83 4t81 11.5t72.5 23t57.5 38.5q29 29 41.5 73t12.5 115q-5 106 -12.5 218t-22 223t-36.5 216.5t-56 199.5q9 9 22.5 25l29 35t30.5 39.5z" />
    <glyph glyph-name="uniFEC3" unicode="&#x637;" horiz-adv-x="1182" arabic-form="initial" 
d="M263 1538q33 -85 124 -179q-37 -31 -62 -61t-25 -63q0 -15 5 -26q3 -12 13 -62.5t20.5 -124.5t18.5 -162t8 -175q0 -56 -4 -107t-14 -96l6 -5q136 140 258 210.5t216 70.5q46 0 84 -16.5t65 -44t41.5 -65t14.5 -79.5q0 -21 -8.5 -54t-22 -67t-30.5 -63t-34 -43
q-31 -26 -79 -51.5t-105.5 -48.5t-121.5 -42.5t-128 -33.5q-122 -26 -239.5 -35.5t-243.5 -9.5h-30q-15 0 -22.5 27t-7.5 59.5t7.5 59.5t22.5 27h10q49 0 90 3.5t74.5 17t58 40.5t40.5 74q5 50 6.5 100.5t1.5 102.5q0 101 -7.5 204.5t-22.5 204t-37 196t-51 180.5
q9 9 22.5 25l29.5 35t31 39.5zM920 479q-22 45 -73.5 68.5t-125.5 23.5q-35 0 -70 -8t-73 -26t-79 -46t-88 -68q-18 -15 -36.5 -33t-32.5 -35t-23 -30.5t-9 -19.5q0 -16 26 -16q25 0 63.5 6t84 16.5t94.5 24t96.5 29t89 31t71.5 30.5q67 33 85 53z" />
    <glyph glyph-name="uniFEC4" unicode="&#x637;" horiz-adv-x="1160" arabic-form="medial" 
d="M263 1538q33 -85 124 -179q-37 -31 -62 -61t-25 -63q0 -15 5 -26q3 -12 13 -62.5t20.5 -124.5t18.5 -162t8 -175q0 -56 -4 -107t-14 -96l6 -5q136 140 258 210.5t216 70.5q46 0 84 -16.5t65 -44t41.5 -65t14.5 -79.5q0 -21 -8.5 -54t-22 -67t-30.5 -63t-34 -43
q-29 -25 -71 -47q5 -6 22.5 -8t40.5 -2t55.5 1.5l63.5 3t56.5 3t35.5 1.5h30q15 0 22.5 -27t7.5 -59.5t-7.5 -59.5t-22.5 -27h-30h-41t-60 1.5t-87 4.5t-122 9q-66 14 -115.5 20t-94.5 6q-35 0 -87 -4.5t-110.5 -10.5l-118 -12.5t-109.5 -9.5h1q-43 -2 -87 -3t-89 -1h-30
q-15 0 -22.5 27t-7.5 59.5t7.5 59.5t22.5 27h10q49 0 90 3.5t74.5 17t58 40.5t40.5 74q5 50 6.5 100.5t1.5 102.5q0 101 -7.5 204.5t-22.5 204t-37 196t-51 180.5q9 9 22.5 25l29.5 35t31 39.5zM920 479q-22 45 -73.5 68.5t-125.5 23.5q-35 0 -70 -8t-73 -26t-79 -46
t-88 -68q-18 -15 -36.5 -33t-32.5 -35t-23 -30.5t-9 -19.5q0 -16 26 -16q25 0 63.5 6t84 16.5t94.5 24t96.5 29t89 31t71.5 30.5q67 33 85 53z" />
    <glyph glyph-name="afii57432" unicode="&#x638;" horiz-adv-x="1381" arabic-form="isolated" 
d="M867 1316q39 -40 75.5 -69t71.5 -48q-18 -19 -29.5 -34t-22 -31t-21 -35.5l-25.5 -48.5q-33 29 -71 55.5t-88 55.5l71.5 95t38.5 60zM456 1538q33 -85 125 -179q-38 -31 -62.5 -61t-24.5 -63q0 -14 4 -26q3 -12 13 -62.5t20.5 -124.5t19 -162t8.5 -175q0 -56 -4.5 -107
t-14.5 -96q56 57 121 107t130.5 87.5t126 59.5t105.5 22q46 0 84 -15.5t65.5 -42t43 -63t15.5 -78.5q0 -18 -5 -42.5t-13.5 -51t-19.5 -52.5t-23 -47q-19 -33 -61 -61.5t-97 -53.5t-119.5 -45t-129 -36t-124.5 -27.5t-107 -17.5q-79 -11 -155.5 -13t-151.5 -7q-25 0 -44 2.5
t-35.5 9.5t-32.5 18.5t-36 29.5q-77 69 -77 95q0 14 8 15.5t25 1.5l93 2q41 1 83 4t81 11.5t72.5 23t57.5 38.5q29 29 41.5 73t12.5 115q-5 106 -12.5 218t-22 223t-36.5 216.5t-56 199.5q9 9 22.5 25l29 35t30.5 39.5zM1119 478q-30 55 -82.5 74.5t-118.5 19.5
q-40 0 -87 -13.5t-96 -40t-97.5 -65t-93.5 -89.5q-37 -42 -37 -57q0 -8 10.5 -11.5t27.5 -3.5q28 0 69.5 7t83.5 16.5t79.5 19.5l58.5 16q94 29 163 60.5t114 62.5z" />
    <glyph glyph-name="uniFEC6" unicode="&#x638;" horiz-adv-x="1360" arabic-form="final" 
d="M873 1317q79 -79 147 -116q-18 -19 -29.5 -33.5t-21.5 -30t-20.5 -35.5l-26.5 -50q-33 29 -71 55.5t-89 54.5q47 59 72.5 96t38.5 59zM1119 478q-30 55 -82.5 74.5t-118.5 19.5q-40 0 -87 -13.5t-96 -40t-97.5 -65t-93.5 -89.5q-37 -42 -37 -57q0 -8 10.5 -11.5
t27.5 -3.5q28 0 69.5 7t83.5 16.5t79.5 19.5l58.5 16q94 29 163 60.5t114 62.5zM456 1538q33 -85 125 -179q-38 -31 -62.5 -61t-24.5 -63q0 -14 4 -26q3 -12 13 -62.5t20.5 -124.5t19 -162t8.5 -175q0 -56 -4.5 -107t-14.5 -96q56 57 121 107t130.5 87.5t126 59.5t105.5 22
q46 0 84 -15.5t65.5 -42t43 -63t15.5 -78.5q0 -18 -5 -42.5t-13.5 -51t-19.5 -52.5t-23 -47q-15 -25 -42.5 -47.5t-65.5 -42.5q14 -9 35 -13.5t44 -4.5q26 0 58 3t61 7l51.5 7t28.5 3h30q15 0 22.5 -27t7.5 -59.5t-7.5 -59.5t-22.5 -27h-30q-28 0 -68 -1t-72 2
q-81 7 -154 12l-130.5 9t-95 5.5t-47.5 1.5t-38 -1t-66.5 -3l-85 -4.5t-94.5 -5.5q-28 -1 -61 -4t-67.5 -5l-69 -4t-66.5 -2q-25 0 -44 2.5t-35.5 9.5t-32.5 18.5t-36 29.5q-77 69 -77 95q0 14 8 15.5t25 1.5l93 2q41 1 83 4t81 11.5t72.5 23t57.5 38.5q29 29 41.5 73
t12.5 115q-5 106 -12.5 218t-22 223t-36.5 216.5t-56 199.5q9 9 22.5 25l29 35t30.5 39.5z" />
    <glyph glyph-name="uniFEC7" unicode="&#x638;" horiz-adv-x="1182" arabic-form="initial" 
d="M667 1313q39 -40 76 -69t71 -49q-18 -19 -29.5 -34t-22 -30.5t-21 -35l-26.5 -48.5q-32 29 -69.5 55t-88.5 56q46 59 71 95t39 60zM920 479q-22 45 -73.5 68.5t-125.5 23.5q-35 0 -70 -8t-73 -26t-79 -46t-88 -68q-18 -15 -36.5 -33t-32.5 -35t-23 -30.5t-9 -19.5
q0 -16 26 -16q25 0 63.5 6t84 16.5t94.5 24t96.5 29t89 31t71.5 30.5q67 33 85 53zM263 1538q33 -85 124 -179q-37 -31 -62 -61t-25 -63q0 -15 5 -26q3 -12 13 -62.5t20.5 -124.5t18.5 -162t8 -175q0 -56 -4 -107t-14 -96l6 -5q136 140 258 210.5t216 70.5q46 0 84 -16.5
t65 -44t41.5 -65t14.5 -79.5q0 -21 -8.5 -54t-22 -67t-30.5 -63t-34 -43q-31 -26 -79 -51.5t-105.5 -48.5t-121.5 -42.5t-128 -33.5q-122 -26 -239.5 -35.5t-243.5 -9.5h-30q-15 0 -22.5 27t-7.5 59.5t7.5 59.5t22.5 27h10q49 0 90 3.5t74.5 17t58 40.5t40.5 74
q5 50 6.5 100.5t1.5 102.5q0 101 -7.5 204.5t-22.5 204t-37 196t-51 180.5q9 9 22.5 25l29.5 35t31 39.5z" />
    <glyph glyph-name="uniFEC8" unicode="&#x638;" horiz-adv-x="1160" arabic-form="medial" 
d="M667 1311q38 -39 75 -68t72 -49q-17 -19 -28.5 -33.5t-22 -29.5t-21.5 -34.5l-27 -49.5q-32 29 -70.5 54.5l-87.5 55.5l71 95.5t39 58.5zM920 479q-22 45 -73.5 68.5t-125.5 23.5q-35 0 -70 -8t-73 -26t-79 -46t-88 -68q-18 -15 -36.5 -33t-32.5 -35t-23 -30.5t-9 -19.5
q0 -16 26 -16q25 0 63.5 6t84 16.5t94.5 24t96.5 29t89 31t71.5 30.5q67 33 85 53zM263 1538q33 -85 124 -179q-37 -31 -62 -61t-25 -63q0 -15 5 -26q3 -12 13 -62.5t20.5 -124.5t18.5 -162t8 -175q0 -56 -4 -107t-14 -96l6 -5q136 140 258 210.5t216 70.5q46 0 84 -16.5
t65 -44t41.5 -65t14.5 -79.5q0 -21 -8.5 -54t-22 -67t-30.5 -63t-34 -43q-29 -25 -71 -47q5 -6 22.5 -8t40.5 -2t55.5 1.5l63.5 3t56.5 3t35.5 1.5h30q15 0 22.5 -27t7.5 -59.5t-7.5 -59.5t-22.5 -27h-30h-41t-60 1.5t-87 4.5t-122 9q-66 14 -115.5 20t-94.5 6
q-35 0 -87 -4.5t-110.5 -10.5l-118 -12.5t-109.5 -9.5h1q-43 -2 -87 -3t-89 -1h-30q-15 0 -22.5 27t-7.5 59.5t7.5 59.5t22.5 27h10q49 0 90 3.5t74.5 17t58 40.5t40.5 74q5 50 6.5 100.5t1.5 102.5q0 101 -7.5 204.5t-22.5 204t-37 196t-51 180.5q9 9 22.5 25l29.5 35
t31 39.5z" />
    <glyph glyph-name="afii57433" unicode="&#x639;" horiz-adv-x="1060" arabic-form="isolated" 
d="M286 371q-109 27 -156.5 72t-47.5 103q0 69 26 142t69 133.5t97.5 99.5t111.5 39q23 0 56 -11.5t63.5 -28t52 -34.5t21.5 -30q0 -8 -10 -10t-45 -5q-113 -4 -194 -37t-136 -96q-35 -42 -35 -77q0 -16 14.5 -32t37.5 -30.5t51 -26.5t56 -20.5t52.5 -13.5t39.5 -5
q22 0 41 3.5t43.5 14.5t60 30.5l89.5 50.5l79 45l52 28.5t30.5 15t13.5 4.5q13 0 13 -14q0 -7 -4 -11l-99 -145q-60 -32 -124.5 -72t-127.5 -86t-120.5 -96t-102.5 -102q-36 -41 -64 -87.5t-48 -94.5t-30.5 -95.5t-10.5 -92.5q0 -115 55.5 -210t155 -163t238 -105.5
t303.5 -37.5q24 0 52.5 0.5t69.5 2l98.5 3.5t139.5 6l63.5 3.5t42.5 1.5q17 0 17 -10q0 -6 -12.5 -16.5t-34.5 -23.5t-50.5 -26.5t-61.5 -26.5q-216 -88 -429 -88q-92 0 -183.5 16t-174.5 47.5t-154.5 79.5t-124 112t-82 144.5t-29.5 177.5q0 81 24 176t64 188.5t91.5 177.5
t106.5 143z" />
    <glyph glyph-name="uniFECA" unicode="&#x639;" horiz-adv-x="990" arabic-form="final" 
d="M633 366q23 -27 45 -44t58.5 -27t95.5 -13.5t158 -3.5h10q15 0 22.5 -27t7.5 -59.5t-7.5 -59.5t-22.5 -27h-30q-82 0 -141.5 5.5t-103 16.5t-74 28t-54.5 40q-37 38 -87 120q-57 -31 -102.5 -61t-82.5 -61.5t-67.5 -65.5t-57.5 -73q-101 -147 -101 -317
q0 -234 186.5 -359.5t559.5 -125.5q97 0 190 7t184 21q10 2 25.5 4t30.5 2q14 0 24 -3.5t10 -13.5q0 -6 -21.5 -21.5t-66 -36.5t-111.5 -46t-159 -50q-40 -11 -70.5 -17.5t-57.5 -10t-53 -5t-56 -1.5q-166 0 -298.5 38.5t-224.5 112t-141.5 179.5t-49.5 240q0 235 138 448
q20 32 50 70.5t63.5 76.5l68 73.5t62.5 61.5q-23 17 -40.5 28t-35.5 18t-40 10.5t-55 4.5q81 220 308 220q51 0 95 -11.5t76.5 -33t51.5 -52t19 -67.5q0 -34 -23 -59t-74 -55z" />
    <glyph glyph-name="uniFECB" unicode="&#x639;" horiz-adv-x="1100" arabic-form="initial" 
d="M897 433q-47 -37 -304 -154l-165 -72t-136.5 -50t-129 -32t-142.5 -20h-30q-15 0 -22.5 27t-7.5 59.5t7.5 59.5t22.5 27h10q72 0 137.5 10t110.5 31l-30 29t-29.5 36t-22.5 44t-9 52q0 22 9 51.5t24 62t35 66t42 61.5q127 160 266 160q118 0 222 -118q27 -30 27 -38
q0 -12 -13 -12q-5 0 -9.5 1t-8.5 2q-69 22 -142 22q-61 0 -119 -14.5t-102.5 -35.5t-71.5 -44.5t-27 -41.5q0 -24 27 -53.5t65.5 -55t80 -43t70.5 -17.5q26 0 61.5 10t82.5 30t107 50.5l136 70.5q1 -32 -5 -63.5t-12 -66.5z" />
    <glyph glyph-name="uniFECC" unicode="&#x639;" horiz-adv-x="870" arabic-form="medial" 
d="M348 377q-30 42 -69 67t-102 39q-8 8 -8 16q0 7 4 17.5t11 24.5q31 72 98.5 111t163.5 39q58 0 109.5 -12t90 -33.5t61 -51.5t22.5 -66q0 -19 -6 -36.5t-21.5 -36t-42 -39.5t-66.5 -48q38 -28 71 -46t65 -27.5t66 -13t75 -3.5h10q15 0 22.5 -27t7.5 -59.5t-7.5 -59.5
t-22.5 -27h-30q-64 0 -111.5 14.5t-83 36.5t-62 48l-49 48t-43.5 36.5t-45 14.5q-16 0 -40.5 -14.5t-55.5 -36.5l-69 -48t-81 -48t-90.5 -36.5t-99.5 -14.5h-30q-15 0 -22.5 27t-7.5 59.5t7.5 59.5t22.5 27h10q71 0 122 6.5t91 19t72 31t63 42.5z" />
    <glyph glyph-name="afii57434" unicode="&#x63a;" horiz-adv-x="1060" arabic-form="isolated" 
d="M286 1452q77 -77 146 -115q-17 -19 -28.5 -33.5t-22 -30.5t-21.5 -35.5t-26 -49.5q-33 28 -70.5 54.5t-88.5 55.5l71 95.5t40 58.5zM286 371q-109 27 -156.5 72t-47.5 103q0 69 26 142t69 133.5t97.5 99.5t111.5 39q23 0 56 -11.5t63.5 -28t52 -34.5t21.5 -30
q0 -8 -10 -10t-45 -5q-113 -4 -194 -37t-136 -96q-35 -42 -35 -77q0 -16 14.5 -32t37.5 -30.5t51 -26.5t56 -20.5t52.5 -13.5t39.5 -5q22 0 41 3.5t43.5 14.5t60 30.5l89.5 50.5l79 45l52 28.5t30.5 15t13.5 4.5q13 0 13 -14q0 -7 -4 -11l-99 -145q-60 -32 -124.5 -72
t-127.5 -86t-120.5 -96t-102.5 -102q-36 -41 -64 -87.5t-48 -94.5t-30.5 -95.5t-10.5 -92.5q0 -115 55.5 -210t155 -163t238 -105.5t303.5 -37.5q24 0 52.5 0.5t69.5 2l98.5 3.5t139.5 6l63.5 3.5t42.5 1.5q17 0 17 -10q0 -6 -12.5 -16.5t-34.5 -23.5t-50.5 -26.5
t-61.5 -26.5q-216 -88 -429 -88q-92 0 -183.5 16t-174.5 47.5t-154.5 79.5t-124 112t-82 144.5t-29.5 177.5q0 81 24 176t64 188.5t91.5 177.5t106.5 143z" />
    <glyph glyph-name="uniFECE" unicode="&#x63a;" horiz-adv-x="990" arabic-form="final" 
d="M452 1158q77 -78 147 -117q-18 -19 -29.5 -33.5t-21.5 -30t-21 -35l-27 -48.5q-32 28 -71 54l-88 56q47 59 72.5 95.5t38.5 58.5zM633 366q23 -27 45 -44t58.5 -27t95.5 -13.5t158 -3.5h10q15 0 22.5 -27t7.5 -59.5t-7.5 -59.5t-22.5 -27h-30q-82 0 -141.5 5.5t-103 16.5
t-74 28t-54.5 40q-37 38 -87 120q-57 -31 -102.5 -61t-82.5 -61.5t-67.5 -65.5t-57.5 -73q-101 -147 -101 -317q0 -234 186.5 -359.5t559.5 -125.5q97 0 190 7t184 21q10 2 25.5 4t30.5 2q14 0 24 -3.5t10 -13.5q0 -6 -21.5 -21.5t-66 -36.5t-111.5 -46t-159 -50
q-40 -11 -70.5 -17.5t-57.5 -10t-53 -5t-56 -1.5q-166 0 -298.5 38.5t-224.5 112t-141.5 179.5t-49.5 240q0 235 138 448q20 32 50 70.5t63.5 76.5l68 73.5t62.5 61.5q-23 17 -40.5 28t-35.5 18t-40 10.5t-55 4.5q81 220 308 220q51 0 95 -11.5t76.5 -33t51.5 -52t19 -67.5
q0 -34 -23 -59t-74 -55z" />
    <glyph glyph-name="uniFECF" unicode="&#x63a;" horiz-adv-x="1100" arabic-form="initial" 
d="M415 1366q77 -77 146 -116l-28.5 -34.5t-21.5 -29.5t-21 -35l-27 -50q-32 29 -70 55.5t-88 55.5q48 59 72 95.5zM897 433q-47 -37 -304 -154l-165 -72t-136.5 -50t-129 -32t-142.5 -20h-30q-15 0 -22.5 27t-7.5 59.5t7.5 59.5t22.5 27h10q72 0 137.5 10t110.5 31l-30 29
t-29.5 36t-22.5 44t-9 52q0 22 9 51.5t24 62t35 66t42 61.5q127 160 266 160q118 0 222 -118q27 -30 27 -38q0 -12 -13 -12q-5 0 -9.5 1t-8.5 2q-69 22 -142 22q-61 0 -119 -14.5t-102.5 -35.5t-71.5 -44.5t-27 -41.5q0 -24 27 -53.5t65.5 -55t80 -43t70.5 -17.5
q26 0 61.5 10t82.5 30t107 50.5l136 70.5q1 -32 -5 -63.5t-12 -66.5z" />
    <glyph glyph-name="uniFED0" unicode="&#x63a;" horiz-adv-x="870" arabic-form="medial" 
d="M352 1245q39 -39 76 -68t71 -49q-18 -19 -29.5 -33.5t-21.5 -30t-21 -35l-27 -48.5q-32 29 -70 54l-88 56q47 59 72 95.5t38 58.5zM348 377q-30 42 -69 67t-102 39q-8 8 -8 16q0 7 4 17.5t11 24.5q31 72 98.5 111t163.5 39q58 0 109.5 -12t90 -33.5t61 -51.5t22.5 -66
q0 -19 -6 -36.5t-21.5 -36t-42 -39.5t-66.5 -48q38 -28 71 -46t65 -27.5t66 -13t75 -3.5h10q15 0 22.5 -27t7.5 -59.5t-7.5 -59.5t-22.5 -27h-30q-64 0 -111.5 14.5t-83 36.5t-62 48l-49 48t-43.5 36.5t-45 14.5q-16 0 -40.5 -14.5t-55.5 -36.5l-69 -48t-81 -48t-90.5 -36.5
t-99.5 -14.5h-30q-15 0 -22.5 27t-7.5 59.5t7.5 59.5t22.5 27h10q71 0 122 6.5t91 19t72 31t63 42.5z" />
    <glyph glyph-name="afii57441" unicode="&#x641;" horiz-adv-x="1734" arabic-form="isolated" 
d="M1248 1367q79 -78 147 -116q-18 -19 -29.5 -33.5t-21 -30t-20.5 -35.5l-27 -51q-34 29 -71 57t-88 55q47 59 72 95.5t38 58.5zM1554 498q0 -96 -27.5 -165t-83 -116.5t-138 -75.5t-192.5 -43t-246.5 -19.5t-300.5 -4.5q-66 0 -134 5t-131 18t-118 35t-95.5 56.5t-64 82.5
t-23.5 112q0 63 16 118t37.5 95.5t43.5 63.5t34 23q13 0 13 -14q0 -8 -6 -17q-26 -35 -37 -62t-11 -59q0 -63 40.5 -113.5t110.5 -85.5t164.5 -53.5t201.5 -18.5q191 0 330 7.5t238 21.5t163 34t104 45q19 11 29 18t15 15t6 19t1 28q0 38 -13.5 59.5t-29.5 35.5
q-30 -48 -75.5 -79t-111.5 -31q-33 0 -55.5 6t-36 20.5t-19.5 40t-6 64.5q0 31 7 69t19 77.5t28.5 77t36 67t41.5 47.5t44 18q32 0 72 -31.5t75.5 -88t60 -133.5t24.5 -169zM1371 648q0 17 -11 35t-25.5 32t-27.5 23t-17 9q-6 0 -16.5 -14.5t-20 -35.5t-17 -44t-7.5 -40
q0 -3 7 -8t17.5 -9.5t22 -8t19.5 -3.5q12 0 25.5 5t25 14t18.5 20.5t7 24.5z" />
    <glyph glyph-name="uniFED2" unicode="&#x641;" horiz-adv-x="1930" arabic-form="final" 
d="M1372 500q0 -16 15.5 -36.5t36.5 -38.5t43 -30t35 -12q7 0 33 5t54 18t50 34t22 54q0 27 -9.5 51t-25.5 43t-38 30t-46 11q-22 0 -51 -10.5t-55.5 -28t-45 -41t-18.5 -49.5zM1910 105q-96 0 -177 17t-144 38t-105 38t-60 17q-19 0 -44.5 -10.5l-64 -26t-93 -34t-132 -34
t-181.5 -26t-241 -10.5q-76 0 -155 5t-153 18.5t-139.5 38t-114.5 63t-77.5 93.5t-28.5 129q0 57 15.5 112.5t36 99t40 70.5t28.5 27q10 0 10 -11q0 -9 -6 -25t-13.5 -38t-14 -49t-6.5 -58q0 -64 38 -110.5t97.5 -78.5t133 -51.5t144.5 -30.5t132 -14.5t95 -3.5
q130 0 235 6.5t179.5 16.5t114.5 22t40 24q0 17 -5 32.5t-5 32.5q0 52 20 105t52 103t72.5 93.5t80 76t75 51t58.5 18.5t41 -22.5t31 -57t19.5 -76.5t6.5 -80q0 -60 -17 -109t-37 -85t-37 -59.5t-17 -33.5t23.5 -18t64 -12.5t93.5 -7t112 -2.5h10q15 0 22.5 -27t7.5 -59.5
t-7.5 -59.5t-22.5 -27h-30zM1495 1351q45 -43 80 -70.5t67 -45.5q-17 -19 -28 -32.5t-21 -29t-21 -35.5l-28 -51q-35 29 -72.5 55t-86.5 55q47 59 72 95.5t38 58.5z" />
    <glyph glyph-name="uniFED3" unicode="&#x641;" horiz-adv-x="726" arabic-form="initial" 
d="M253 1356q78 -80 146 -118l-27.5 -33t-22 -29.5t-21.5 -35t-27 -50.5q-32 29 -70 55.5t-88 55.5q22 27 41.5 53.5l34.5 48t24 36t10 17.5zM363 631q0 18 -11 35.5t-25.5 31.5t-27.5 23t-17 9q-6 0 -16.5 -14.5t-20 -35t-17 -43.5t-7.5 -41q0 -13 14 -19.5t34 -6.5
q15 0 32 4t30.5 11.5t22.5 19t9 26.5zM0 278q9 0 48.5 1t93.5 5.5t114.5 14t111 26.5t84 43.5t33.5 64.5t-13.5 59.5t-29.5 34.5q-32 -48 -76.5 -79t-110.5 -31q-33 0 -55.5 5.5t-36.5 20.5t-20 40t-6 64q0 31 7 69.5t19 78t29 77t36.5 67t41 47.5t43.5 18q32 0 72.5 -32
t76 -88t60 -133.5t24.5 -168.5q0 -85 -26.5 -146t-70 -103t-99 -67t-114 -38.5t-115 -18t-101.5 -4.5h-30q-15 0 -22.5 27t-7.5 59.5t7.5 59.5t22.5 27h10z" />
    <glyph glyph-name="uniFED4" unicode="&#x641;" horiz-adv-x="860" arabic-form="medial" 
d="M424 1351q45 -43 80 -70.5t67 -45.5q-17 -19 -28 -32.5t-21 -29t-21 -35.5l-28 -51q-35 29 -72.5 55t-86.5 55q47 59 72 95.5t38 58.5zM295 500q0 -16 16 -36.5t37.5 -38.5t43 -30t32.5 -12q8 0 34 5t54.5 18t50.5 34t22 54q0 27 -9.5 51t-26 43t-38.5 30t-46 11
q-22 0 -51.5 -10.5t-55.5 -28t-44.5 -41t-18.5 -49.5zM0 278q29 0 67 3.5t72.5 10t58.5 16t24 21.5q0 17 -4.5 32.5t-4.5 32.5q0 52 20 105t52 103t72 93.5t80 76t75.5 51t58.5 18.5t41 -22.5t30.5 -57t19 -76.5t6.5 -80q0 -60 -17 -109t-37 -85t-37 -59.5t-17 -33.5
t26.5 -18t69 -12.5t96.5 -7t108 -2.5h10q15 0 22.5 -27t7.5 -59.5t-7.5 -59.5t-22.5 -27h-30q-141 0 -228.5 17.5t-134.5 39.5q-48 22 -77.5 37.5t-51.5 15.5q-14 0 -44.5 -17t-73.5 -38t-96.5 -38t-113.5 -17h-30q-15 0 -22.5 27t-7.5 59.5t7.5 59.5t22.5 27h10z" />
    <glyph glyph-name="afii57442" unicode="&#x642;" horiz-adv-x="1311" arabic-form="isolated" 
d="M1021 459q-5 -3 -10 -7l-11 -8.5t-14 -11.5q-35 -35 -67.5 -49t-74.5 -14q-39 0 -73.5 12.5t-59.5 34.5t-39.5 52t-14.5 65q0 19 6 46.5t16.5 59t25.5 64t32 61.5q70 131 146 131q31 0 61 -22.5t57.5 -61t51 -88.5t41 -104.5t27.5 -110.5t10 -105q0 -89 -26.5 -169
t-73.5 -148t-111.5 -122.5t-140.5 -92.5t-160.5 -58.5t-171.5 -20.5q-213 0 -330 93.5t-117 279.5q0 69 20 146t58 151q31 60 61 96.5t49 36.5q8 0 12 -5t4 -12q0 -3 -0.5 -5.5t-3 -6.5l-7 -11t-13.5 -19q-19 -28 -35.5 -61t-28.5 -68t-18.5 -69t-6.5 -64q0 -66 24.5 -120.5
t70.5 -94.5t112 -62t149 -22q67 0 139 15t141 41t131.5 61t109.5 74.5t74.5 81.5t27.5 82q0 17 -5 39t-12.5 42t-16 34t-15.5 14zM936 602q-42 92 -96 92q-12 0 -25.5 -6t-25 -15.5t-18.5 -21.5t-7 -24q0 -23 23 -40t57 -17q48 0 92 32zM687 1427q34 -29 65 -51.5t70 -45.5
q23 29 42.5 58t38.5 61q36 -29 72.5 -54t78.5 -50q-26 -28 -50 -62.5t-46 -78.5q-63 60 -132 95q-17 -21 -36 -53.5t-39 -75.5q-19 20 -59.5 51.5t-97.5 68.5q58 71 93 137z" />
    <glyph glyph-name="uniFED6" unicode="&#x642;" horiz-adv-x="1160" arabic-form="final" 
d="M923 266q-16 123 -106 123q-29 0 -49 -16t-20 -38q0 -12 9.5 -24.5t30 -22.5t54 -16t81.5 -6zM658 1115q35 -29 66 -51t70 -47q23 29 43 58t39 62q36 -30 72 -54.5t79 -49.5q-53 -54 -98 -140q-31 29 -63.5 52.5t-67.5 41.5q-33 -41 -76 -129q-19 21 -59 51.5t-97 69.5
q29 35 52 69.5t40 66.5zM937 105q-142 0 -207 33t-65 108q0 97 88 213q62 83 112 83q27 0 49.5 -15t42 -47.5t37 -82.5t34.5 -119h142q15 0 22.5 -27t7.5 -59.5t-7.5 -59.5t-22.5 -27h-158q-3 -78 -31.5 -145.5t-75.5 -123t-108.5 -98.5t-130 -72.5t-140.5 -45t-140 -15.5
q-78 0 -148 20.5t-123 62.5t-84 106t-31 152q0 60 16.5 131t51.5 154q11 24 24.5 45t26 36t23.5 23.5t17 8.5q10 0 10 -10q0 -3 -0.5 -6.5t-3.5 -10.5t-9.5 -19t-18.5 -32q-37 -62 -53 -116t-16 -101q0 -71 33 -122t88 -84.5t126 -49.5t147 -16q51 0 105.5 8.5t107 26.5
t99.5 45t83 63t57.5 82.5t22.5 102.5z" />
    <glyph glyph-name="uniFED7" unicode="&#x642;" horiz-adv-x="726" arabic-form="initial" 
d="M148 1317q34 -28 65.5 -49.5l71.5 -47.5q23 30 42 59t37 61q46 -37 80.5 -59.5t71.5 -43.5q-54 -57 -97 -143q-31 29 -63 53.5t-67 43.5q-18 -22 -37.5 -54t-39.5 -75q-9 11 -22 22.5t-32 25l-44 31l-59 40.5q61 73 93 136zM363 631q0 18 -11 35.5t-25.5 31.5t-27.5 23
t-17 9q-6 0 -16.5 -14.5t-20 -35t-17 -43.5t-7.5 -41q0 -13 14 -19.5t34 -6.5q15 0 32 4t30.5 11.5t22.5 19t9 26.5zM0 278q9 0 48.5 1t93.5 5.5t114.5 14t111 26.5t84 43.5t33.5 64.5t-13.5 59.5t-29.5 34.5q-32 -48 -76.5 -79t-110.5 -31q-33 0 -55.5 5.5t-36.5 20.5
t-20 40t-6 64q0 31 7 69.5t19 78t29 77t36.5 67t41 47.5t43.5 18q32 0 72.5 -32t76 -88t60 -133.5t24.5 -168.5q0 -85 -26.5 -146t-70 -103t-99 -67t-114 -38.5t-115 -18t-101.5 -4.5h-30q-15 0 -22.5 27t-7.5 59.5t7.5 59.5t22.5 27h10z" />
    <glyph glyph-name="uniFED8" unicode="&#x642;" horiz-adv-x="860" arabic-form="medial" 
d="M278 1274q34 -28 65.5 -50.5t71.5 -45.5q23 29 42 58l38 61q10 -9 26.5 -21.5t37.5 -26.5l43.5 -28.5l44.5 -27.5q-52 -55 -98 -141q-60 57 -130 95q-35 -43 -76 -130q-10 12 -29 28t-41.5 33t-46 33t-41.5 27q59 69 93 136zM295 500q0 -16 16 -36.5t37.5 -38.5t43 -30
t32.5 -12q8 0 34 5t54.5 18t50.5 34t22 54q0 27 -9.5 51t-26 43t-38.5 30t-46 11q-22 0 -51.5 -10.5t-55.5 -28t-44.5 -41t-18.5 -49.5zM0 278q29 0 67 3.5t72.5 10t58.5 16t24 21.5q0 17 -4.5 32.5t-4.5 32.5q0 52 20 105t52 103t72 93.5t80 76t75.5 51t58.5 18.5t41 -22.5
t30.5 -57t19 -76.5t6.5 -80q0 -60 -17 -109t-37 -85t-37 -59.5t-17 -33.5t26.5 -18t69 -12.5t96.5 -7t108 -2.5h10q15 0 22.5 -27t7.5 -59.5t-7.5 -59.5t-22.5 -27h-30q-141 0 -228.5 17.5t-134.5 39.5q-48 22 -77.5 37.5t-51.5 15.5q-14 0 -44.5 -17t-73.5 -38t-96.5 -38
t-113.5 -17h-30q-15 0 -22.5 27t-7.5 59.5t7.5 59.5t22.5 27h10z" />
    <glyph glyph-name="afii57443" unicode="&#x643;" horiz-adv-x="1252" arabic-form="isolated" 
d="M25 335l48.5 -24t41.5 -15t57.5 -9.5t94.5 -7.5q5 0 27.5 -0.5t50 -1l55 -1t40.5 -0.5q156 0 262 3.5t170.5 13.5t92 29.5t27.5 50.5q0 27 -13 85l-24 116l-24.5 115.5l-25.5 123.5l-27.5 139.5l-31 165t-34.5 197.5q-5 25 -9.5 43.5t-10 33.5t-11.5 28t-14 26
q27 28 53.5 60t55.5 76q35 -60 68 -109t61 -71q-40 -19 -54.5 -49t-14.5 -86q0 -112 64 -374l32.5 -128.5t22.5 -97.5t13 -90.5t4 -107.5q0 -71 -12 -134t-36 -111t-59.5 -79.5t-83.5 -39.5q-13 -2 -47.5 -4.5t-78 -4l-89.5 -3t-82 -1.5l-254 -3q-55 0 -102.5 0.5t-88 5.5
t-75 18t-64.5 37zM491 1250l15 -122q-63 -15 -97.5 -37t-34.5 -45q0 -7 2.5 -12.5t10 -10.5t22 -10l37.5 -13q68 -22 95 -43t27 -52q0 -33 -18.5 -73.5t-48.5 -76.5t-67.5 -60.5t-75.5 -24.5q-34 0 -86 17.5t-106 48.5l3 27q12 0 23.5 -0.5t22.5 -0.5q51 0 94 4.5t74.5 13
t49 20.5t17.5 27q-1 6 -4.5 9.5t-13.5 6.5t-27.5 7.5l-46.5 12.5q-105 32 -105 81q0 37 22.5 85.5t57 94t76.5 80.5t82 46z" />
    <glyph glyph-name="uniFEDA" unicode="&#x643;" horiz-adv-x="1670" arabic-form="final" 
d="M1401 364l-28 -2q-25 -67 -47 -111.5t-45 -74t-49 -45.5t-58 -26q-38 -11 -96 -19.5t-138 -15.5q-157 -12 -360 -12q-293 0 -436.5 78.5t-143.5 238.5q0 44 13.5 94.5t33.5 93.5t43 72t42 29q12 0 12 -12q0 -11 -13 -27q-42 -58 -42 -107q0 -58 35 -107.5t103.5 -86
t170.5 -57t236 -20.5q127 0 222 3t164 9.5t116 16t79 22.5q72 30 103.5 84.5t31.5 145.5l-4 378q-9 99 -15.5 180.5l-11 140t-6.5 90.5l-2 32l102 132l3 -125q0 -42 2.5 -105.5t6.5 -136t9 -148t10 -142t10 -118t8 -75.5q11 -84 20.5 -142.5t21 -98t25.5 -62t33.5 -33.5
t46 -14t61.5 -3h10q15 0 22.5 -27t7.5 -59.5t-7.5 -59.5t-22.5 -27h-30q-46 0 -84.5 8.5t-69 34.5t-53.5 73t-39 123zM880 1250l15 -122q-63 -15 -98 -37t-35 -45q0 -7 2.5 -12.5t10.5 -10.5t22.5 -10l37.5 -13q67 -23 94.5 -43.5t27.5 -51.5q0 -33 -19 -73.5t-49 -76.5
t-67.5 -60.5t-74.5 -24.5q-35 0 -86.5 17.5t-106.5 48.5l4 27q11 0 23 -0.5t23 -0.5q51 0 94 4.5t74.5 13t49 20.5t17.5 27q-1 6 -5 9.5t-14 6.5t-27.5 7.5t-45.5 12.5q-105 31 -105 81q0 37 22.5 85.5t57 94t76.5 80.5t82 46z" />
    <glyph glyph-name="uniFEDB" unicode="&#x643;" horiz-adv-x="1088" arabic-form="initial" 
d="M21 922q0 34 12 66t38.5 64.5t67.5 65.5t99 70q181 113 463 231l147 60.5l91.5 36t56 22t39.5 17.5l-109 -215q-100 -26 -223 -73t-281 -121q-66 -31 -124 -62t-103 -59.5t-74 -53t-37 -41.5q5 -14 22 -23t53 -24q54 -23 93.5 -42t63.5 -34q97 -57 165 -144
q98 -122 98 -265q0 -74 -27 -129t-78.5 -91.5t-126.5 -54.5t-170 -18h-187q-15 0 -22.5 27t-7.5 59.5t7.5 59.5t22.5 27h10q91 0 149 0.5t97 3t65.5 6.5t54.5 11q29 8 56.5 20.5t48.5 27t34 28.5t13 24q0 19 -16.5 44.5t-44 55t-62.5 60.5t-73 59.5t-75 52t-68 38.5l-67 31
q-51 25 -71 67t-20 115z" />
    <glyph glyph-name="uniFEDC" unicode="&#x643;" horiz-adv-x="1100" arabic-form="medial" 
d="M75 105h-85q-15 0 -22.5 27t-7.5 59.5t7.5 59.5t22.5 27h10q36 0 83 2t97.5 8t99.5 17.5t87.5 30.5t62 47t23.5 66q0 28 -8 50.5t-27 43t-51 40.5t-81 42l-86 39q-50 23 -84 54.5t-55 66.5t-30.5 70.5t-9.5 66.5q0 34 12 66t38.5 64.5t67.5 65.5t99 70q181 113 463 231
l147 60.5l91.5 36t56 22t39.5 17.5l-109 -215q-100 -26 -223 -73t-281 -121q-72 -33 -134 -67t-108 -64t-72 -55t-26 -40q0 -18 42.5 -40t111.5 -50q76 -36 149 -90.5t144 -116l141 -123t140.5 -111t142.5 -80.5t147 -31h10q15 0 22.5 -27t7.5 -59.5t-7.5 -59.5t-22.5 -27
h-30q-76 0 -152.5 37t-148 94.5t-135 126t-113.5 131.5q-13 -99 -37 -172t-73.5 -121t-132.5 -72t-213 -24z" />
    <glyph glyph-name="afii57444" unicode="&#x644;" horiz-adv-x="1116" arabic-form="isolated" 
d="M936 1246q-42 -27 -64.5 -66t-22.5 -87q0 -11 3 -28l7 -41q35 -203 52 -377.5t17 -324.5q0 -121 -44.5 -215.5t-120.5 -159t-177.5 -98t-214.5 -33.5q-75 0 -142 26t-118 71.5t-81 106t-30 129.5q0 61 20.5 133.5t62.5 157.5q29 58 54.5 92t38.5 34q11 0 11 -13
q0 -9 -19 -50q-38 -88 -58 -153.5t-20 -110.5q0 -51 20.5 -95t58.5 -76.5t92.5 -51t122.5 -18.5q45 0 105 10t121.5 29.5t118 48.5t95.5 68q21 21 29 53t8 70q0 27 -3 55.5t-6.5 56t-7.5 54t-6 48.5q-12 115 -26.5 225t-29 203.5t-27.5 164t-21 106.5q-5 20 -11.5 42.5
t-17.5 48.5l112 151q37 -113 119 -186z" />
    <glyph glyph-name="uniFEDE" unicode="&#x644;" horiz-adv-x="1160" arabic-form="final" 
d="M894 1435q2 -85 5.5 -173.5t8.5 -174.5t11.5 -167t13.5 -152t14 -128.5t13 -95.5q14 -83 28.5 -135t36.5 -81t54 -39.5t81 -10.5h10q15 0 22.5 -27t7.5 -59.5t-7.5 -59.5t-22.5 -27h-30q-79 0 -124 37.5t-74 107.5q-6 -46 -7 -108.5t-1 -128t-1.5 -126t-8.5 -102.5
q-17 -101 -71 -176.5t-131 -125.5t-171 -75t-192 -25q-79 0 -145 24t-113.5 68t-74 106t-26.5 138q0 36 9 82.5t24 95t35.5 97t44.5 88.5q70 116 91 116q12 0 12 -13q0 -15 -40 -95q-53 -107 -77.5 -179.5t-24.5 -129.5q0 -103 87.5 -160.5t245.5 -57.5q79 0 160 22
t147 59.5t107.5 88t41.5 107.5q0 4 -1 21.5t-2 39.5l-2 43.5t-2 34.5q-3 79 -6 140l-5.5 114l-5 102t-4.5 104.5l-4.5 122t-5.5 154.5l-10.5 178t-7.5 128l-5 91.5t-3.5 68.5t-2.5 59t-2 62q12 17 22 29.5t20.5 27l24 32z" />
    <glyph glyph-name="uniFEDF" unicode="&#x644;" horiz-adv-x="553" arabic-form="initial" 
d="M373 1246q-42 -27 -64.5 -66t-22.5 -87q0 -11 3 -28l7 -41q14 -77 22.5 -133t14.5 -100.5t10.5 -83.5l9.5 -81q1 -7 2.5 -25l3 -37t2.5 -35t1 -21q0 -38 -7.5 -91t-22 -104t-35.5 -93t-48 -57q-22 -15 -51 -25.5t-59.5 -18t-61.5 -11t-57 -3.5h-30q-15 0 -22.5 27
t-7.5 59.5t7.5 59.5t22.5 27h10q99 0 154.5 7.5t83 25.5t34 47t8.5 71q-1 30 -7 85l-14 123.5t-18.5 146t-22.5 152t-24 141t-23 113.5q-5 20 -11.5 42.5t-17.5 48.5l112 151q37 -113 119 -186z" />
    <glyph glyph-name="uniFEE0" unicode="&#x644;" horiz-adv-x="550" arabic-form="medial" 
d="M176 1303q26 35 55.5 68.5t64.5 64.5q-1 -26 -1 -52v-52q0 -79 2.5 -159.5t8.5 -166t15 -177.5t21 -193q14 -84 19.5 -150.5t22 -112.5t53.5 -70.5t113 -24.5h10q15 0 22.5 -27t7.5 -59.5t-7.5 -59.5t-22.5 -27h-30q-54 0 -91 15.5t-65 45.5t-49.5 74.5t-44.5 102.5
q-34 -66 -62 -111t-57 -73.5t-62.5 -41t-78.5 -12.5h-30q-15 0 -22.5 27t-7.5 59.5t7.5 59.5t22.5 27h10q75 0 122 12.5t73.5 41t36 74t9.5 110.5q0 105 -5.5 216t-17.5 230q-5 59 -10.5 107.5t-11 89.5l-10.5 76.5t-10 67.5z" />
    <glyph glyph-name="afii57445" unicode="&#x645;" horiz-adv-x="817" arabic-form="isolated" 
d="M98 392q-3 14 -3 30q0 32 11.5 67t30 69t42.5 65t49 54t49.5 37t44.5 14q75 0 159 -69t156 -210l-56 -181q-41 8 -78.5 12t-73.5 4q-74 0 -139 -13t-113.5 -36t-76.5 -56t-28 -72v-16q0 -6 1 -10.5l3.5 -16t8.5 -34t15.5 -64l24 -106.5l34.5 -161l18.5 -106l18 -103.5
l14 -79.5t5.5 -35q3 -22 5 -48.5t2 -57.5q0 -91 -11 -129.5t-21 -38.5q-7 0 -11 13t-10 56q-7 51 -17 108.5t-25.5 133l-37.5 175l-54 234.5q-12 51 -19 84t-10.5 58.5t-4.5 48.5t-1 53q0 44 5.5 84t17 79t30 79.5t45.5 84.5zM184 382q45 29 97 45t109 16q21 0 43 -3
q-40 57 -84.5 85t-78.5 28q-23 0 -41 -10t-30.5 -26.5t-19 -37.5t-6.5 -43q0 -10 1 -19t5 -19z" />
    <glyph glyph-name="uniFEE2" unicode="&#x645;" horiz-adv-x="920" arabic-form="final" 
d="M319 428q35 39 51.5 54.5t28.5 15.5q10 0 31.5 -16.5t44.5 -38l43.5 -41t27.5 -25.5q44 -32 91.5 -51.5t95.5 -30t96 -14t91 -3.5h10q15 0 22.5 -27t7 -59.5t-9.5 -59.5t-26 -27h-24q-36 0 -70 1t-68.5 7t-71 19t-77.5 37q-2 2 -4.5 2h-4.5q-17 0 -17 -31l-3 -55
q0 -35 -7.5 -66t-21 -54t-31.5 -36.5t-40 -13.5q-45 0 -80.5 51.5t-61.5 165.5q-6 34 -12 52.5t-12.5 27.5t-15 10.5t-20.5 1.5q-24 0 -61 -18.5t-82 -52.5q-38 -27 -53.5 -55.5t-15.5 -63.5q2 -60 25 -179l24 -120q18 -89 30 -163.5t19 -135.5t11 -118.5t4 -112.5
q0 -56 -5.5 -78t-18.5 -22q-23 0 -47 121l-30 156l-59 357q-13 76 -17 136t-6 105q0 92 18.5 159.5t60.5 121.5q78 105 240 167z" />
    <glyph glyph-name="uniFEE3" unicode="&#x645;" horiz-adv-x="865" arabic-form="initial" 
d="M444 578q-11 0 -23.5 -9t-23 -23t-17.5 -30.5t-7 -31.5q0 -21 13 -40t35.5 -33.5t52 -23t62.5 -8.5q21 0 30 5.5t9 21.5q0 22 -13.5 51.5t-33 56.5t-42.5 45.5t-42 18.5zM684 300q-106 -109 -152 -109q-12 0 -22 2t-23.5 8t-33 17.5l-50.5 30.5q-76 48 -115 48
q-19 0 -36 -14t-33.5 -35.5l-35 -46.5t-42 -46.5t-53 -35.5t-68.5 -14h-30q-16 0 -24 27t-8 59.5t7.5 59.5t24.5 27h10q63 0 104.5 8.5t70.5 26t49.5 45t41.5 65.5l59.5 110.5t39 68t26.5 39.5t22 24q46 44 107 44q47 0 78.5 -29t51 -80.5t27.5 -122.5t8 -154z" />
    <glyph glyph-name="uniFEE4" unicode="&#x645;" horiz-adv-x="990" arabic-form="medial" 
d="M479 496q-16 0 -36.5 -14.5t-38.5 -35t-30.5 -41t-12.5 -32.5q0 -4 11.5 -16t29.5 -27.5t40.5 -32t44 -30t40.5 -22.5t30 -9q23 0 23 54q0 36 -7.5 72.5t-20.5 66t-31.5 48.5t-41.5 19zM-10 105q-10 1 -16.5 14t-10 32t-3.5 41.5t3.5 41.5t10 31.5t16.5 12.5h10
q63 0 106 5.5t75.5 21.5t58.5 43.5t55 70.5q35 52 61.5 87t47.5 56t38 29.5t33 8.5t35 -9t42.5 -28t53 -49t67.5 -73q39 -45 72.5 -76t69 -50.5t77.5 -28t98 -8.5h10q15 0 22.5 -27t7.5 -59.5t-7.5 -59.5t-22.5 -27h-30q-37 0 -69.5 5.5t-63.5 17t-61 29.5t-62 44
q-14 -68 -34 -110t-58 -42q-16 0 -37 7t-50 23.5t-68 44t-92 68.5l-47 36t-32 22t-22 11t-16 3q-14 0 -28.5 -12t-30 -29.5l-33 -38t-39 -38t-48 -29.5t-59.5 -12h-30z" />
    <glyph glyph-name="afii57446" unicode="&#x646;" horiz-adv-x="1083" arabic-form="isolated" 
d="M654 672l60 171q33 -27 67 -89t61 -142t44 -168.5t17 -167.5q0 -101 -35.5 -187.5t-101 -150t-158.5 -99.5t-208 -36q-94 0 -168.5 23t-126 65t-78.5 100.5t-27 129.5q0 25 4 54t11.5 60t18 61.5t23.5 57.5q21 44 36 72t26 44t18 22t11 6q15 0 15 -16q0 -9 -3 -17
q-22 -58 -35.5 -97t-21 -66t-10 -45t-2.5 -36q0 -104 77.5 -164t232.5 -60q53 0 105 8.5t99 24t87 36.5t69.5 46t46 52.5t16.5 56.5q0 38 -13 91.5t-34.5 112t-49.5 117t-58 107.5zM339 1146q80 -79 147 -117q-17 -19 -28.5 -33.5t-21.5 -30t-21 -35l-28 -49.5
q-32 29 -70 54l-88 56q47 59 72 96t38 59z" />
    <glyph glyph-name="uniFEE6" unicode="&#x646;" horiz-adv-x="1160" arabic-form="final" 
d="M902 429q26 -49 49 -79t51.5 -46t66 -21t91.5 -5h10q15 0 22.5 -27t7.5 -59.5t-7.5 -59.5t-22.5 -27h-30q-41 0 -72 3.5t-57 11.5q0 -153 -42.5 -275.5t-123.5 -208t-197.5 -131t-265.5 -45.5q-80 0 -150 22t-121.5 65.5t-81 107.5t-29.5 148q0 67 20.5 140t58.5 136
q26 44 48.5 70t32.5 26q7 0 8.5 -3.5t1.5 -10.5q0 -2 -0.5 -4t-3.5 -7.5l-8.5 -15.5t-14.5 -28q-33 -65 -52 -126t-20 -102q0 -52 28.5 -95.5t78 -74.5t118 -48.5t147.5 -17.5q71 0 144.5 13.5t137 38.5t110 61t62.5 81q9 28 14 71t5 91q0 49 -4.5 95t-12.5 77l-54.5 56.5
t-40.5 54.5q23 38 47.5 74.5zM439 837q38 -39 75 -68t71 -49q-17 -19 -28.5 -33.5t-21.5 -29.5t-21 -35l-27 -50l-70.5 56t-87.5 55l71 95t39 59z" />
    <glyph glyph-name="uniFEE7" unicode="&#x646;" horiz-adv-x="560" arabic-form="initial" 
d="M116 1253q82 -84 149 -117l-27 -28t-23 -29.5t-22.5 -38l-27.5 -52.5q-33 28 -68.5 54.5t-77.5 48.5l-14 7q48 58 72.5 95t38.5 60zM-10 105q-10 0 -16.5 12.5t-10 32t-3.5 42t3.5 41.5t10 32t16.5 13h10q80 0 133.5 3t88 11t53 22t26.5 37q-17 53 -38 94.5t-56 85.5
l85 164q28 -46 45.5 -90.5t27 -84t12.5 -71.5t3 -55q0 -17 -8 -49t-20.5 -67t-29 -68t-34.5 -51q-10 -11 -28.5 -20.5t-49 -17t-77 -12t-113.5 -4.5h-30z" />
    <glyph glyph-name="uniFEE8" unicode="&#x646;" horiz-adv-x="500" arabic-form="medial" 
d="M116 1064q82 -84 149 -117l-27 -28t-23 -29.5t-22.5 -38l-27.5 -52.5q-33 28 -68.5 54.5t-77.5 48.5l-14 7q48 58 72.5 95t38.5 60zM-10 105q-15 0 -22.5 27t-7.5 59.5t7.5 59.5t22.5 27h10q25 0 61.5 6.5t76 21t77.5 38t65 57.5q25 31 38 31q9 0 14 -9.5t13 -36.5
q9 -28 25.5 -48.5t38 -34t45.5 -19.5t46 -6h10q15 0 22.5 -27t7.5 -59.5t-7.5 -59.5t-22.5 -27h-30q-60 0 -95.5 21.5t-56.5 48t-32.5 48t-22.5 21.5q-7 0 -29.5 -21.5t-56 -48t-76.5 -48t-91 -21.5h-30z" />
    <glyph glyph-name="afii57470" unicode="&#x647;" horiz-adv-x="628" arabic-form="isolated" 
d="M82 347q74 -63 154 -63q28 0 64.5 9t65.5 24q0 51 -16 89.5t-41 64t-55 38.5t-58 13q-40 0 -67 -41t-47 -134zM181 105q-33 0 -65.5 14.5t-58 40t-41.5 60t-16 75.5q0 103 57 250q70 181 153 181q44 0 86.5 -32.5t76 -84.5t54.5 -115.5t21 -125.5q0 -26 -2.5 -55.5
t-8 -56.5t-14.5 -48.5t-22 -30.5q-17 -12 -46 -24.5t-61 -23t-62.5 -17.5t-50.5 -7z" />
    <glyph glyph-name="uniFEEA" unicode="&#x647;" horiz-adv-x="650" arabic-form="final" 
d="M141 502q0 -15 50.5 -29t134.5 -14q17 0 27 2t15 7t6.5 15t1.5 25q0 44 -3.5 71.5t-9.5 43t-12.5 21.5t-12.5 6q-8 0 -25.5 -8.5t-39.5 -22.5t-45.5 -31t-42.5 -33.5t-31.5 -30.5t-12.5 -22zM392 393q-25 -18 -66 -63q-14 -16 -25 -26.5t-21 -16.5t-20 -8.5t-22 -2.5
q-48 0 -91 9t-75.5 23.5t-52 31.5t-19.5 32q0 56 31 114t80 109.5t108.5 91.5t117.5 60l-14 97l73 93l62 -410q14 -80 24.5 -128.5t19.5 -65.5q14 -26 47 -40.5t101 -14.5h10q15 0 22.5 -27t7.5 -59.5t-7.5 -59.5t-22.5 -27h-30q-53 0 -91 11.5t-65.5 43.5t-46.5 88t-35 145
z" />
    <glyph glyph-name="uniFEEB" unicode="&#x647;" horiz-adv-x="1075" arabic-form="initial" 
d="M425 427q8 0 25.5 6.5t35.5 17.5t31.5 25t13.5 28q0 22 -7.5 44.5t-19 41t-26 30t-29.5 11.5q-12 0 -38 -13.5t-52 -33.5t-45.5 -42t-19.5 -40q0 -8 17.5 -20.5t40.5 -24.5t44.5 -21t28.5 -9zM553 401q29 -12 66 -25t73.5 -23.5t68 -17t49.5 -6.5q23 0 23 16q0 15 -15 39
t-37.5 51t-50 54.5t-52 49t-42.5 35.5t-23 14q-18 0 -18 -37q0 -27 -10.5 -66t-31.5 -84zM308 737q36 170 112 170q23 0 54 -13.5t66 -36t72.5 -52t72 -62.5t65 -67t52.5 -65q93 -130 93 -245q0 -84 -34 -127t-97 -43q-29 0 -65 11t-79 29l-73.5 30t-53 18.5t-38.5 9
t-31 2.5q-26 0 -48.5 -14t-46.5 -35.5l-51.5 -46t-63.5 -46t-83.5 -35.5t-110.5 -14h-30q-15 0 -22.5 27t-7.5 59.5t7.5 59.5t22.5 27h10q65 0 110.5 3.5t77 10.5t52.5 17.5t37 23.5q-14 14 -22.5 25.5t-13.5 22.5t-6.5 22.5t-1.5 25.5q0 29 11 64.5t31 72.5t47.5 73
t59.5 66q-31 22 -74 32z" />
    <glyph glyph-name="uniFEEC" unicode="&#x647;" horiz-adv-x="870" arabic-form="medial" 
d="M633 -122q0 21 -17 42.5t-44.5 42t-61 38t-66 31t-61 21t-44.5 7.5q-28 0 -28 -24q0 -7 4 -22t11 -32.5t15 -35.5t16 -31q73 -121 153 -121q22 0 44 7t39.5 19t28.5 27t11 31zM350 345q37 12 77 30t85 43q48 26 68 45.5t20 42.5q0 15 -7.5 29.5t-19 26t-26.5 18.5t-30 7
q-38 0 -83 -43.5t-82 -131.5q-18 -40 -18 -56q0 -14 9 -14q3 0 7 3zM258 311q24 137 115 271q29 42 61 80t63 67t57 46t42 17q61 0 61 -198q0 -113 -56 -205.5t-153 -152.5l14 -18q62 22 105.5 34t84.5 18t87 7t111 1h30q15 0 22.5 -27t7.5 -59.5t-7.5 -59.5t-22.5 -27h-10
q-67 0 -129.5 0.5t-123.5 -17.5q63 -101 63 -195q0 -44 -14.5 -90.5t-41 -85t-62.5 -63.5t-78 -25q-48 0 -90.5 33.5t-75 89t-51 127t-18.5 148.5q0 19 3 44l-60 -5l-23 62q-21 -9 -36 -13.5t-30.5 -6.5t-34.5 -2.5t-48 -0.5h-30q-15 0 -22.5 27t-7.5 59.5t7.5 59.5t22.5 27
h10q52 0 92.5 3t71.5 8t54 10.5t40 11.5z" />
    <glyph glyph-name="afii57448" unicode="&#x648;" horiz-adv-x="876" arabic-form="isolated" 
d="M597 269q-6 0 -31 -25q-23 -23 -39.5 -31t-41.5 -8q-71 0 -111 42t-40 117q0 34 8 73t21.5 77t32 73.5t40.5 62.5t46 43t48 16q34 0 64 -28t52.5 -74t36 -106t13.5 -125q0 -122 -50 -260q-47 -136 -136 -249q-34 -45 -77 -82t-90 -63.5t-96 -41t-95 -14.5q-27 0 -59.5 8
t-67 23.5t-69.5 39t-68 53.5l-28.5 26t-9.5 16q0 5 6.5 10t13.5 5q8 0 26 -6l81.5 -25t50.5 -13.5t34.5 -5.5t33.5 -1q61 0 123.5 22.5t120 59.5t107.5 83.5t87 95.5t58.5 95.5t21.5 82.5q0 15 -5.5 24.5t-11.5 9.5zM608 396q-3 37 -14 65t-27 47t-34.5 28.5t-37.5 9.5
q-12 0 -23.5 -7.5t-20.5 -19.5t-14.5 -28t-5.5 -34q0 -74 104 -74q37 0 73 13z" />
    <glyph glyph-name="uniFEEE" unicode="&#x648;" horiz-adv-x="780" arabic-form="final" 
d="M594 284q-3 36 -12.5 62.5t-23.5 43t-31.5 24.5t-35.5 8q-28 0 -48 -26t-20 -63q0 -67 88 -67q44 0 83 18zM671 105q-15 -62 -30.5 -110t-31.5 -83q-31 -71 -70.5 -129t-87.5 -106q-71 -72 -149 -113t-147 -41q-25 0 -47.5 3.5t-44.5 11t-46 19.5t-52 29q-24 16 -45 32
t-36.5 30t-24.5 25t-9 17t5 10t12 4q12 0 30 -7l81 -25q33 -10 65 -15.5t63 -5.5q49 0 107.5 25t117 65.5t110.5 91.5t88 102q34 52 49 89.5t15 76.5v5l-46 -1q-63 0 -105.5 8t-67.5 25.5t-35.5 44t-10.5 63.5q0 112 86 239q35 50 64 75t56 25q20 0 43.5 -21.5t44 -61.5
t35.5 -97t18 -127h115q15 0 22.5 -27t7.5 -59.5t-7.5 -59.5t-22.5 -27h-119z" />
    <glyph glyph-name="afii57449" unicode="&#x649;" horiz-adv-x="1380" arabic-form="isolated" 
d="M1171 720q-32 14 -60.5 21t-54.5 7q-48 0 -106 -20t-109 -54q-159 -105 -159 -208q0 -55 47 -85.5t149 -42.5q97 -10 153.5 -22.5t86 -28t38 -35.5t8.5 -44q0 -22 -4 -58t-13.5 -75t-25 -75t-39.5 -58t-64 -49t-84.5 -53t-88 -48.5t-73.5 -34.5q-110 -45 -205 -68
t-186 -23q-98 0 -177.5 22.5t-136 69t-87 118.5t-30.5 171q0 49 10.5 103.5t27 107.5t37 102t41 86t39 59t30.5 22q17 0 17 -16q0 -5 -6.5 -21l-16 -38l-21 -48l-22 -49.5l-18.5 -42t-10 -27.5q-21 -70 -21 -131q0 -69 26 -124.5t74.5 -95t118 -60.5t157.5 -21q76 0 193 27
q111 26 196 59t142.5 66t87 63t29.5 51q0 15 -10.5 25t-34.5 16.5t-63.5 10t-97.5 4.5q-54 0 -101.5 13.5t-83 40t-56.5 65.5t-21 90q0 59 27.5 121.5t71 123t98.5 114.5t109.5 95t103 65t80.5 24q64 0 117 -47q0 -34 -7 -73.5t-22 -86.5z" />
    <glyph glyph-name="uniFEF0" unicode="&#x649;" horiz-adv-x="1310" arabic-form="final" 
d="M1320 278q15 0 22.5 -27t7.5 -59.5t-7.5 -59.5t-22.5 -27h-10q-114 0 -192 -3t-128.5 -8t-78 -11.5t-40.5 -13.5t-15 -14t-2 -12q0 -17 72 -34q82 -18 132.5 -31t78 -25t36.5 -24t9 -27q0 -39 -23 -86t-70 -94t-118 -91.5t-167 -79.5q-55 -20 -104.5 -35t-95.5 -24.5
t-89.5 -14t-87.5 -4.5q-20 0 -60.5 3t-88.5 10.5t-97 20t-86 31.5q-145 76 -145 251q0 66 20.5 139t58.5 139q15 26 29.5 47.5t28 37t24 24.5t17.5 9q17 0 17 -18q0 -6 -18 -35q-44 -66 -65 -126t-21 -114q0 -110 104.5 -171.5t322.5 -61.5q109 0 210 15.5t198 46.5
q40 13 73 25.5t57 24.5t37 21.5t13 16.5t-25.5 16t-63.5 19l-82 21.5t-82 23.5t-63.5 23.5t-25.5 21.5q0 26 11.5 58t30.5 66t44.5 67t53.5 61.5t57.5 50t56.5 31.5q5 2 23.5 3.5t45.5 2.5t60.5 1.5l67.5 1l66.5 1t58.5 0.5h30z" />
    <glyph glyph-name="uniFBE8" unicode="&#x649;" horiz-adv-x="560" arabic-form="initial" 
d="M-10 105q-10 0 -16.5 12.5t-10 32t-3.5 42t3.5 41.5t10 32t16.5 13h10q80 0 133.5 3t88 11t53 22t26.5 37q-17 53 -38 94.5t-56 85.5l85 164q28 -46 45.5 -90.5t27 -84t12.5 -71.5t3 -55q0 -17 -8 -49t-20.5 -67t-29 -68t-34.5 -51q-10 -11 -28.5 -20.5t-49 -17t-77 -12
t-113.5 -4.5h-30z" />
    <glyph glyph-name="uniFBE9" unicode="&#x649;" horiz-adv-x="500" arabic-form="medial" 
d="M-10 105q-15 0 -22.5 27t-7.5 59.5t7.5 59.5t22.5 27h10q25 0 61.5 6.5t76 21t77.5 38t65 57.5q25 31 38 31q9 0 14 -9.5t13 -36.5q9 -28 25.5 -48.5t38 -34t45.5 -19.5t46 -6h10q15 0 22.5 -27t7.5 -59.5t-7.5 -59.5t-22.5 -27h-30q-60 0 -95.5 21.5t-56.5 48t-32.5 48
t-22.5 21.5q-7 0 -29.5 -21.5t-56 -48t-76.5 -48t-91 -21.5h-30z" />
    <glyph glyph-name="afii57450" unicode="&#x64a;" horiz-adv-x="1380" arabic-form="isolated" 
d="M515 -446q35 -29 67 -51l70 -46q23 29 43 58.5t38 61.5q69 -57 151 -104q-26 -28 -50 -63t-47 -79q-31 29 -63 53.5t-67 42.5q-35 -42 -76 -129q-20 20 -60.5 52t-97.5 68q58 70 92 136zM1171 720q-32 14 -60.5 21t-54.5 7q-48 0 -106 -20t-109 -54q-159 -105 -159 -208
q0 -55 47 -85.5t149 -42.5q97 -10 153.5 -22.5t86 -28t38 -35.5t8.5 -44q0 -22 -4 -58t-13.5 -75t-25 -75t-39.5 -58t-64 -49t-84.5 -53t-88 -48.5t-73.5 -34.5q-110 -45 -205 -68t-186 -23q-98 0 -177.5 22.5t-136 69t-87 118.5t-30.5 171q0 49 10.5 103.5t27 107.5t37 102
t41 86t39 59t30.5 22q17 0 17 -16q0 -5 -6.5 -21l-16 -38l-21 -48l-22 -49.5l-18.5 -42t-10 -27.5q-21 -70 -21 -131q0 -69 26 -124.5t74.5 -95t118 -60.5t157.5 -21q76 0 193 27q111 26 196 59t142.5 66t87 63t29.5 51q0 15 -10.5 25t-34.5 16.5t-63.5 10t-97.5 4.5
q-54 0 -101.5 13.5t-83 40t-56.5 65.5t-21 90q0 59 27.5 121.5t71 123t98.5 114.5t109.5 95t103 65t80.5 24q64 0 117 -47q0 -34 -7 -73.5t-22 -86.5z" />
    <glyph glyph-name="uniFEF2" unicode="&#x64a;" horiz-adv-x="1310" arabic-form="final" 
d="M470 -637l65 -50.5t71 -46.5q23 30 42 59l38 61l26.5 -21t37 -27l43.5 -28.5t45 -26.5q-26 -28 -50.5 -63.5t-47.5 -79.5q-61 58 -130 97q-35 -43 -76 -130q-18 22 -59.5 52.5t-98.5 67.5q30 35 53.5 69.5t40.5 66.5zM1320 278q15 0 22.5 -27t7.5 -59.5t-7.5 -59.5
t-22.5 -27h-10q-114 0 -192 -3t-128.5 -8t-78 -11.5t-40.5 -13.5t-15 -14t-2 -12q0 -17 72 -34q82 -18 132.5 -31t78 -25t36.5 -24t9 -27q0 -39 -23 -86t-70 -94t-118 -91.5t-167 -79.5q-55 -20 -104.5 -35t-95.5 -24.5t-89.5 -14t-87.5 -4.5q-20 0 -60.5 3t-88.5 10.5
t-97 20t-86 31.5q-145 76 -145 251q0 66 20.5 139t58.5 139q15 26 29.5 47.5t28 37t24 24.5t17.5 9q17 0 17 -18q0 -6 -18 -35q-44 -66 -65 -126t-21 -114q0 -110 104.5 -171.5t322.5 -61.5q109 0 210 15.5t198 46.5q40 13 73 25.5t57 24.5t37 21.5t13 16.5t-25.5 16
t-63.5 19l-82 21.5t-82 23.5t-63.5 23.5t-25.5 21.5q0 26 11.5 58t30.5 66t44.5 67t53.5 61.5t57.5 50t56.5 31.5q5 2 23.5 3.5t45.5 2.5t60.5 1.5l67.5 1l66.5 1t58.5 0.5h30z" />
    <glyph glyph-name="uniFEF3" unicode="&#x64a;" horiz-adv-x="620" arabic-form="initial" 
d="M244 -120q35 -35 72.5 -64t82.5 -54q-29 -35 -50.5 -68.5t-39.5 -71.5q-32 29 -65.5 55t-69.5 44q-24 -29 -46 -59t-36 -64l-71.5 58t-81.5 48q28 34 53.5 69.5t44.5 74.5q25 -28 58.5 -52.5t71.5 -44.5q25 29 44.5 61.5t32.5 67.5zM-10 105q-15 0 -22.5 27t-7.5 59.5
t7.5 59.5t22.5 27h10q160 0 252 16.5t109 56.5q-17 53 -38 94.5t-56 85.5l85 164q28 -46 45.5 -90.5t27 -84t12.5 -71.5t3 -55q0 -17 -8 -49t-20.5 -67t-29 -68t-34.5 -51q-21 -22 -107 -38t-221 -16h-30z" />
    <glyph glyph-name="uniFEF4" unicode="&#x64a;" horiz-adv-x="560" arabic-form="medial" 
d="M244 -120q35 -35 72.5 -64t82.5 -54q-29 -35 -50.5 -68.5t-39.5 -71.5q-32 29 -65.5 55t-69.5 44q-24 -29 -46 -59t-36 -64l-71.5 58t-81.5 48q28 34 53.5 69.5t44.5 74.5q25 -28 58.5 -52.5t71.5 -44.5q25 29 44.5 61.5t32.5 67.5zM-10 105q-15 0 -22.5 27t-7.5 59.5
t7.5 59.5t22.5 27h10q47 0 96 6.5t94 21t84 38t66 57.5q25 31 38 31q9 0 14 -9.5t13 -36.5q9 -28 25.5 -48.5t38 -34t45.5 -19.5t46 -6h10q15 0 22.5 -27t7.5 -59.5t-7.5 -59.5t-22.5 -27h-30q-60 0 -95.5 21.5t-56.5 48t-32.5 48t-22.5 21.5q-7 0 -30.5 -21.5t-62.5 -48
t-94 -48t-126 -21.5h-30z" />
    <glyph glyph-name="uni0671" unicode="&#x671;" horiz-adv-x="403" arabic-form="isolated" 
d="M267 1692q0 45 -34 45q-63 0 -157 -112h90q51 0 76 17.5t25 49.5zM369 1692q0 -31 -15 -60.5t-41 -52.5t-61 -36.5t-75 -13.5h-191q-33 0 -33 -48q0 -8 1.5 -17.5t1.5 -17.5v-4.5t-1 -6.5q-58 58 -58 117q0 38 25.5 55.5t88.5 17.5q133 180 266 180q92 0 92 -113z
M50 1277l121 142q-6 -78 -6 -160q1 -51 4 -114.5t10 -141.5l13 -158l9 -75q11 -118 16.5 -212t5.5 -166q0 -66 -6 -121.5t-16.5 -96t-24 -63.5t-28.5 -23q-8 0 -14 10t-6 25q0 4 1.5 22.5t3 39.5t2.5 38.5t1 19.5q0 45 -5.5 100.5t-13.5 123.5l-10 76q-2 12 -2.5 30.5
t-4.5 44.5l-8 81q-4 23 -6.5 46.5t-4.5 49.5l-9 99q-4 32 -5.5 53.5t-3.5 34.5l-9 149q-3 56 -3 70l-1 47v29z" />
    <glyph glyph-name="uniFB51" unicode="&#x671;" horiz-adv-x="460" arabic-form="final" 
d="M270 1692q0 45 -34 45q-63 0 -157 -112h90q51 0 76 17.5t25 49.5zM372 1692q0 -31 -15 -60.5t-41 -52.5t-61 -36.5t-75 -13.5h-191q-33 0 -33 -48q0 -8 1.5 -17.5t1.5 -17.5v-4.5t-1 -6.5q-58 58 -58 117q0 38 22 55.5t66 17.5h26q133 180 266 180q92 0 92 -113zM50 1323
l109 122q0 -30 2 -73.5t4 -100.5l5 -114q3 -63 6.5 -100t3.5 -48l29 -428q5 -65 10.5 -108.5t15 -72t24 -47t36.5 -33.5q31 -22 74 -32t91 -10h10q8 0 13.5 -7.5t9 -19.5t5.5 -27.5t2 -31.5q0 -33 -7.5 -60t-22.5 -27h-30q-251 0 -296 180q-14 54 -21 178l-12 197l-10 129
q-5 61 -6 94.5t-2 38.5l-25 240q-2 25 -6.5 64.5z" />
    <glyph glyph-name="afii57511" unicode="&#x679;" horiz-adv-x="1768" arabic-form="isolated" 
d="M938 880q0 8 -17 16t-39 8q-43 0 -79.5 -23.5t-68.5 -69.5q29 3 64.5 11t66.5 18.5t52 21t21 18.5zM993 909q0 -40 -26.5 -73.5t-74 -57.5t-113.5 -37.5t-144 -13.5q-32 0 -52.5 2t-36 10.5t-29 25t-31.5 45.5v-1q-2 2 -6 7t-7 8q51 -8 81.5 -11.5t42.5 -3.5q32 0 52.5 4
t32 16t16 33t4.5 55q0 26 -2.5 58t-6.5 64.5t-9 63l-9 54t-7 38t-4 14.5v-1q0 31 34 84l57 -82q-14 -15 -21 -28t-7 -21q0 -3 1 -11t2.5 -18t2.5 -18.5t1 -13.5q4 -37 7 -75t3 -75q0 -30 -3 -56q110 107 179 107q34 0 53.5 -26t19.5 -66zM1499 825q42 -66 65.5 -132.5
t23.5 -140.5q0 -24 -11 -66.5t-28.5 -87.5t-40.5 -82.5t-47 -50.5q-60 -34 -151 -68t-205.5 -61.5t-250.5 -44.5t-288 -17q-66 0 -134 5t-131 18t-118 35t-95.5 56.5t-64 82.5t-23.5 112q0 63 16 118t37.5 95.5t43.5 63.5t34 23q13 0 13 -14q0 -8 -6 -17q-26 -35 -37 -62
t-11 -59q0 -63 40.5 -113.5t110.5 -85.5t164.5 -53.5t201.5 -18.5q104 0 211 12t207 30.5t187.5 41.5t153 45.5t103 42t37.5 30.5q0 17 -7.5 39.5t-20 47t-28 49t-30.5 44.5z" />
    <glyph glyph-name="uniFB67" unicode="&#x679;" horiz-adv-x="1690" arabic-form="final" 
d="M980 880q0 8 -17 16t-39 8q-43 0 -79.5 -23.5t-68.5 -69.5q29 3 64.5 11t66.5 18.5t52 21t21 18.5zM1035 909q0 -40 -26.5 -73.5t-74 -57.5t-113.5 -37.5t-144 -13.5q-32 0 -52.5 2t-36 10.5t-29 25t-31.5 45.5v-1q-2 2 -6 7t-7 8q51 -8 81.5 -11.5t42.5 -3.5
q32 0 52.5 4t32 16t16 33t4.5 55q0 26 -2.5 58t-6.5 64.5t-9 63l-9 54t-7.5 38l-3.5 14.5v-1q0 31 34 84l57 -82q-14 -15 -21 -28t-7 -21q0 -3 1 -11t2.5 -18t2.5 -18.5t1 -13.5q4 -37 7 -75t3 -75q0 -30 -3 -56q110 107 179 107q34 0 53.5 -26t19.5 -66zM1670 105
q-24 0 -57.5 2.5t-66 16.5t-58.5 44t-34 84q-2 0 -15.5 -15.5t-46 -39.5t-87.5 -51t-141 -51t-206.5 -39.5t-282.5 -15.5q-76 0 -155.5 7.5t-154.5 24.5t-141.5 45.5t-116 71t-78.5 100t-29 132.5q0 57 15.5 112.5t36 99t40 70.5t28.5 27q10 0 10 -11q0 -9 -6 -25t-13.5 -38
t-14 -49t-6.5 -58q0 -73 38 -125t97.5 -87.5t133 -57t144.5 -33t132 -15t95 -3.5q143 0 248.5 9.5t181.5 25t126 35.5t81 41t47.5 41t26 35.5l15.5 25t16 9.5t16 -12t15 -44q8 -57 50.5 -86.5t136.5 -29.5h10q15 0 22.5 -27t7.5 -59.5t-7.5 -59.5t-22.5 -27h-30z" />
    <glyph glyph-name="uniFB68" unicode="&#x679;" horiz-adv-x="620" arabic-form="initial" 
d="M370 1029q0 8 -17 16t-39 8q-43 0 -79.5 -23.5t-68.5 -69.5q29 3 64.5 11t66.5 18.5t52 21t21 18.5zM425 1058q0 -40 -26.5 -73.5t-74 -57.5t-113.5 -37.5t-144 -13.5q-32 0 -52.5 2t-36 10.5t-29 25t-31.5 45.5v-1q-2 2 -6 7t-8 8q52 -8 82.5 -11.5t42.5 -3.5
q32 0 52.5 4.5t32 16.5t16 33t4.5 54q0 26 -2.5 58t-6.5 64.5t-9 63l-9 54t-7 38t-4 14.5v-1q0 31 34 84l57 -82q-14 -15 -21 -28t-7 -21q0 -3 1 -11t2.5 -17.5t2.5 -18.5t1 -13q4 -38 7 -76t3 -75q0 -29 -3 -56q110 107 179 107q34 0 53.5 -26t19.5 -66zM-10 105
q-15 0 -22.5 27t-7.5 59.5t7.5 59.5t22.5 27h10q160 0 252 16.5t109 56.5q-17 53 -38 94.5t-56 85.5l85 164q28 -46 45.5 -90.5t27 -84t12.5 -71.5t3 -55q0 -17 -8 -49t-20.5 -67t-29 -68t-34.5 -51q-21 -22 -107 -38t-221 -16h-30z" />
    <glyph glyph-name="uniFB69" unicode="&#x679;" horiz-adv-x="560" arabic-form="medial" 
d="M370 840q0 8 -17 16t-39 8q-43 0 -79.5 -23.5t-68.5 -69.5q29 3 64.5 11t66.5 18.5t52 21t21 18.5zM425 869q0 -40 -26.5 -73.5t-74 -57.5t-113.5 -37.5t-144 -13.5q-32 0 -52.5 2t-36 10.5t-29 25t-31.5 45.5v-1q-2 2 -6 7t-8 8q52 -8 82.5 -11.5t42.5 -3.5
q32 0 52.5 4.5t32 16.5t16 33t4.5 54q0 26 -2.5 58t-6.5 64.5t-9 63l-9 54t-7 38t-4 14.5v-1q0 31 34 84l57 -82q-14 -15 -21 -28t-7 -21q0 -3 1 -11t2.5 -17.5t2.5 -18.5t1 -13q4 -38 7 -76t3 -75q0 -29 -3 -56q110 107 179 107q34 0 53.5 -26t19.5 -66zM-10 105
q-15 0 -22.5 27t-7.5 59.5t7.5 59.5t22.5 27h10q47 0 96 6.5t94 21t84 38t66 57.5q25 31 38 31q9 0 14 -9.5t13 -36.5q9 -28 25.5 -48.5t38 -34t45.5 -19.5t46 -6h10q15 0 22.5 -27t7.5 -59.5t-7.5 -59.5t-22.5 -27h-30q-60 0 -95.5 21.5t-56.5 48t-32.5 48t-22.5 21.5
q-7 0 -30.5 -21.5t-62.5 -48t-94 -48t-126 -21.5h-30z" />
    <glyph glyph-name="uni067C.ini" unicode="&#x67c;" horiz-adv-x="620" 
d="M-27 -42q53 -44 108 -44q20 0 46 6.5t46 17.5v9q0 32 -11.5 57.5t-29 42.5t-38.5 26t-40 9q-29 0 -48 -29t-33 -95zM43 -213q-23 0 -46 10.5t-41 28.5t-29.5 42.5t-11.5 53.5q0 37 10.5 80.5t30.5 95.5q47 128 108 128q30 0 60 -23t54 -59.5t38.5 -81t14.5 -88.5
q0 -40 -12 -74.5t-35.5 -59.5t-58.5 -39t-82 -14zM35 1172q34 -29 66 -51l70 -47q23 29 42 56.5t34 53.5l4 10q35 -29 72.5 -53.5l79.5 -50.5q-26 -28 -50 -62.5t-46 -78.5q-31 29 -63.5 53t-68.5 42q-35 -42 -76 -129q-10 12 -28.5 28t-41 33t-45.5 32.5t-42 26.5
q29 36 52.5 70.5t40.5 66.5zM-10 105q-15 0 -22.5 27t-7.5 59.5t7.5 59.5t22.5 27h10q160 0 252 16.5t109 56.5q-17 53 -38 94.5t-56 85.5l85 164q28 -46 45.5 -90.5t27 -84t12.5 -71.5t3 -55q0 -17 -8 -49t-20.5 -67t-29 -68t-34.5 -51q-21 -22 -107 -38t-221 -16h-30z" />
    <glyph glyph-name="uni067C.med" unicode="&#x67c;" horiz-adv-x="560" 
d="M-27 -42q53 -44 108 -44q20 0 46 6.5t46 17.5v9q0 32 -11.5 57.5t-29 42.5t-38.5 26t-40 9q-29 0 -48 -29t-33 -95zM43 -213q-23 0 -46 10.5t-41 28.5t-29.5 42.5t-11.5 53.5q0 37 10.5 80.5t30.5 95.5q47 128 108 128q30 0 60 -23t54 -59.5t38.5 -81t14.5 -88.5
q0 -40 -12 -74.5t-35.5 -59.5t-58.5 -39t-82 -14zM35 983q34 -29 66 -51l70 -47q23 29 42 56.5t34 53.5l4 10q35 -29 72.5 -53.5l79.5 -50.5q-26 -28 -50 -62.5t-46 -78.5q-31 29 -63.5 53t-68.5 42q-35 -42 -76 -129q-10 12 -28.5 28t-41 33t-45.5 32.5t-42 26.5
q29 36 52.5 70.5t40.5 66.5zM-10 105q-15 0 -22.5 27t-7.5 59.5t7.5 59.5t22.5 27h10q47 0 96 6.5t94 21t84 38t66 57.5q25 31 38 31q9 0 14 -9.5t13 -36.5q9 -28 25.5 -48.5t38 -34t45.5 -19.5t46 -6h10q15 0 22.5 -27t7.5 -59.5t-7.5 -59.5t-22.5 -27h-30
q-60 0 -95.5 21.5t-56.5 48t-32.5 48t-22.5 21.5q-7 0 -30.5 -21.5t-62.5 -48t-94 -48t-126 -21.5h-30z" />
    <glyph glyph-name="uni067C.fin" unicode="&#x67c;" horiz-adv-x="1690" 
d="M662 967q34 -29 66 -51l70 -47q23 29 42 57t34 54l4 9q35 -29 72 -53.5l80 -50.5q-53 -56 -97 -141q-61 59 -131 95q-35 -41 -76 -129q-10 12 -28.5 28t-41 33l-45.5 33t-42 27q29 35 52.5 69.5t40.5 66.5zM635 -98q55 -44 108 -44q21 0 47 6.5t46 17.5v10q0 32 -11.5 57
t-29 42t-38.5 26t-41 9q-29 0 -48 -28.5t-33 -95.5zM706 -269q-23 0 -46 10.5t-41 28.5t-29.5 43t-11.5 54q0 36 10 80t30 95q48 128 109 128q30 0 60 -23t53.5 -59t38.5 -81t15 -89q0 -40 -12 -74.5t-35.5 -59.5t-58.5 -39t-82 -14zM1670 105q-24 0 -57.5 2.5t-66 16.5
t-58.5 44t-34 84q-2 0 -15.5 -15.5t-46 -39.5t-87.5 -51t-141 -51t-206.5 -39.5t-282.5 -15.5q-76 0 -155.5 7.5t-154.5 24.5t-141.5 45.5t-116 71t-78.5 100t-29 132.5q0 57 15.5 112.5t36 99t40 70.5t28.5 27q10 0 10 -11q0 -9 -6 -25t-13.5 -38t-14 -49t-6.5 -58
q0 -73 38 -125t97.5 -87.5t133 -57t144.5 -33t132 -15t95 -3.5q143 0 248.5 9.5t181.5 25t126 35.5t81 41t47.5 41t26 35.5l15.5 25t16 9.5t16 -12t15 -44q8 -57 50.5 -86.5t136.5 -29.5h10q15 0 22.5 -27t7.5 -59.5t-7.5 -59.5t-22.5 -27h-30z" />
    <glyph glyph-name="afii57506" unicode="&#x67e;" horiz-adv-x="1768" arabic-form="isolated" 
d="M750 -374l76.5 -61t83.5 -52l-59 -74.5t-52 -81.5q-35 35 -71 66t-78 52q62 68 100 151zM807 -134q34 -34 73 -63t84 -55q-29 -34 -51 -69t-39 -72q-32 29 -66.5 55.5t-69.5 45.5q-24 -29 -45.5 -59.5t-36.5 -65.5l-71.5 58t-81.5 48q29 35 53.5 71t44.5 74
q25 -29 59 -52.5t72 -45.5q23 29 43 62t32 68zM1499 825q42 -66 65.5 -132.5t23.5 -140.5q0 -24 -11 -66.5t-28.5 -87.5t-40.5 -82.5t-47 -50.5q-60 -34 -151 -68t-205.5 -61.5t-250.5 -44.5t-288 -17q-66 0 -134 5t-131 18t-118 35t-95.5 56.5t-64 82.5t-23.5 112
q0 63 16 118t37.5 95.5t43.5 63.5t34 23q13 0 13 -14q0 -8 -6 -17q-26 -35 -37 -62t-11 -59q0 -63 40.5 -113.5t110.5 -85.5t164.5 -53.5t201.5 -18.5q104 0 211 12t207 30.5t187.5 41.5t153 45.5t103 42t37.5 30.5q0 17 -7.5 39.5t-20 47t-28 49t-30.5 44.5z" />
    <glyph glyph-name="uniFB57" unicode="&#x67e;" horiz-adv-x="1690" arabic-form="final" 
d="M750 -374l76.5 -61t83.5 -52l-59 -74.5t-52 -81.5q-35 35 -71 66t-78 52q62 68 100 151zM807 -134q34 -34 73 -63t84 -55q-29 -34 -51 -69t-39 -72q-32 29 -66.5 55.5t-69.5 45.5q-24 -29 -45.5 -59.5t-36.5 -65.5l-71.5 58t-81.5 48q29 35 53.5 71t44.5 74
q25 -29 59 -52.5t72 -45.5q23 29 43 62t32 68zM1670 105q-24 0 -57.5 2.5t-66 16.5t-58.5 44t-34 84q-2 0 -15.5 -15.5t-46 -39.5t-87.5 -51t-141 -51t-206.5 -39.5t-282.5 -15.5q-76 0 -155.5 7.5t-154.5 24.5t-141.5 45.5t-116 71t-78.5 100t-29 132.5q0 57 15.5 112.5
t36 99t40 70.5t28.5 27q10 0 10 -11q0 -9 -6 -25t-13.5 -38t-14 -49t-6.5 -58q0 -73 38 -125t97.5 -87.5t133 -57t144.5 -33t132 -15t95 -3.5q143 0 248.5 9.5t181.5 25t126 35.5t81 41t47.5 41t26 35.5l15.5 25t16 9.5t16 -12t15 -44q8 -57 50.5 -86.5t136.5 -29.5h10
q15 0 22.5 -27t7.5 -59.5t-7.5 -59.5t-22.5 -27h-30z" />
    <glyph glyph-name="uniFB58" unicode="&#x67e;" horiz-adv-x="620" arabic-form="initial" 
d="M-10 105q-15 0 -22.5 27t-7.5 59.5t7.5 59.5t22.5 27h10q160 0 252 16.5t109 56.5q-17 53 -38 94.5t-56 85.5l85 164q28 -46 45.5 -90.5t27 -84t12.5 -71.5t3 -55q0 -17 -8 -49t-20.5 -67t-29 -68t-34.5 -51q-21 -22 -107 -38t-221 -16h-30zM168 -297l77 -60.5t84 -52.5
l-60 -74t-51 -81q-35 34 -71 65.5t-78 51.5q31 34 56 71.5t43 79.5zM229 -57q69 -69 155 -118q-28 -35 -50 -68.5t-40 -71.5q-32 29 -65.5 55t-68.5 44q-25 -29 -46.5 -59t-35.5 -64l-72 58t-82 48q28 34 53.5 69.5t44.5 74.5q26 -28 59 -52.5t71 -44.5q25 29 44.5 61.5
t32.5 67.5z" />
    <glyph glyph-name="uniFB59" unicode="&#x67e;" horiz-adv-x="560" arabic-form="medial" 
d="M168 -297l77 -60.5t84 -52.5l-60 -74t-51 -81q-35 34 -71 65.5t-78 51.5q31 34 56 71.5t43 79.5zM229 -57q69 -69 155 -118q-28 -35 -50 -68.5t-40 -71.5q-32 29 -65.5 55t-68.5 44q-25 -29 -46.5 -59t-35.5 -64l-72 58t-82 48q28 34 53.5 69.5t44.5 74.5
q26 -28 59 -52.5t71 -44.5q25 29 44.5 61.5t32.5 67.5zM-10 105q-15 0 -22.5 27t-7.5 59.5t7.5 59.5t22.5 27h10q47 0 96 6.5t94 21t84 38t66 57.5q25 31 38 31q9 0 14 -9.5t13 -36.5q9 -28 25.5 -48.5t38 -34t45.5 -19.5t46 -6h10q15 0 22.5 -27t7.5 -59.5t-7.5 -59.5
t-22.5 -27h-30q-60 0 -95.5 21.5t-56.5 48t-32.5 48t-22.5 21.5q-7 0 -30.5 -21.5t-62.5 -48t-94 -48t-126 -21.5h-30z" />
    <glyph glyph-name="uni0685.ini" unicode="&#x685;" horiz-adv-x="1320" 
d="M555 1077l-74.5 63.5t-82.5 55.5q35 33 62 68.5t50 77.5q33 -36 70 -64.5t79 -51.5q-33 -34 -58.5 -70.5t-45.5 -78.5zM490 840q-32 34 -69.5 64t-82.5 58q30 33 53 67.5t41 70.5q31 -29 64.5 -57t68.5 -48q24 28 46.5 58.5t38.5 64.5l70 -60t80 -50q-29 -34 -55 -69
t-47 -73q-24 29 -57 54t-71 47q-23 -29 -44.5 -60.5t-35.5 -66.5zM0 278q75 -4 152 16.5t157 49.5l163.5 59t171.5 45q-27 16 -73 37t-96.5 40t-97.5 32t-75 13q-16 0 -40.5 -3.5t-50 -9.5t-49.5 -13.5t-40 -16.5q-9 -4 -17 -4q-17 0 -17 15q0 3 2 9q15 31 36 65.5t48.5 64
t61.5 48.5t74 19q46 0 92 -15t97.5 -37l111 -48.5t133 -48.5t163.5 -37t202 -15h111l-54 -151q-48 2 -93 3.5t-80 4.5q-101 9 -189 -9.5t-168 -51t-154.5 -73.5t-148.5 -76.5t-151 -60t-162 -24.5h-30q-15 0 -22.5 27t-7.5 59.5t7.5 59.5t22.5 27h10z" />
    <glyph glyph-name="uni0685.med" unicode="&#x685;" horiz-adv-x="1380" 
d="M555 1077l-74.5 63.5t-82.5 55.5q35 33 62 68.5t50 77.5q33 -36 70 -64.5t79 -51.5q-33 -34 -58.5 -70.5t-45.5 -78.5zM490 840q-32 34 -69.5 64t-82.5 58q30 33 53 67.5t41 70.5q31 -29 64.5 -57t68.5 -48q24 28 46.5 58.5t38.5 64.5l70 -60t80 -50q-29 -34 -55 -69
t-47 -73q-24 29 -57 54t-71 47q-23 -29 -44.5 -60.5t-35.5 -66.5zM1360 105h-184q-82 0 -136 12t-86 32t-45.5 48t-13.5 59q0 42 12.5 70.5t27.5 49.5q-74 21 -147 9t-146.5 -42t-147.5 -71t-151 -78t-157.5 -63t-165.5 -26h-30q-15 0 -22.5 27t-7.5 59.5t7.5 59.5t22.5 27
h10q79 -1 157 18.5t155 47l154.5 56.5t156.5 45v5q-25 13 -69 31.5t-92 35.5t-92.5 29t-71.5 12q-17 0 -41 -4t-49 -10.5t-48.5 -14t-39.5 -14.5q-9 -5 -17 -5t-12.5 4.5t-4.5 10.5q0 2 2 8q15 31 36 65.5t48.5 64t61.5 48.5t74 19q35 0 68.5 -9t71.5 -25t84 -39l105 -50
q87 -43 200 -60.5t270 -17.5h134l-45 -148q-40 6 -91 6q-48 0 -98 -9q-7 -18 -7 -38q0 -13 9.5 -24.5t33.5 -19.5t63.5 -13t99.5 -5h184q15 0 22.5 -27t7.5 -59.5t-7.5 -59.5t-22.5 -27h-30z" />
    <glyph glyph-name="uni0685.fin" unicode="&#x685;" horiz-adv-x="1280" 
d="M597 1046l-74.5 63.5t-82.5 54.5q35 34 62 69t50 77q65 -71 149 -115q-33 -34 -58.5 -70.5t-45.5 -78.5zM532 809q-61 66 -152 121q30 33 53 68t41 71q31 -30 64.5 -57.5t68.5 -47.5q24 28 46.5 58.5t38.5 64.5l70 -60t80 -50q-29 -35 -55 -69.5t-47 -72.5
q-24 29 -57 53.5t-71 47.5q-23 -29 -44.5 -60.5t-35.5 -66.5zM1260 105h-226q-101 0 -160 16.5t-89 40.5t-38.5 50t-8.5 44q0 42 10.5 81.5t26.5 72.5q-82 -13 -164.5 -41t-157 -68.5t-139 -93.5t-112 -118.5t-74.5 -141.5t-27 -163q0 -55 14.5 -114t48 -115.5t89.5 -107.5
t139.5 -90t197 -61.5t261.5 -22.5q51 0 110.5 2.5t122 7.5t125 12.5t120.5 18.5q23 5 38.5 6t24.5 1q16 0 19.5 -5t3.5 -14q0 -6 -17.5 -19t-49.5 -30.5t-77 -37.5t-101 -40q-61 -21 -113 -35.5t-101 -23t-98.5 -12.5t-107.5 -4q-174 0 -313 39t-236 113.5t-149 181.5
t-52 243t39 252.5t108.5 214t164 175t205.5 134.5l-53 11.5t-65.5 12.5t-69.5 10t-66 4q-49 0 -80 -12.5t-51 -27.5t-32 -27.5t-24 -12.5q-18 0 -18 24q0 6 8 25t23 44.5t37 54t50.5 52t63.5 39t76 15.5q35 0 69 -5.5t71 -13t79.5 -17t95 -17t117.5 -13t146 -5.5h221
l-72 -155q-54 0 -102 -3t-101 -17q6 -46 23 -74t51.5 -43t91 -19.5t142.5 -4.5h142q15 0 22.5 -27t7.5 -59.5t-7.5 -59.5t-22.5 -27h-30z" />
    <glyph glyph-name="afii57507" unicode="&#x686;" horiz-adv-x="1315" arabic-form="isolated" 
d="M642 -208l76.5 -61.5t83.5 -51.5l-59.5 -75t-51.5 -81q-35 34 -71 65.5t-78 52.5q32 35 56 72t44 79zM704 32q67 -70 155 -119q-57 -63 -90 -139q-32 29 -67 55t-70 45q-24 -29 -45.5 -60t-35.5 -65l-71.5 58t-81.5 48q28 34 52.5 69.5t44.5 74.5q25 -26 59 -50.5
t72 -46.5q47 56 78 130zM1043 439q-27 0 -60 -2.5t-68 -6.5t-71 -9.5l-69 -10.5q-82 -13 -164.5 -41t-157 -68.5t-139 -93.5t-112 -118.5t-74.5 -141.5t-27 -163q0 -55 14.5 -114t48 -115.5t89.5 -107.5t139.5 -90t197 -61.5t261.5 -22.5q51 0 110.5 2.5t122 7.5t125 12.5
t120.5 18.5q23 5 38.5 6t24.5 1q16 0 19.5 -5t3.5 -14q0 -6 -17.5 -19t-49.5 -30.5t-77 -37.5t-101 -40q-61 -21 -113 -35.5t-101 -23t-98.5 -12.5t-107.5 -4q-174 0 -313 39t-236 113.5t-149 181.5t-52 243t39 252.5t108.5 214t164 175t205.5 134.5v4q-22 3 -53 8.5
l-65.5 11.5t-69.5 10t-66 4q-49 0 -80 -12.5t-51 -27.5t-32 -27.5t-24 -12.5q-18 0 -18 24q0 7 8 26.5t23.5 45t38.5 53.5t52.5 51.5t65 38.5t77.5 15q52 0 101 -10l112 -24q33 -7 70 -13.5t80.5 -11.5t95 -8.5t112.5 -3.5h221z" />
    <glyph glyph-name="uniFB7B" unicode="&#x686;" horiz-adv-x="1280" arabic-form="final" 
d="M621 -229l76.5 -61.5t83.5 -51.5l-59.5 -75t-51.5 -81q-35 34 -71 65.5t-78 52.5q32 35 56 72t44 79zM683 11q67 -70 155 -119q-57 -63 -90 -139q-32 29 -67 55t-70 45q-24 -29 -45.5 -60t-35.5 -65l-71.5 58t-81.5 48q28 34 52.5 69.5t44.5 74.5q25 -26 59 -50.5
t72 -46.5q47 56 78 130zM1260 105h-226q-101 0 -160 16.5t-89 40.5t-38.5 50t-8.5 44q0 42 10.5 81.5t26.5 72.5q-82 -13 -164.5 -41t-157 -68.5t-139 -93.5t-112 -118.5t-74.5 -141.5t-27 -163q0 -55 14.5 -114t48 -115.5t89.5 -107.5t139.5 -90t197 -61.5t261.5 -22.5
q51 0 110.5 2.5t122 7.5t125 12.5t120.5 18.5q23 5 38.5 6t24.5 1q16 0 19.5 -5t3.5 -14q0 -6 -17.5 -19t-49.5 -30.5t-77 -37.5t-101 -40q-61 -21 -113 -35.5t-101 -23t-98.5 -12.5t-107.5 -4q-174 0 -313 39t-236 113.5t-149 181.5t-52 243t39 252.5t108.5 214t164 175
t205.5 134.5l-53 11.5t-65.5 12.5t-69.5 10t-66 4q-49 0 -80 -12.5t-51 -27.5t-32 -27.5t-24 -12.5q-18 0 -18 24q0 6 8 25t23 44.5t37 54t50.5 52t63.5 39t76 15.5q35 0 69 -5.5t71 -13t79.5 -17t95 -17t117.5 -13t146 -5.5h221l-72 -155q-54 0 -102 -3t-101 -17
q6 -46 23 -74t51.5 -43t91 -19.5t142.5 -4.5h142q15 0 22.5 -27t7.5 -59.5t-7.5 -59.5t-22.5 -27h-30z" />
    <glyph glyph-name="uniFB7C" unicode="&#x686;" horiz-adv-x="1320" arabic-form="initial" 
d="M608 -204l77 -60.5t84 -51.5l-59.5 -74t-52.5 -83q-34 35 -70 66t-78 52q62 70 99 151zM669 36q34 -35 73 -63t83 -54q-58 -68 -90 -141q-32 29 -66 55t-69 45q-25 -29 -46 -59.5t-36 -65.5l-72.5 58t-81.5 48q28 35 53.5 70.5t43.5 75.5q26 -29 60 -53t71 -45
q49 55 77 129zM0 278q75 -4 152 16.5t157 49.5l163.5 59t171.5 45q-27 16 -73 37t-96.5 40t-97.5 32t-75 13q-16 0 -40.5 -3.5t-50 -9.5t-49.5 -13.5t-40 -16.5q-9 -4 -17 -4q-17 0 -17 15q0 3 2 9q15 31 36 65.5t48.5 64t61.5 48.5t74 19q46 0 92 -15t97.5 -37l111 -48.5
t133 -48.5t163.5 -37t202 -15h111l-54 -151q-48 2 -93 3.5t-80 4.5q-101 9 -189 -9.5t-168 -51t-154.5 -73.5t-148.5 -76.5t-151 -60t-162 -24.5h-30q-15 0 -22.5 27t-7.5 59.5t7.5 59.5t22.5 27h10z" />
    <glyph glyph-name="uniFB7D" unicode="&#x686;" horiz-adv-x="1380" arabic-form="medial" 
d="M608 -204l77 -60.5t84 -51.5l-59.5 -74t-52.5 -83q-34 35 -70 66t-78 52q62 70 99 151zM669 36q34 -35 73 -63t83 -54q-58 -68 -90 -141q-32 29 -66 55t-69 45q-25 -29 -46 -59.5t-36 -65.5l-72.5 58t-81.5 48q28 35 53.5 70.5t43.5 75.5q26 -29 60 -53t71 -45
q49 55 77 129zM1360 105h-184q-82 0 -136 12t-86 32t-45.5 48t-13.5 59q0 42 12.5 70.5t27.5 49.5q-74 21 -147 9t-146.5 -42t-147.5 -71t-151 -78t-157.5 -63t-165.5 -26h-30q-15 0 -22.5 27t-7.5 59.5t7.5 59.5t22.5 27h10q79 -1 157 18.5t155 47l154.5 56.5t156.5 45v5
q-25 13 -69 31.5t-92 35.5t-92.5 29t-71.5 12q-17 0 -41 -4t-49 -10.5t-48.5 -14t-39.5 -14.5q-9 -5 -17 -5t-12.5 4.5t-4.5 10.5q0 2 2 8q15 31 36 65.5t48.5 64t61.5 48.5t74 19q35 0 68.5 -9t71.5 -25t84 -39l105 -50q87 -43 200 -60.5t270 -17.5h134l-45 -148
q-40 6 -91 6q-48 0 -98 -9q-7 -18 -7 -38q0 -13 9.5 -24.5t33.5 -19.5t63.5 -13t99.5 -5h184q15 0 22.5 -27t7.5 -59.5t-7.5 -59.5t-22.5 -27h-30z" />
    <glyph glyph-name="afii57512" unicode="&#x688;" horiz-adv-x="808" arabic-form="isolated" 
d="M185 717l31 100t21 58.5t16 27.5t16 7q10 0 32.5 -12.5t50.5 -32t57 -43.5t51 -48q39 -41 70.5 -88t53 -97t33 -101.5t11.5 -100.5q0 -46 -9 -81.5t-30 -63.5t-56.5 -51t-88.5 -44q-70 -29 -144.5 -44t-154.5 -15q-29 0 -55.5 2.5t-46.5 11t-31.5 24t-11.5 40.5
q0 15 2 37t6 46t8.5 46t8.5 37q23 -11 42 -18.5t37.5 -11.5t38.5 -5.5t44 -1.5q55 0 118 11.5t117 29.5t90 40.5t36 44.5q0 19 -15 45t-41.5 54.5t-61.5 58t-75.5 56t-84 48t-85.5 34.5zM427 1250q0 8 -16.5 16t-38.5 8q-43 0 -79.5 -24t-68.5 -70q29 3 64.5 11.5t66 19
t51.5 21t21 18.5zM483 1279q0 -40 -26.5 -74t-74 -58t-113.5 -37.5t-144 -13.5q-32 0 -52.5 2.5t-36 10.5t-29 25t-31.5 45v-1q-2 2 -6.5 7.5t-7.5 8.5q51 -9 81.5 -12.5t43.5 -3.5q32 0 52.5 4.5t32 16.5t16 33t4.5 54q0 26 -2.5 58t-7 64.5t-9.5 63l-9 54t-7 38t-4 14.5
v-1q0 29 35 84l57 -82q-29 -31 -29 -48q0 -3 1.5 -11t3 -18t2.5 -18.5t1 -13.5q4 -37 7 -75.5t3 -74.5q0 -30 -3 -57q107 107 179 107q34 0 53.5 -26t19.5 -65z" />
    <glyph glyph-name="uniFB89" unicode="&#x688;" horiz-adv-x="910" arabic-form="final" 
d="M427 1250q0 8 -16.5 16t-38.5 8q-43 0 -79.5 -24t-68.5 -70q29 3 64.5 11.5t66 19t51.5 21t21 18.5zM483 1279q0 -40 -26.5 -74t-74 -58t-113.5 -37.5t-144 -13.5q-32 0 -52.5 2.5t-36 10.5t-29 25t-31.5 45v-1q-2 2 -6.5 7.5t-7.5 8.5q51 -9 81.5 -12.5t43.5 -3.5
q32 0 52.5 4.5t32 16.5t16 33t4.5 54q0 26 -2.5 58t-7 64.5t-9.5 63l-9 54t-7 38t-4 14.5v-1q0 29 35 84l57 -82q-29 -31 -29 -48q0 -3 1.5 -11t3 -18t2.5 -18.5t1 -13.5q4 -37 7 -75.5t3 -74.5q0 -30 -3 -57q107 107 179 107q34 0 53.5 -26t19.5 -65zM501 1007l105 114
q10 -61 20.5 -137.5l22 -157.5t24.5 -161.5t27.5 -148.5t30.5 -119.5t33 -74.5q20 -25 55 -34.5t91 -9.5h10q15 0 22.5 -27t7.5 -59.5t-7.5 -59.5t-22.5 -27h-30q-42 0 -77.5 8.5t-65.5 31t-54.5 60.5t-45.5 98q-15 40 -26 40q-12 0 -40 -38q-34 -49 -69 -84t-74.5 -57.5
t-86 -33t-103.5 -10.5q-46 0 -90.5 7.5t-79.5 19.5t-56.5 26.5t-21.5 27.5q0 7 1 10q17 120 32.5 170.5t26.5 50.5q5 0 6 -7.5t5 -19.5q12 -37 33.5 -59t51.5 -34t68 -15.5t81 -3.5q277 0 277 228q0 9 -3.5 40.5t-9 75t-13.5 95.5t-17 103t-18.5 96.5t-19.5 75.5z" />
    <glyph glyph-name="uni0689.fin" unicode="&#x689;" horiz-adv-x="910" 
d="M204 -27q51 -44 108 -44q20 0 46 6.5t46 17.5v9q0 32 -11.5 57t-29 42.5t-38.5 26.5t-40 9q-29 0 -48 -29t-33 -95zM274 -198q-23 0 -46 10t-41 28t-29.5 43t-11.5 54q0 36 10.5 80t30.5 95q47 128 108 128q30 0 60 -23t54 -59t38.5 -81t14.5 -89q0 -40 -12 -74
t-35.5 -59t-58.5 -39t-82 -14zM501 1007l105 114q10 -61 20.5 -137.5l22 -157.5t24.5 -161.5t27.5 -148.5t30.5 -119.5t33 -74.5q20 -25 55 -34.5t91 -9.5h10q15 0 22.5 -27t7.5 -59.5t-7.5 -59.5t-22.5 -27h-30q-42 0 -77.5 8.5t-65.5 31t-54.5 60.5t-45.5 98
q-15 40 -26 40q-12 0 -40 -38q-34 -49 -69 -84t-74.5 -57.5t-86 -33t-103.5 -10.5q-46 0 -90.5 7.5t-79.5 19.5t-56.5 26.5t-21.5 27.5q0 7 1 10q17 120 32.5 170.5t26.5 50.5q5 0 6 -7.5t5 -19.5q12 -37 33.5 -59t51.5 -34t68 -15.5t81 -3.5q277 0 277 228q0 9 -3.5 40.5
t-9 75t-13.5 95.5t-17 103t-18.5 96.5t-19.5 75.5z" />
    <glyph glyph-name="afii57513" unicode="&#x691;" horiz-adv-x="779" arabic-form="isolated" 
d="M438 652q44 -32 74.5 -80.5t49 -104t27 -114t8.5 -110.5q0 -79 -22.5 -153t-60 -138.5t-86.5 -117.5t-102.5 -91t-107 -59t-100.5 -21q-19 0 -48.5 8.5t-62.5 22t-66.5 30t-60 31.5t-43.5 27.5t-17 17.5q0 11 8 13.5t14 2.5q5 0 25 -6t47.5 -13.5t59 -13.5t59.5 -6
q59 0 119 27t115.5 69t104.5 92.5t85 97t57 83.5t21 51q0 11 -13.5 47.5t-37.5 82.5t-57.5 92t-72.5 75zM543 1029q0 8 -16.5 16t-38.5 8q-43 0 -79.5 -23.5t-68.5 -69.5q29 3 64.5 11t66 18.5t51.5 21t21 18.5zM599 1058q0 -40 -26.5 -73.5t-74 -57.5t-113.5 -37.5
t-144 -13.5q-32 0 -52.5 2t-36 10.5t-29 25t-31.5 45.5v-1q-2 2 -6 7t-8 8q52 -8 82 -11.5t43 -3.5q32 0 52.5 4.5t32 16.5t16 33t4.5 54q0 26 -2.5 58t-7 64.5l-9 63t-9 54l-7.5 38t-4 14.5v-1q0 29 35 84l57 -82q-29 -31 -29 -49q0 -3 1.5 -11t3 -17.5t2.5 -18.5t1 -13
q4 -38 7 -76t3 -75q0 -29 -3 -56q110 107 179 107q34 0 53.5 -26t19.5 -66z" />
    <glyph glyph-name="uniFB8D" unicode="&#x691;" horiz-adv-x="790" arabic-form="final" 
d="M543 819q0 8 -16.5 16t-38.5 8q-43 0 -79.5 -23.5t-68.5 -69.5q29 3 64.5 11t66 18.5t51.5 21t21 18.5zM599 848q0 -40 -26.5 -73.5t-74 -57.5t-113.5 -37.5t-144 -13.5q-32 0 -52.5 2t-36 10.5t-29 25t-31.5 45.5v-1q-2 2 -6 7t-8 8q52 -8 82 -11.5t43 -3.5
q32 0 52.5 4.5t32 16.5t16 33t4.5 54q0 26 -2.5 58t-7 64.5l-9 63t-9 54l-7.5 38t-4 14.5v-1q0 29 35 84l57 -82q-29 -31 -29 -49q0 -3 1.5 -11t3 -17.5t2.5 -18.5t1 -13q4 -38 7 -76t3 -75q0 -29 -3 -56q110 107 179 107q34 0 53.5 -26t19.5 -66zM450 410q40 -45 73.5 -71
t71 -39.5t83.5 -17.5t112 -4h10q15 0 22.5 -27t7.5 -59.5t-7.5 -59.5t-22.5 -27h-183q-20 0 -33.5 -11t-22.5 -50q-22 -107 -65 -202.5t-103.5 -167.5t-136.5 -114t-165 -42q-21 0 -49 7.5t-58 18.5t-59.5 24.5t-52.5 26t-37.5 22t-14.5 13.5q0 22 18 22q6 0 24 -3t40 -6
l44.5 -6t39.5 -3q39 0 89 15.5t99.5 38.5t93.5 51t72 54q27 25 55 57.5t51 68.5t38 72.5t15 68.5q0 20 -11.5 44t-30.5 49t-43 50.5t-49 48.5z" />
    <glyph glyph-name="uni0692.fin" unicode="&#x692;" horiz-adv-x="740" 
d="M174 1203l22 -26t19 -26.5t18.5 -32l21.5 -41.5q7 -13 16.5 -37l21 -51.5l22.5 -56l19.5 -52l13.5 -38t4 -14.5q5 23 17.5 60t28.5 76l31.5 73.5t24.5 50.5l41.5 68t40.5 58q2 -8 3.5 -19l3 -23t2.5 -23t1 -19q-18 -20 -38.5 -58t-41.5 -84t-40.5 -95t-34.5 -91.5
t-24 -74t-9 -41.5q0 -5 1 -5q-2 0 -9.5 -3t-14.5 -3q-8 0 -11 8l-32 104.5t-24.5 72t-22.5 56.5t-28 58q-35 69 -86 132q20 61 43 97zM450 410q40 -45 73 -71t65.5 -39.5t68.5 -17.5t83 -4h10q15 0 22.5 -27t7.5 -59.5t-7.5 -59.5t-22.5 -27h-133q-20 0 -33.5 -11t-22.5 -50
q-22 -107 -65 -202.5t-103.5 -167.5t-136.5 -114t-165 -42q-21 0 -49 7.5t-58 18.5t-59.5 24.5t-52.5 26t-37.5 22t-14.5 13.5q0 22 18 22q6 0 24 -3t40 -6l44.5 -6t39.5 -3q39 0 89 15.5t99.5 38.5t93.5 51t72 54q27 25 55 57.5t51 68.5t38 72.5t15 68.5q0 20 -11.5 44
t-30.5 49t-43 50.5t-49 48.5z" />
    <glyph glyph-name="uni0693.fin" unicode="&#x693;" horiz-adv-x="740" 
d="M329 -511q53 -44 108 -44q21 0 47 6.5t46 17.5v9q0 32 -11.5 57t-29 42.5t-38.5 26.5t-41 9q-29 0 -48 -29t-33 -95zM400 -683q-23 0 -46 10.5t-41 28.5t-29.5 43t-11.5 54q0 36 10 80t30 95q48 128 109 128q30 0 60 -23t53.5 -59t38.5 -81t15 -89q0 -40 -12 -74.5
t-35.5 -59.5t-58.5 -39t-82 -14zM450 410q40 -45 73 -71t65.5 -39.5t68.5 -17.5t83 -4h10q15 0 22.5 -27t7.5 -59.5t-7.5 -59.5t-22.5 -27h-133q-20 0 -33.5 -11t-22.5 -50q-22 -107 -65 -202.5t-103.5 -167.5t-136.5 -114t-165 -42q-21 0 -49 7.5t-58 18.5t-59.5 24.5
t-52.5 26t-37.5 22t-14.5 13.5q0 22 18 22q6 0 24 -3t40 -6l44.5 -6t39.5 -3q39 0 89 15.5t99.5 38.5t93.5 51t72 54q27 25 55 57.5t51 68.5t38 72.5t15 68.5q0 20 -11.5 44t-30.5 49t-43 50.5t-49 48.5z" />
    <glyph glyph-name="uni0694.fin" unicode="&#x694;" horiz-adv-x="790" 
d="M638 -372q39 -38 76 -66.5t71 -48.5l-28.5 -34t-22 -29.5t-21.5 -35.5l-27 -50q-32 28 -69.5 54.5t-88.5 55.5q47 59 72 95.5t38 58.5zM450 410q40 -45 73.5 -71t71 -39.5t83.5 -17.5t112 -4h10q15 0 22.5 -27t7.5 -59.5t-7.5 -59.5t-22.5 -27h-183q-20 0 -33.5 -11
t-22.5 -50q-22 -107 -65 -202.5t-103.5 -167.5t-136.5 -114t-165 -42q-21 0 -49 7.5t-58 18.5t-59.5 24.5t-52.5 26t-37.5 22t-14.5 13.5q0 22 18 22q6 0 24 -3t40 -6l44.5 -6t39.5 -3q39 0 89 15.5t99.5 38.5t93.5 51t72 54q27 25 55 57.5t51 68.5t38 72.5t15 68.5
q0 20 -11.5 44t-30.5 49t-43 50.5t-49 48.5z" />
    <glyph glyph-name="uni0695.fin" unicode="&#x695;" horiz-adv-x="710" 
d="M245 -603q13 -14 23 -26.5t19 -26.5t18.5 -31.5t20.5 -41.5q7 -13 16.5 -37l21 -51.5l22.5 -56l19.5 -52l14 -38t4.5 -14.5q4 23 17 60t28.5 76t31 73t25.5 51q20 36 41 68t41 58q2 -8 3.5 -19t2.5 -23l2 -23.5t1 -18.5q-17 -20 -38 -58t-42 -84t-40.5 -95t-34.5 -91.5
t-24 -74t-9 -41.5q0 -5 1 -5q-2 0 -9.5 -3t-14.5 -3t-11 7l-32 104.5t-24.5 72.5t-22.5 57t-28 58q-18 35 -39 68t-47 64q21 61 43 97zM450 410q40 -45 72.5 -71t62 -39.5t59.5 -17.5t66 -4h10q15 0 22.5 -27t7.5 -59.5t-7.5 -59.5t-22.5 -27h-103q-20 0 -33.5 -11
t-22.5 -50q-22 -107 -65 -202.5t-103.5 -167.5t-136.5 -114t-165 -42q-21 0 -49 7.5t-58 18.5t-59.5 24.5t-52.5 26t-37.5 22t-14.5 13.5q0 22 18 22q6 0 24 -3t40 -6l44.5 -6t39.5 -3q39 0 89 15.5t99.5 38.5t93.5 51t72 54q27 25 55 57.5t51 68.5t38 72.5t15 68.5
q0 20 -11.5 44t-30.5 49t-43 50.5t-49 48.5z" />
    <glyph glyph-name="uni0696.fin" unicode="&#x696;" horiz-adv-x="790" 
d="M638 -372q39 -38 76 -66.5t71 -48.5l-28.5 -34t-22 -29.5t-21.5 -35.5l-27 -50q-32 28 -69.5 54.5t-88.5 55.5q47 59 72 95.5t38 58.5zM149 164q39 -39 76 -67.5t71 -48.5q-18 -19 -29.5 -33.5t-21.5 -30t-21 -35.5l-27 -50q-32 29 -70 55.5t-89 54.5q47 59 72.5 96
t38.5 59zM450 410q40 -45 73.5 -71t71 -39.5t83.5 -17.5t112 -4h10q15 0 22.5 -27t7.5 -59.5t-7.5 -59.5t-22.5 -27h-183q-20 0 -33.5 -11t-22.5 -50q-22 -107 -65 -202.5t-103.5 -167.5t-136.5 -114t-165 -42q-21 0 -49 7.5t-58 18.5t-59.5 24.5t-52.5 26t-37.5 22
t-14.5 13.5q0 22 18 22q6 0 24 -3t40 -6l44.5 -6t39.5 -3q39 0 89 15.5t99.5 38.5t93.5 51t72 54q27 25 55 57.5t51 68.5t38 72.5t15 68.5q0 20 -11.5 44t-30.5 49t-43 50.5t-49 48.5z" />
    <glyph glyph-name="afii57508" unicode="&#x698;" horiz-adv-x="777" arabic-form="isolated" 
d="M340 1119l-77.5 61t-83.5 53l59 74t51 81q35 -34 71 -65t78 -51q-30 -35 -55 -72t-43 -81zM281 880q-33 33 -72 62.5t-84 55.5q56 68 90 140q32 -29 66 -54.5t69 -45.5q25 29 46.5 59t35.5 65l72 -57t81 -49l-52 -70t-45 -74q-26 28 -59.5 52.5t-71.5 44.5
q-23 -29 -42.5 -61.5t-33.5 -67.5zM438 652q44 -32 74.5 -80.5t49 -104t27 -114t8.5 -110.5q0 -79 -22.5 -153t-60 -138.5t-86.5 -117.5t-102.5 -91t-107 -59t-100.5 -21q-19 0 -48.5 8.5t-62.5 22t-66.5 30t-60 31.5t-43.5 27.5t-17 17.5q0 11 8 13.5t14 2.5q5 0 25 -6
t47.5 -13.5t59 -13.5t59.5 -6q59 0 119 27t115.5 69t104.5 92.5t85 97t57 83.5t21 51q0 11 -13.5 47.5t-37.5 82.5t-57.5 92t-72.5 75z" />
    <glyph glyph-name="uniFB8B" unicode="&#x698;" horiz-adv-x="790" arabic-form="final" 
d="M340 909l-77.5 61t-83.5 53l59 74t51 81q35 -34 71 -65t78 -51q-30 -35 -55 -72t-43 -81zM281 670q-33 33 -72 62.5t-84 55.5q56 68 90 140q32 -29 66 -54.5t69 -45.5q25 29 46.5 59t35.5 65l72 -57t81 -49l-52 -70t-45 -74q-26 28 -59.5 52.5t-71.5 44.5
q-23 -29 -42.5 -61.5t-33.5 -67.5zM450 410q40 -45 73.5 -71t71 -39.5t83.5 -17.5t112 -4h10q15 0 22.5 -27t7.5 -59.5t-7.5 -59.5t-22.5 -27h-183q-20 0 -33.5 -11t-22.5 -50q-22 -107 -65 -202.5t-103.5 -167.5t-136.5 -114t-165 -42q-21 0 -49 7.5t-58 18.5t-59.5 24.5
t-52.5 26t-37.5 22t-14.5 13.5q0 22 18 22q6 0 24 -3t40 -6l44.5 -6t39.5 -3q39 0 89 15.5t99.5 38.5t93.5 51t72 54q27 25 55 57.5t51 68.5t38 72.5t15 68.5q0 20 -11.5 44t-30.5 49t-43 50.5t-49 48.5z" />
    <glyph glyph-name="uni069A.ini" unicode="&#x69a;" horiz-adv-x="1310" 
d="M756 902l-75 63.5t-82 55.5q35 33 62 68.5t50 77.5q65 -73 149 -116q-33 -34 -58.5 -70.5t-45.5 -78.5zM827 -395l-74.5 63.5t-82.5 55.5q35 33 62 68.5t50 77.5q33 -37 70 -65t79 -51q-33 -34 -58.5 -70.5t-45.5 -78.5zM1115 651q23 -44 34 -89t11 -92q0 -61 -14 -114.5
t-39 -93t-59.5 -62.5t-75.5 -23q-40 0 -84 20t-83 55q-15 13 -21 13q-7 0 -20 -15q-55 -74 -115.5 -109.5t-146.5 -35.5q-33 0 -59 7.5t-49 20.5t-44 31t-42 39q-22 24 -32 24q-14 0 -34 -25q-43 -54 -103 -75.5t-119 -21.5h-30q-15 0 -22.5 27t-7.5 59.5t7.5 59.5t22.5 27
h10q67 0 113 7t77.5 22.5t52.5 42t37 65.5q15 34 31 34t31 -30q24 -47 46 -75t43.5 -43t44 -19.5t47.5 -4.5q35 0 74.5 11.5t70.5 30.5q37 23 64.5 60.5t58.5 103.5q23 50 43 50q19 0 34 -51q16 -49 32.5 -75.5t39 -39t54 -14.5t77.5 -2q-1 25 -5 45t-11 37.5t-18.5 33.5
t-28.5 34z" />
    <glyph glyph-name="uni069A.med" unicode="&#x69a;" horiz-adv-x="1260" 
d="M749 845l-75.5 63.5t-82.5 55.5q35 33 62.5 68.5t50.5 77.5q65 -71 149 -116q-33 -34 -58.5 -70.5t-45.5 -78.5zM820 -452l-75 64.5t-82 54.5q35 33 62 68.5t50 77.5q66 -72 149 -115q-33 -35 -58.5 -71.5t-45.5 -78.5zM1270 278q15 0 22.5 -27t7.5 -59.5t-7.5 -59.5
t-22.5 -27h-30q-31 0 -56 9.5t-44.5 24.5t-32.5 34.5t-21 40.5q-8 24 -20 24q-4 0 -30 -29q-27 -31 -46.5 -51t-36 -32t-32 -16.5t-33.5 -4.5q-39 0 -66.5 22.5t-46.5 67.5q-15 37 -23 50t-16 13q-5 0 -16 -11t-23 -25.5l-22.5 -27.5t-14.5 -17q-32 -32 -72.5 -52t-88.5 -20
q-27 0 -50 5t-44 15.5t-41.5 27t-43.5 39.5q-31 32 -48 32q-13 0 -35 -28q-67 -91 -217 -91h-30q-15 0 -22.5 27t-7.5 59.5t7.5 59.5t22.5 27h10q71 0 117.5 6.5t77.5 23.5t52 45.5t41 73.5q5 11 11 16t12 5q17 0 38 -40q20 -38 38.5 -63t37.5 -40t40 -21t46 -6q29 0 55 6
t51.5 20t52.5 36.5t57 55.5q35 38 52 38q9 0 17.5 -9.5t18.5 -40.5q16 -51 37 -68.5t60 -17.5q41 0 67.5 19.5t49.5 71.5q17 36 27 47.5t18 11.5q23 0 36 -51q17 -66 52 -92.5t98 -26.5h10z" />
    <glyph glyph-name="uni069A.fin" unicode="&#x69a;" horiz-adv-x="1910" 
d="M1382 845l-75.5 63.5t-82.5 55.5q36 33 63 68.5t50 77.5q65 -71 149 -116q-33 -34 -58.5 -70.5t-45.5 -78.5zM1453 -452l-74.5 64.5t-82.5 54.5q35 33 62 68.5t50 77.5q65 -71 149 -115q-33 -35 -58.5 -71.5t-45.5 -78.5zM902 429q26 -49 48.5 -79t49.5 -46.5t61.5 -21.5
t85.5 -5q42 0 72 7.5t58 25t58.5 46.5l72.5 71q8 8 20 8q22 0 34 -43q13 -51 36 -72.5t65 -21.5t67.5 19.5t47.5 69.5q27 61 47 61q10 0 19.5 -9.5t14.5 -32.5q22 -73 59 -100.5t92 -27.5h10q15 0 22.5 -27t7.5 -59.5t-7.5 -59.5t-22.5 -27h-30q-12 0 -33 5.5t-42.5 17
t-41 29.5t-30.5 43q-18 39 -26 39t-19 -14q-29 -37 -49.5 -60t-37.5 -36t-32.5 -18t-34.5 -5q-46 0 -74 22.5t-52 80.5q-20 48 -33 48q-5 0 -18 -13t-27 -29.5l-27 -31.5t-18 -20q-31 -28 -65.5 -42.5t-88.5 -14.5q-40 0 -72 3t-58 11q0 -153 -42.5 -275.5t-123.5 -208
t-197.5 -131t-265.5 -45.5q-80 0 -150 22t-121.5 65.5t-81 107.5t-29.5 148q0 67 20.5 140t58.5 136q26 44 48.5 70t32.5 26q7 0 8.5 -3.5t1.5 -10.5q0 -2 -0.5 -4t-3.5 -7.5l-8.5 -15.5t-14.5 -28q-33 -65 -52 -126t-20 -102q0 -52 28.5 -95.5t78 -74.5t118 -48.5
t147.5 -17.5q71 0 144.5 13.5t137 38.5t110 61t62.5 81q9 28 14 71t5 91q0 49 -4.5 95t-12.5 77l-54.5 56.5t-40.5 54.5q23 38 47.5 74.5z" />
    <glyph glyph-name="afii57505" unicode="&#x6a4;" horiz-adv-x="1734" arabic-form="isolated" 
d="M1554 498q0 -96 -27.5 -165t-83 -116.5t-138 -75.5t-192.5 -43t-246.5 -19.5t-300.5 -4.5q-66 0 -134 5t-131 18t-118 35t-95.5 56.5t-64 82.5t-23.5 112q0 63 16 118t37.5 95.5t43.5 63.5t34 23q13 0 13 -14q0 -8 -6 -17q-26 -35 -37 -62t-11 -59q0 -63 40.5 -113.5
t110.5 -85.5t164.5 -53.5t201.5 -18.5q191 0 330 7.5t238 21.5t163 34t104 45q19 11 29 18t15 15t6 19t1 28q0 38 -13.5 59.5t-29.5 35.5q-30 -48 -75.5 -79t-111.5 -31q-33 0 -55.5 6t-36 20.5t-19.5 40t-6 64.5q0 31 7 69t19 77.5t28.5 77t36 67t41.5 47.5t44 18
q32 0 72 -31.5t75.5 -88t60 -133.5t24.5 -169zM1200 1031q-35 35 -73 63t-83 54q58 67 90 140q32 -29 66 -54.5t69 -44.5q25 28 46 59t36 66l72 -58.5t82 -49.5q-28 -35 -53.5 -70.5t-44.5 -73.5q-26 28 -59.5 52.5t-71.5 44.5q-23 -29 -42.5 -61t-33.5 -67zM1259 1271
l-77.5 59.5t-84.5 52.5l59.5 74t52.5 81l71 -63.5t78 -52.5q-62 -70 -99 -151zM1371 648q0 17 -11 35t-25.5 32t-27.5 23t-17 9q-6 0 -16.5 -14.5t-20 -35.5t-17 -44t-7.5 -40q0 -3 7 -8t17.5 -9.5t22 -8t19.5 -3.5q12 0 25.5 5t25 14t18.5 20.5t7 24.5z" />
    <glyph glyph-name="uniFB6B" unicode="&#x6a4;" horiz-adv-x="1930" arabic-form="final" 
d="M1447 949q-33 33 -71.5 62.5t-83.5 55.5q29 34 51 67.5t39 71.5q32 -28 65.5 -54t68.5 -45q26 29 47.5 60t34.5 65l72 -58t81 -48l-51.5 -70.5t-44.5 -73.5q-26 26 -59.5 50.5t-70.5 45.5q-50 -56 -78 -129zM1506 1189l-77 61t-83 51l59.5 74.5t50.5 81.5q35 -34 71 -65
t77 -52q-31 -34 -55 -71.5t-43 -79.5zM1372 500q0 -16 15.5 -36.5t36.5 -38.5t43 -30t35 -12q7 0 33 5t54 18t50 34t22 54q0 27 -9.5 51t-25.5 43t-38 30t-46 11q-22 0 -51 -10.5t-55.5 -28t-45 -41t-18.5 -49.5zM1910 105q-96 0 -177 17t-144 38t-105 38t-60 17
q-19 0 -44.5 -10.5l-64 -26t-93 -34t-132 -34t-181.5 -26t-241 -10.5q-76 0 -155 5t-153 18.5t-139.5 38t-114.5 63t-77.5 93.5t-28.5 129q0 57 15.5 112.5t36 99t40 70.5t28.5 27q10 0 10 -11q0 -9 -6 -25t-13.5 -38t-14 -49t-6.5 -58q0 -64 38 -110.5t97.5 -78.5
t133 -51.5t144.5 -30.5t132 -14.5t95 -3.5q130 0 235 6.5t179.5 16.5t114.5 22t40 24q0 17 -5 32.5t-5 32.5q0 52 20 105t52 103t72.5 93.5t80 76t75 51t58.5 18.5t41 -22.5t31 -57t19.5 -76.5t6.5 -80q0 -60 -17 -109t-37 -85t-37 -59.5t-17 -33.5t23.5 -18t64 -12.5
t93.5 -7t112 -2.5h10q15 0 22.5 -27t7.5 -59.5t-7.5 -59.5t-22.5 -27h-30z" />
    <glyph glyph-name="uniFB6C" unicode="&#x6a4;" horiz-adv-x="726" arabic-form="initial" 
d="M218 1029q-34 34 -72 62.5t-83 54.5q29 35 51 68.5t39 71.5q32 -29 67 -54.5t70 -44.5q23 28 45 58.5t36 65.5l71.5 -58t81.5 -49q-28 -35 -52.5 -70.5t-44.5 -74.5q-25 29 -59 53.5t-72 44.5q-24 -29 -44 -61t-34 -67zM278 1268l-78 60.5t-82 52.5l59 74t52 81
q32 -35 68.5 -65t80.5 -51q-32 -35 -56.5 -72.5t-43.5 -79.5zM363 631q0 18 -11 35.5t-25.5 31.5t-27.5 23t-17 9q-6 0 -16.5 -14.5t-20 -35t-17 -43.5t-7.5 -41q0 -13 14 -19.5t34 -6.5q15 0 32 4t30.5 11.5t22.5 19t9 26.5zM0 278q9 0 48.5 1t93.5 5.5t114.5 14t111 26.5
t84 43.5t33.5 64.5t-13.5 59.5t-29.5 34.5q-32 -48 -76.5 -79t-110.5 -31q-33 0 -55.5 5.5t-36.5 20.5t-20 40t-6 64q0 31 7 69.5t19 78t29 77t36.5 67t41 47.5t43.5 18q32 0 72.5 -32t76 -88t60 -133.5t24.5 -168.5q0 -85 -26.5 -146t-70 -103t-99 -67t-114 -38.5t-115 -18
t-101.5 -4.5h-30q-15 0 -22.5 27t-7.5 59.5t7.5 59.5t22.5 27h10z" />
    <glyph glyph-name="uniFB6D" unicode="&#x6a4;" horiz-adv-x="860" arabic-form="medial" 
d="M312 949q-67 67 -157 118q60 69 91 139q32 -28 66 -54t69 -45q25 29 46 60t36 65l72 -58t81 -48l-52.5 -70.5t-43.5 -73.5q-26 26 -60 50.5t-71 45.5q-23 -28 -43 -61t-34 -68zM371 1189l-77.5 61t-83.5 51l59.5 74.5t51.5 81.5q34 -34 70 -65t78 -52q-60 -67 -98 -151z
M295 500q0 -16 16 -36.5t37.5 -38.5t43 -30t32.5 -12q8 0 34 5t54.5 18t50.5 34t22 54q0 27 -9.5 51t-26 43t-38.5 30t-46 11q-22 0 -51.5 -10.5t-55.5 -28t-44.5 -41t-18.5 -49.5zM0 278q29 0 67 3.5t72.5 10t58.5 16t24 21.5q0 17 -4.5 32.5t-4.5 32.5q0 52 20 105t52 103
t72 93.5t80 76t75.5 51t58.5 18.5t41 -22.5t30.5 -57t19 -76.5t6.5 -80q0 -60 -17 -109t-37 -85t-37 -59.5t-17 -33.5t26.5 -18t69 -12.5t96.5 -7t108 -2.5h10q15 0 22.5 -27t7.5 -59.5t-7.5 -59.5t-22.5 -27h-30q-141 0 -228.5 17.5t-134.5 39.5q-48 22 -77.5 37.5
t-51.5 15.5q-14 0 -44.5 -17t-73.5 -38t-96.5 -38t-113.5 -17h-30q-15 0 -22.5 27t-7.5 59.5t7.5 59.5t22.5 27h10z" />
    <glyph glyph-name="uni06A9" unicode="&#x6a9;" horiz-adv-x="1830" arabic-form="isolated" 
d="M763 942q1 57 51.5 115.5t134 116t190.5 112.5t219.5 105.5t222.5 94.5l199 80l-107 -215q-39 -10 -94.5 -29t-119.5 -43.5t-133.5 -54l-137 -61t-129.5 -63.5t-111 -61.5t-81 -55.5t-41 -45q0 -12 17.5 -26t68.5 -33q39 -14 83.5 -37t89 -55t85.5 -72.5t72.5 -89
t50 -105t18.5 -120.5q0 -69 -32 -120.5t-86.5 -87.5t-127.5 -59t-155 -36t-168.5 -18t-168.5 -5q-52 0 -115 6.5t-126.5 22t-123.5 41t-106 64t-74 91.5t-28 122q0 57 15.5 112.5t36 99t40 70.5t28.5 27q10 0 10 -11q0 -9 -6 -25t-13.5 -38t-14 -49t-6.5 -58
q0 -58 22.5 -101.5t61 -76t91 -54t112.5 -34t125.5 -18t129.5 -5.5q65 0 135.5 4.5t139.5 12.5t131.5 20t109.5 28t75 34.5t28 40.5q0 16 -27.5 55.5t-77 87.5t-118.5 98t-152 87q-40 18 -63 39.5t-34.5 47.5t-14 57.5t-2.5 69.5h1z" />
    <glyph glyph-name="uniFB8F" unicode="&#x6a9;" horiz-adv-x="1890" arabic-form="final" 
d="M1002 839q79 -32 154 -86.5t148 -117l145 -126t144.5 -115t146 -84t150.5 -32.5h10q15 0 22.5 -27t7.5 -59.5t-7.5 -59.5t-22.5 -27h-30q-51 0 -103.5 18t-104 48.5t-101 71t-94.5 85t-85 91l-73 88.5q-8 -73 -19.5 -125.5t-27.5 -90.5t-37.5 -63.5t-51 -44t-67 -32.5
t-85.5 -28q-46 -13 -104.5 -22t-119.5 -15t-119.5 -9t-104.5 -3q-52 0 -115 6.5t-126.5 22t-123.5 41t-106 64t-74 91.5t-28 122q0 57 15.5 112.5t36 99t40 70.5t28.5 27q10 0 10 -11q0 -9 -6 -25t-13.5 -38t-14 -49t-6.5 -58q0 -57 22 -101t60.5 -76t90 -53.5t110 -34.5
t121.5 -18.5t124 -5.5q149 0 263.5 15t192 40.5t117 58.5t39.5 69q0 35 -9 61.5t-37 51t-79 51.5t-134 63q-54 23 -88 55.5t-53.5 69t-27 74.5t-7.5 72q0 58 50.5 116.5t134 116t190 112.5t219.5 105.5t223 94.5l199 80l-107 -215q-41 -10 -99 -30t-125.5 -46t-139.5 -57.5
l-141.5 -64t-132 -65.5t-109.5 -63t-74.5 -55.5t-27.5 -43.5q0 -9 12.5 -20.5t32.5 -23t47 -22.5t55 -21z" />
    <glyph glyph-name="uniFB90" unicode="&#x6a9;" horiz-adv-x="1085" arabic-form="initial" 
d="M21 922q0 34 12 66t38.5 64.5t67.5 65.5t99 70q181 113 463 231l147 60.5l91.5 36t56 22t39.5 17.5l-109 -215q-100 -26 -223 -73t-281 -121q-66 -31 -124 -62t-103 -59.5t-74 -53t-37 -41.5q5 -14 22 -23t53 -24q54 -23 93.5 -42t63.5 -34q97 -57 165 -144
q98 -122 98 -265q0 -74 -27 -129t-78.5 -91.5t-126.5 -54.5t-170 -18h-187q-15 0 -22.5 27t-7.5 59.5t7.5 59.5t22.5 27h10q91 0 149 0.5t97 3t65.5 6.5t54.5 11q29 8 56.5 20.5t48.5 27t34 28.5t13 24q0 19 -16.5 44.5t-44 55t-62.5 60.5t-73 59.5t-75 52t-68 38.5l-67 31
q-51 25 -71 67t-20 115z" />
    <glyph glyph-name="uniFB91" unicode="&#x6a9;" horiz-adv-x="1100" arabic-form="medial" 
d="M75 105h-85q-15 0 -22.5 27t-7.5 59.5t7.5 59.5t22.5 27h10q36 0 83 2t97.5 8t99.5 17.5t87.5 30.5t62 47t23.5 66q0 28 -8 50.5t-27 43t-51 40.5t-81 42l-86 39q-50 23 -84 54.5t-55 66.5t-30.5 70.5t-9.5 66.5q0 34 12 66t38.5 64.5t67.5 65.5t99 70q181 113 463 231
l147 60.5l91.5 36t56 22t39.5 17.5l-109 -215q-100 -26 -223 -73t-281 -121q-72 -33 -134 -67t-108 -64t-72 -55t-26 -40q0 -18 42.5 -40t111.5 -50q76 -36 149 -90.5t144 -116l141 -123t140.5 -111t142.5 -80.5t147 -31h10q15 0 22.5 -27t7.5 -59.5t-7.5 -59.5t-22.5 -27
h-30q-76 0 -152.5 37t-148 94.5t-135 126t-113.5 131.5q-13 -99 -37 -172t-73.5 -121t-132.5 -72t-213 -24z" />
    <glyph glyph-name="uni06AB.ini" unicode="&#x6ab;" horiz-adv-x="1085" 
d="M538 1062q53 -45 108 -45q20 0 46 7t46 18v9q0 32 -11.5 57t-29 42t-38.5 26t-41 9q-28 0 -47.5 -28.5t-32.5 -94.5zM608 890q-23 0 -46 10.5t-41 28.5t-29.5 43t-11.5 54q0 36 10.5 80t30.5 95q47 128 108 128q30 0 60 -23t54 -59t38.5 -81t14.5 -89q0 -40 -12 -74.5
t-35.5 -59.5t-58.5 -39t-82 -14zM21 922q0 34 12 66t38.5 64.5t67.5 65.5t99 70q181 113 463 231l147 60.5l91.5 36t56 22t39.5 17.5l-109 -215q-100 -26 -223 -73t-281 -121q-66 -31 -124 -62t-103 -59.5t-74 -53t-37 -41.5q5 -14 22 -23t53 -24q54 -23 93.5 -42t63.5 -34
q97 -57 165 -144q98 -122 98 -265q0 -74 -27 -129t-78.5 -91.5t-126.5 -54.5t-170 -18h-187q-15 0 -22.5 27t-7.5 59.5t7.5 59.5t22.5 27h10q91 0 149 0.5t97 3t65.5 6.5t54.5 11q29 8 56.5 20.5t48.5 27t34 28.5t13 24q0 19 -16.5 44.5t-44 55t-62.5 60.5t-73 59.5t-75 52
t-68 38.5l-67 31q-51 25 -71 67t-20 115z" />
    <glyph glyph-name="uni06AB.med" unicode="&#x6ab;" horiz-adv-x="1100" 
d="M538 1062q53 -45 108 -45q20 0 46 7t46 18v9q0 32 -11.5 57t-29 42t-38.5 26t-41 9q-28 0 -47.5 -28.5t-32.5 -94.5zM608 890q-23 0 -46 10.5t-41 28.5t-29.5 43t-11.5 54q0 36 10.5 80t30.5 95q47 128 108 128q30 0 60 -23t54 -59t38.5 -81t14.5 -89q0 -40 -12 -74.5
t-35.5 -59.5t-58.5 -39t-82 -14zM75 105h-85q-15 0 -22.5 27t-7.5 59.5t7.5 59.5t22.5 27h10q36 0 83 2t97.5 8t99.5 17.5t87.5 30.5t62 47t23.5 66q0 28 -8 50.5t-27 43t-51 40.5t-81 42l-86 39q-50 23 -84 54.5t-55 66.5t-30.5 70.5t-9.5 66.5q0 34 12 66t38.5 64.5
t67.5 65.5t99 70q181 113 463 231l147 60.5l91.5 36t56 22t39.5 17.5l-109 -215q-100 -26 -223 -73t-281 -121q-72 -33 -134 -67t-108 -64t-72 -55t-26 -40q0 -18 42.5 -40t111.5 -50q76 -36 149 -90.5t144 -116l141 -123t140.5 -111t142.5 -80.5t147 -31h10q15 0 22.5 -27
t7.5 -59.5t-7.5 -59.5t-22.5 -27h-30q-76 0 -152.5 37t-148 94.5t-135 126t-113.5 131.5q-13 -99 -37 -172t-73.5 -121t-132.5 -72t-213 -24z" />
    <glyph glyph-name="uni06AB.fin" unicode="&#x6ab;" horiz-adv-x="1890" 
d="M1315 1062q53 -45 108 -45q20 0 46 7t46 18v9q0 32 -11.5 57t-29 42t-38.5 26t-41 9q-28 0 -47.5 -28.5t-32.5 -94.5zM1385 890q-23 0 -46 10.5t-41 28.5t-29.5 43t-11.5 54q0 36 10.5 80t30.5 95q47 128 108 128q30 0 60 -23t54 -59t38.5 -81t14.5 -89q0 -40 -12 -74.5
t-35.5 -59.5t-58.5 -39t-82 -14zM1002 839q79 -32 154 -86.5t148 -117l145 -126t144.5 -115t146 -84t150.5 -32.5h10q15 0 22.5 -27t7.5 -59.5t-7.5 -59.5t-22.5 -27h-30q-51 0 -103.5 18t-104 48.5t-101 71t-94.5 85t-85 91l-73 88.5q-8 -73 -19.5 -125.5t-27.5 -90.5
t-37.5 -63.5t-51 -44t-67 -32.5t-85.5 -28q-46 -13 -104.5 -22t-119.5 -15t-119.5 -9t-104.5 -3q-52 0 -115 6.5t-126.5 22t-123.5 41t-106 64t-74 91.5t-28 122q0 57 15.5 112.5t36 99t40 70.5t28.5 27q10 0 10 -11q0 -9 -6 -25t-13.5 -38t-14 -49t-6.5 -58q0 -57 22 -101
t60.5 -76t90 -53.5t110 -34.5t121.5 -18.5t124 -5.5q149 0 263.5 15t192 40.5t117 58.5t39.5 69q0 35 -9 61.5t-37 51t-79 51.5t-134 63q-54 23 -88 55.5t-53.5 69t-27 74.5t-7.5 72q0 58 50.5 116.5t134 116t190 112.5t219.5 105.5t223 94.5l199 80l-107 -215
q-41 -10 -99 -30t-125.5 -46t-139.5 -57.5l-141.5 -64t-132 -65.5t-109.5 -63t-74.5 -55.5t-27.5 -43.5q0 -9 12.5 -20.5t32.5 -23t47 -22.5t55 -21z" />
    <glyph glyph-name="uni06AD" unicode="&#x6ad;" horiz-adv-x="1252" arabic-form="isolated" 
d="M25 335l48.5 -24t41.5 -15t57.5 -9.5t94.5 -7.5q5 0 27.5 -0.5t50 -1l55 -1t40.5 -0.5q156 0 262 3.5t170.5 13.5t92 29.5t27.5 50.5q0 27 -13 85l-24 116l-24.5 115.5l-25.5 123.5l-27.5 139.5l-31 165t-34.5 197.5q-5 25 -9.5 43.5t-10 33.5t-11.5 28t-14 26
q27 28 53.5 60t55.5 76q35 -60 68 -109t61 -71q-40 -19 -54.5 -49t-14.5 -86q0 -112 64 -374l32.5 -128.5t22.5 -97.5t13 -90.5t4 -107.5q0 -71 -12 -134t-36 -111t-59.5 -79.5t-83.5 -39.5q-13 -2 -47.5 -4.5t-78 -4l-89.5 -3t-82 -1.5l-254 -3q-55 0 -102.5 0.5t-88 5.5
t-75 18t-64.5 37zM491 1250l15 -122q-63 -15 -97.5 -37t-34.5 -45q0 -7 2.5 -12.5t10 -10.5t22 -10l37.5 -13q68 -22 95 -43t27 -52q0 -33 -18.5 -73.5t-48.5 -76.5t-67.5 -60.5t-75.5 -24.5q-34 0 -86 17.5t-106 48.5l3 27q12 0 23.5 -0.5t22.5 -0.5q51 0 94 4.5t74.5 13
t49 20.5t17.5 27q-1 6 -4.5 9.5t-13.5 6.5t-27.5 7.5l-46.5 12.5q-105 32 -105 81q0 37 22.5 85.5t57 94t76.5 80.5t82 46zM740 1609q-66 67 -155 116q29 35 51 69t39 72q32 -29 66.5 -55t70.5 -45l45 59.5t36 65.5l71.5 -58.5t81.5 -48.5q-28 -35 -53 -70.5t-44 -74.5
q-25 29 -59 53.5t-72 44.5q-49 -58 -78 -128zM800 1848l-78 60.5t-83 51.5l59.5 74.5t52.5 81.5q32 -35 68.5 -65t80.5 -52q-32 -35 -56.5 -72t-43.5 -79z" />
    <glyph glyph-name="uniFBD4" unicode="&#x6ad;" horiz-adv-x="1670" arabic-form="final" 
d="M880 1250l15 -122q-63 -15 -98 -37t-35 -45q0 -7 2.5 -12.5t10.5 -10.5t22.5 -10l37.5 -13q67 -23 94.5 -43.5t27.5 -51.5q0 -33 -19 -73.5t-49 -76.5t-67.5 -60.5t-74.5 -24.5q-35 0 -86.5 17.5t-106.5 48.5l4 27q11 0 23 -0.5t23 -0.5q51 0 94 4.5t74.5 13t49 20.5
t17.5 27q-1 6 -5 9.5t-14 6.5t-27.5 7.5t-45.5 12.5q-105 31 -105 81q0 37 22.5 85.5t57 94t76.5 80.5t82 46zM1273 1518q-67 66 -156 117q29 35 51.5 69t39.5 72q32 -29 66.5 -55t69.5 -45l45 59.5t36 65.5l71.5 -58.5t81.5 -48.5q-28 -35 -52.5 -71t-43.5 -74
q-26 29 -60 53t-72 44q-49 -58 -77 -128zM1332 1758l-77.5 60.5t-82.5 51.5l59.5 74t51.5 81q32 -35 68.5 -65t80.5 -51q-32 -35 -56 -72t-44 -79zM1401 364l-28 -2q-25 -67 -47 -111.5t-45 -74t-49 -45.5t-58 -26q-38 -11 -96 -19.5t-138 -15.5q-157 -12 -360 -12
q-293 0 -436.5 78.5t-143.5 238.5q0 44 13.5 94.5t33.5 93.5t43 72t42 29q12 0 12 -12q0 -11 -13 -27q-42 -58 -42 -107q0 -58 35 -107.5t103.5 -86t170.5 -57t236 -20.5q127 0 222 3t164 9.5t116 16t79 22.5q72 30 103.5 84.5t31.5 145.5l-4 378q-9 99 -15.5 180.5l-11 140
t-6.5 90.5l-2 32l102 132l3 -125q0 -42 2.5 -105.5t6.5 -136t9 -148t10 -142t10 -118t8 -75.5q11 -84 20.5 -142.5t21 -98t25.5 -62t33.5 -33.5t46 -14t61.5 -3h10q15 0 22.5 -27t7.5 -59.5t-7.5 -59.5t-22.5 -27h-30q-46 0 -84.5 8.5t-69 34.5t-53.5 73t-39 123z" />
    <glyph glyph-name="uniFBD5" unicode="&#x6ad;" horiz-adv-x="1085" arabic-form="initial" 
d="M0 278q120 0 204 5t140.5 13.5t88.5 20.5t48.5 25.5t20.5 28t4 29.5t-27.5 55t-77 88.5t-118 98.5t-151.5 86q-41 18 -63.5 37t-33 43t-12.5 54.5t-2 72.5q0 30 2 51.5t9 39.5t20.5 33.5t35.5 32.5q37 28 90.5 59.5t117.5 65t135.5 67l143.5 65.5l141.5 61l130 53
t109.5 41t79 26l-82 -165l-137 -51.5l-160 -63l-166 -69l-156 -69.5t-129 -64.5t-85 -53.5q-11 -8 -22.5 -23.5t-15.5 -28.5q5 -20 23.5 -33t61.5 -30q39 -15 84 -38.5t89.5 -55.5t85.5 -72t72.5 -88t50 -104.5t18.5 -120.5q0 -61 -17.5 -107t-49 -79t-73.5 -54t-91 -33
t-102.5 -17t-107.5 -5h-136q-15 0 -22.5 27t-7.5 59.5t7.5 59.5t22.5 27h10zM258 1407q-34 34 -72 62.5t-83 54.5q29 35 51 68.5t39 71.5q32 -29 66.5 -54.5t70.5 -44.5q23 28 45 58.5t36 65.5l71.5 -58t81.5 -49q-28 -35 -53 -70.5t-44 -74.5q-25 29 -59 53.5t-72 44.5
q-49 -58 -78 -128zM318 1646l-78 60.5t-82 52.5l58.5 74t52.5 81q32 -35 68.5 -65t80.5 -51q-32 -35 -56.5 -72.5t-43.5 -79.5z" />
    <glyph glyph-name="uniFBD6" unicode="&#x6ad;" horiz-adv-x="1100" arabic-form="medial" 
d="M258 1407q-34 34 -72 62.5t-83 54.5q29 35 51 68.5t39 71.5q32 -29 66.5 -54.5t70.5 -44.5q23 28 45 58.5t36 65.5l71.5 -58t81.5 -49q-28 -35 -53 -70.5t-44 -74.5q-25 29 -59 53.5t-72 44.5q-49 -58 -78 -128zM318 1646l-78 60.5t-82 52.5l58.5 74t52.5 81
q32 -35 68.5 -65t80.5 -51q-32 -35 -56.5 -72.5t-43.5 -79.5zM950 1365l-136.5 -51.5l-159.5 -63l-166 -69l-155.5 -69t-128.5 -64t-84 -54.5q-6 -4 -13 -12t-12.5 -17t-9.5 -17t-4 -13q0 -4 3 -11t15.5 -18.5t37.5 -28t69 -39.5q79 -33 155.5 -87t152 -116.5l150 -126
t147.5 -114.5t145.5 -83.5t143.5 -32.5h10q15 0 22.5 -27t7.5 -59.5t-7.5 -59.5t-22.5 -27h-30q-49 0 -101 18t-104 48.5t-103 71t-98 85t-88 91t-74 88.5q-10 -91 -28.5 -156.5t-46.5 -110.5t-66.5 -71.5t-90 -40.5t-116 -18.5t-144.5 -4.5h-30q-15 0 -22.5 27t-7.5 59.5
t7.5 59.5t22.5 27h10q218 0 325.5 43.5t107.5 121.5q0 29 -7 55t-35.5 54.5t-85.5 62.5t-157 80q-60 29 -93.5 92t-33.5 148q0 30 2 51.5t9 39.5t20.5 33.5t35.5 32.5q37 28 90.5 59.5t117 65t134.5 67l143 65.5l141.5 61l130 53t109 41t78.5 26z" />
    <glyph glyph-name="afii57509" unicode="&#x6af;" horiz-adv-x="1830" arabic-form="isolated" 
d="M762 956q1 35 8 58.5t21.5 42t37 36t54.5 38.5q80 52 173.5 99.5t204 95.5l239.5 100l280 112l-82 -173l-137 -52.5l-160 -64.5l-166 -69.5l-156 -69t-130 -63.5t-88 -52q-19 -13 -28 -26t-9 -24q0 -17 24 -33.5t64 -31.5q39 -14 83.5 -37t89 -54.5t85.5 -72t72.5 -89
t50 -105t18.5 -121.5q0 -69 -32 -120.5t-86.5 -87.5t-127.5 -59t-155 -36t-168.5 -18t-168.5 -5q-52 0 -115 6.5t-126.5 22t-123.5 41t-106 64t-74 91.5t-28 122q0 57 15.5 112.5t36 99t40 70.5t28.5 27q10 0 10 -11q0 -9 -6 -25t-13.5 -38t-14 -49t-6.5 -58
q0 -58 22.5 -101.5t61 -76t91 -54t112.5 -34t125.5 -18t129.5 -5.5q65 0 135.5 4.5t139.5 12.5t131.5 20t109.5 28t75 34.5t28 40.5q0 16 -27.5 55.5t-77 87.5t-118.5 98t-152 87q-40 18 -63 41.5t-34.5 52.5t-14 62.5t-2.5 71.5zM862 1342q45 35 113 78t149 89l170 92.5
t176 87.5t167 74.5t143 53.5l-67 -133l-94.5 -43.5l-136.5 -65.5l-162 -80l-171 -88.5l-162.5 -90t-137.5 -84.5z" />
    <glyph glyph-name="uniFB93" unicode="&#x6af;" horiz-adv-x="1890" arabic-form="final" 
d="M1002 839q79 -32 154 -86.5t148 -117l145 -126t144.5 -115t146 -84t150.5 -32.5h10q15 0 22.5 -27t7.5 -59.5t-7.5 -59.5t-22.5 -27h-30q-51 0 -103.5 18t-104 48.5t-101 71t-94.5 85t-85 91l-73 88.5q-8 -73 -19.5 -126t-27.5 -91.5t-37.5 -64t-51 -44t-67 -32
t-85.5 -26.5q-46 -13 -104.5 -22t-119.5 -15t-119.5 -9t-104.5 -3q-52 0 -115 6.5t-126.5 22t-123.5 41t-106 64t-74 91.5t-28 122q0 57 15.5 112.5t36 99t40 70.5t28.5 27q10 0 10 -11q0 -9 -6 -25t-13.5 -38t-14 -49t-6.5 -58q0 -57 22 -101t60.5 -76t90 -53.5t110 -34.5
t121.5 -18.5t124 -5.5q149 0 263.5 15t192 40.5t117 58.5t39.5 69q0 30 -6.5 55t-30.5 50.5t-71 54.5t-129 67q-57 26 -91.5 52t-53 56.5t-24.5 70t-6 92.5q0 39 6.5 65.5t20.5 47t37 38t57 39.5q80 52 169 99.5t195 95.5l231 100l275 112l-82 -173q-60 -22 -135 -52.5
l-154.5 -64.5l-159.5 -69.5l-150 -69t-125 -63.5t-86 -52q-15 -11 -27 -24.5t-12 -34.5q0 -5 4 -14.5t17 -22t37.5 -27.5t65.5 -32zM891 1342q45 35 113.5 78t149.5 89l170 92.5t176 87.5t166.5 74.5t142.5 53.5l-66 -133l-94.5 -43.5l-137 -65.5l-162.5 -80l-170.5 -88.5
l-162.5 -90t-137 -84.5z" />
    <glyph glyph-name="uniFB94" unicode="&#x6af;" horiz-adv-x="1085" arabic-form="initial" 
d="M118 1342q45 35 113 78t149 89l170 92.5t176 87.5t166.5 74.5t142.5 53.5l-66 -133l-94.5 -43.5l-136.5 -65.5l-162.5 -80.5l-171 -88.5l-162.5 -89.5t-138 -84.5zM0 278q120 0 204 5t140.5 13.5t88.5 20.5t48.5 25.5t20.5 28t4 29.5t-27.5 55t-77 88.5t-118 98.5
t-151.5 86q-41 18 -63.5 37t-33 43t-12.5 54.5t-2 72.5q0 30 2 51.5t9 39.5t20.5 33.5t35.5 32.5q37 28 90.5 59.5t117.5 65t135.5 67l143.5 65.5l141.5 61l130 53t109.5 41t79 26l-82 -165l-137 -51.5l-160 -63l-166 -69l-156 -69.5t-129 -64.5t-85 -53.5
q-11 -8 -22.5 -23.5t-15.5 -28.5q5 -20 23.5 -33t61.5 -30q39 -15 84 -38.5t89.5 -55.5t85.5 -72t72.5 -88t50 -104.5t18.5 -120.5q0 -61 -17.5 -107t-49 -79t-73.5 -54t-91 -33t-102.5 -17t-107.5 -5h-136q-15 0 -22.5 27t-7.5 59.5t7.5 59.5t22.5 27h10z" />
    <glyph glyph-name="uniFB95" unicode="&#x6af;" horiz-adv-x="1100" arabic-form="medial" 
d="M115 1342q45 35 113 78t149 89l170 92.5t176 87.5t166.5 74.5t142.5 53.5l-66 -133l-94.5 -43.5l-136.5 -65.5l-162.5 -80.5l-171 -88.5l-162.5 -89.5t-138 -84.5zM950 1365l-136.5 -51.5l-159.5 -63l-166 -69l-155.5 -69t-128.5 -64t-84 -54.5q-6 -4 -13 -12t-12.5 -17
t-9.5 -17t-4 -13q0 -4 3 -11t15.5 -18.5t37.5 -28t69 -39.5q79 -33 155.5 -87t152 -116.5l150 -126t147.5 -114.5t145.5 -83.5t143.5 -32.5h10q15 0 22.5 -27t7.5 -59.5t-7.5 -59.5t-22.5 -27h-30q-49 0 -101 18t-104 48.5t-103 71t-98 85t-88 91t-74 88.5
q-10 -91 -28.5 -156.5t-46.5 -110.5t-66.5 -71.5t-90 -40.5t-116 -18.5t-144.5 -4.5h-30q-15 0 -22.5 27t-7.5 59.5t7.5 59.5t22.5 27h10q218 0 325.5 43.5t107.5 121.5q0 29 -7 55t-35.5 54.5t-85.5 62.5t-157 80q-60 29 -93.5 92t-33.5 148q0 30 2 51.5t9 39.5t20.5 33.5
t35.5 32.5q37 28 90.5 59.5t117 65t134.5 67l143 65.5l141.5 61l130 53t109 41t78.5 26z" />
    <glyph glyph-name="uni06B5.ini" unicode="&#x6b5;" horiz-adv-x="553" 
d="M67 2038q13 -14 23 -26.5t19 -26.5t18 -31.5l21 -41.5q7 -13 16.5 -37l21 -51.5l22.5 -56l19.5 -52l14 -38t4.5 -14.5q4 23 17 60t28.5 76t31 73t24.5 51l41.5 68t40.5 58q2 -8 3.5 -19l3 -23t2.5 -23t1 -19q-18 -20 -38.5 -58t-41.5 -84t-40.5 -95.5t-34.5 -92t-24 -74
t-9 -41.5q0 -4 1 -4q-2 0 -9.5 -3t-14.5 -3q-8 0 -11 7l-32 104.5t-24.5 72.5t-22.5 57t-28 58q-18 35 -39 67.5t-47 63.5q11 30 21 54.5t22 43.5zM373 1246q-42 -27 -64.5 -66t-22.5 -87q0 -11 3 -28l7 -41q14 -77 22.5 -133t14.5 -100.5t10.5 -83.5l9.5 -81q1 -7 2.5 -25
l3 -37t2.5 -35t1 -21q0 -38 -7.5 -91t-22 -104t-35.5 -93t-48 -57q-22 -15 -51 -25.5t-59.5 -18t-61.5 -11t-57 -3.5h-30q-15 0 -22.5 27t-7.5 59.5t7.5 59.5t22.5 27h10q99 0 154.5 7.5t83 25.5t34 47t8.5 71q-1 30 -7 85l-14 123.5t-18.5 146t-22.5 152t-24 141t-23 113.5
q-5 20 -11.5 42.5t-17.5 48.5l112 151q37 -113 119 -186z" />
    <glyph glyph-name="uni06B5.med" unicode="&#x6b5;" horiz-adv-x="550" 
d="M67 2038q13 -14 23 -26.5t19 -26.5t18 -31.5l21 -41.5q7 -13 16.5 -37l21 -51.5l22.5 -56l19.5 -52l14 -38t4.5 -14.5q4 23 17 60t28.5 76t31 73t24.5 51l41.5 68t40.5 58q2 -8 3.5 -19l3 -23t2.5 -23t1 -19q-18 -20 -38.5 -58t-41.5 -84t-40.5 -95.5t-34.5 -92t-24 -74
t-9 -41.5q0 -4 1 -4q-2 0 -9.5 -3t-14.5 -3q-8 0 -11 7l-32 104.5t-24.5 72.5t-22.5 57t-28 58q-18 35 -39 67.5t-47 63.5q11 30 21 54.5t22 43.5zM176 1303q26 35 55.5 68.5t64.5 64.5q-1 -26 -1 -52v-52q0 -79 2.5 -159.5t8.5 -166t15 -177.5t21 -193q14 -84 19.5 -150.5
t22 -112.5t53.5 -70.5t113 -24.5h10q15 0 22.5 -27t7.5 -59.5t-7.5 -59.5t-22.5 -27h-30q-54 0 -91 15.5t-65 45.5t-49.5 74.5t-44.5 102.5q-34 -66 -62 -111t-57 -73.5t-62.5 -41t-78.5 -12.5h-30q-15 0 -22.5 27t-7.5 59.5t7.5 59.5t22.5 27h10q75 0 122 12.5t73.5 41
t36 74t9.5 110.5q0 105 -5.5 216t-17.5 230q-5 59 -10.5 107.5t-11 89.5l-10.5 76.5t-10 67.5z" />
    <glyph glyph-name="uni06B5.fin" unicode="&#x6b5;" horiz-adv-x="1160" 
d="M641 2038l22 -26.5t19 -26.5t18.5 -31.5t20.5 -41.5q7 -13 17 -37l21 -51.5l22 -56l20 -52t14 -38t4 -14.5q5 23 17.5 60t28.5 76t31.5 73t24.5 51q20 36 41 68t41 58q2 -8 3.5 -19t2.5 -23l2 -23t1 -19q-17 -20 -38 -58t-42 -84t-40.5 -95.5t-34.5 -92t-24 -74t-9 -41.5
q0 -4 1 -4q-2 0 -9 -3t-15 -3q-7 0 -10 7l-33 104.5t-24 72.5t-22 57t-28 58q-19 35 -40 67.5t-47 63.5q11 30 21.5 54.5t22.5 43.5zM894 1435q2 -85 5.5 -173.5t8.5 -174.5t11.5 -167t13.5 -152t14 -128.5t13 -95.5q14 -83 28.5 -135t36.5 -81t54 -39.5t81 -10.5h10
q15 0 22.5 -27t7.5 -59.5t-7.5 -59.5t-22.5 -27h-30q-79 0 -124 37.5t-74 107.5q-6 -46 -7 -108.5t-1 -128t-1.5 -126t-8.5 -102.5q-17 -101 -71 -176.5t-131 -125.5t-171 -75t-192 -25q-79 0 -145 24t-113.5 68t-74 106t-26.5 138q0 36 9 82.5t24 95t35.5 97t44.5 88.5
q70 116 91 116q12 0 12 -13q0 -15 -40 -95q-53 -107 -77.5 -179.5t-24.5 -129.5q0 -103 87.5 -160.5t245.5 -57.5q79 0 160 22t147 59.5t107.5 88t41.5 107.5q0 4 -1 21.5t-2 39.5l-2 43.5t-2 34.5q-3 79 -6 140l-5.5 114l-5 102t-4.5 104.5l-4.5 122t-5.5 154.5l-10.5 178
t-7.5 128l-5 91.5t-3.5 68.5t-2.5 59t-2 62q12 17 22 29.5t20.5 27l24 32z" />
    <glyph glyph-name="uni06B6.ini" unicode="&#x6b6;" horiz-adv-x="553" 
d="M197 1841q78 -80 146 -118l-27.5 -33t-21.5 -29.5t-21 -35t-27 -50.5q-33 29 -71 55.5t-88 55.5q22 27 41.5 53.5l34.5 48t24 36t10 17.5zM373 1246q-42 -27 -64.5 -66t-22.5 -87q0 -11 3 -28l7 -41q14 -77 22.5 -133t14.5 -100.5t10.5 -83.5l9.5 -81q1 -7 2.5 -25l3 -37
t2.5 -35t1 -21q0 -38 -7.5 -91t-22 -104t-35.5 -93t-48 -57q-22 -15 -51 -25.5t-59.5 -18t-61.5 -11t-57 -3.5h-30q-15 0 -22.5 27t-7.5 59.5t7.5 59.5t22.5 27h10q99 0 154.5 7.5t83 25.5t34 47t8.5 71q-1 30 -7 85l-14 123.5t-18.5 146t-22.5 152t-24 141t-23 113.5
q-5 20 -11.5 42.5t-17.5 48.5l112 151q37 -113 119 -186z" />
    <glyph glyph-name="uni06B6.med" unicode="&#x6b6;" horiz-adv-x="550" 
d="M197 1841q78 -80 146 -118l-27.5 -33t-21.5 -29.5t-21 -35t-27 -50.5q-33 29 -71 55.5t-88 55.5q22 27 41.5 53.5l34.5 48t24 36t10 17.5zM176 1303q26 35 55.5 68.5t64.5 64.5q-1 -26 -1 -52v-52q0 -79 2.5 -159.5t8.5 -166t15 -177.5t21 -193q14 -84 19.5 -150.5
t22 -112.5t53.5 -70.5t113 -24.5h10q15 0 22.5 -27t7.5 -59.5t-7.5 -59.5t-22.5 -27h-30q-54 0 -91 15.5t-65 45.5t-49.5 74.5t-44.5 102.5q-34 -66 -62 -111t-57 -73.5t-62.5 -41t-78.5 -12.5h-30q-15 0 -22.5 27t-7.5 59.5t7.5 59.5t22.5 27h10q75 0 122 12.5t73.5 41
t36 74t9.5 110.5q0 105 -5.5 216t-17.5 230q-5 59 -10.5 107.5t-11 89.5l-10.5 76.5t-10 67.5z" />
    <glyph glyph-name="uni06B6.fin" unicode="&#x6b6;" horiz-adv-x="1160" 
d="M813 1841q77 -80 146 -118l-27.5 -33t-22 -29.5t-21.5 -35t-27 -50.5q-32 29 -70 55.5t-89 55.5l42 53.5l35 48t24 36t10 17.5zM894 1435q2 -85 5.5 -173.5t8.5 -174.5t11.5 -167t13.5 -152t14 -128.5t13 -95.5q14 -83 28.5 -135t36.5 -81t54 -39.5t81 -10.5h10
q15 0 22.5 -27t7.5 -59.5t-7.5 -59.5t-22.5 -27h-30q-79 0 -124 37.5t-74 107.5q-6 -46 -7 -108.5t-1 -128t-1.5 -126t-8.5 -102.5q-17 -101 -71 -176.5t-131 -125.5t-171 -75t-192 -25q-79 0 -145 24t-113.5 68t-74 106t-26.5 138q0 36 9 82.5t24 95t35.5 97t44.5 88.5
q70 116 91 116q12 0 12 -13q0 -15 -40 -95q-53 -107 -77.5 -179.5t-24.5 -129.5q0 -103 87.5 -160.5t245.5 -57.5q79 0 160 22t147 59.5t107.5 88t41.5 107.5q0 4 -1 21.5t-2 39.5l-2 43.5t-2 34.5q-3 79 -6 140l-5.5 114l-5 102t-4.5 104.5l-4.5 122t-5.5 154.5l-10.5 178
t-7.5 128l-5 91.5t-3.5 68.5t-2.5 59t-2 62q12 17 22 29.5t20.5 27l24 32z" />
    <glyph glyph-name="uni06B7.ini" unicode="&#x6b7;" horiz-adv-x="553" 
d="M218 1702l-74.5 63.5t-82.5 55.5q35 33 62 68.5t50 77.5q33 -37 70 -65t79 -51q-33 -34 -58.5 -70.5t-45.5 -78.5zM153 1465q-32 34 -69.5 64t-82.5 58q30 33 53 67.5t40 70.5q31 -30 64.5 -57.5t69.5 -47.5q24 28 46.5 58.5t38.5 64.5l70 -60t80 -50q-29 -34 -55.5 -69
t-46.5 -73q-25 29 -58 53.5t-70 47.5q-24 -29 -45 -60.5t-35 -66.5zM373 1246q-42 -27 -64.5 -66t-22.5 -87q0 -11 3 -28l7 -41q14 -77 22.5 -133t14.5 -100.5t10.5 -83.5l9.5 -81q1 -7 2.5 -25l3 -37t2.5 -35t1 -21q0 -38 -7.5 -91t-22 -104t-35.5 -93t-48 -57
q-22 -15 -51 -25.5t-59.5 -18t-61.5 -11t-57 -3.5h-30q-15 0 -22.5 27t-7.5 59.5t7.5 59.5t22.5 27h10q99 0 154.5 7.5t83 25.5t34 47t8.5 71q-1 30 -7 85l-14 123.5t-18.5 146t-22.5 152t-24 141t-23 113.5q-5 20 -11.5 42.5t-17.5 48.5l112 151q37 -113 119 -186z" />
    <glyph glyph-name="uni06B7.med" unicode="&#x6b7;" horiz-adv-x="550" 
d="M218 1702l-74.5 63.5t-82.5 55.5q35 33 62 68.5t50 77.5q33 -37 70 -65t79 -51q-33 -34 -58.5 -70.5t-45.5 -78.5zM153 1465q-32 34 -69.5 64t-82.5 58q30 33 53 67.5t40 70.5q31 -30 64.5 -57.5t69.5 -47.5q24 28 46.5 58.5t38.5 64.5l70 -60t80 -50q-29 -34 -55.5 -69
t-46.5 -73q-25 29 -58 53.5t-70 47.5q-24 -29 -45 -60.5t-35 -66.5zM176 1303q26 35 55.5 68.5t64.5 64.5q-1 -26 -1 -52v-52q0 -79 2.5 -159.5t8.5 -166t15 -177.5t21 -193q14 -84 19.5 -150.5t22 -112.5t53.5 -70.5t113 -24.5h10q15 0 22.5 -27t7.5 -59.5t-7.5 -59.5
t-22.5 -27h-30q-54 0 -91 15.5t-65 45.5t-49.5 74.5t-44.5 102.5q-34 -66 -62 -111t-57 -73.5t-62.5 -41t-78.5 -12.5h-30q-15 0 -22.5 27t-7.5 59.5t7.5 59.5t22.5 27h10q75 0 122 12.5t73.5 41t36 74t9.5 110.5q0 105 -5.5 216t-17.5 230q-5 59 -10.5 107.5t-11 89.5
l-10.5 76.5t-10 67.5z" />
    <glyph glyph-name="uni06B7.fin" unicode="&#x6b7;" horiz-adv-x="1160" 
d="M813 1702l-75.5 63.5t-82.5 55.5q35 33 62.5 68.5t50.5 77.5q33 -37 70 -65t79 -51q-33 -34 -58.5 -70.5t-45.5 -78.5zM748 1465q-32 34 -70 64t-83 58q59 65 94 138q31 -30 64.5 -57.5t68.5 -47.5q25 28 47 58.5t38 64.5l70.5 -60t79.5 -50q-29 -34 -55 -69t-46 -73
q-25 29 -58 53.5t-71 47.5q-23 -29 -44 -60.5t-35 -66.5zM894 1435q2 -85 5.5 -173.5t8.5 -174.5t11.5 -167t13.5 -152t14 -128.5t13 -95.5q14 -83 28.5 -135t36.5 -81t54 -39.5t81 -10.5h10q15 0 22.5 -27t7.5 -59.5t-7.5 -59.5t-22.5 -27h-30q-79 0 -124 37.5t-74 107.5
q-6 -46 -7 -108.5t-1 -128t-1.5 -126t-8.5 -102.5q-17 -101 -71 -176.5t-131 -125.5t-171 -75t-192 -25q-79 0 -145 24t-113.5 68t-74 106t-26.5 138q0 36 9 82.5t24 95t35.5 97t44.5 88.5q70 116 91 116q12 0 12 -13q0 -15 -40 -95q-53 -107 -77.5 -179.5t-24.5 -129.5
q0 -103 87.5 -160.5t245.5 -57.5q79 0 160 22t147 59.5t107.5 88t41.5 107.5q0 4 -1 21.5t-2 39.5l-2 43.5t-2 34.5q-3 79 -6 140l-5.5 114l-5 102t-4.5 104.5l-4.5 122t-5.5 154.5l-10.5 178t-7.5 128l-5 91.5t-3.5 68.5t-2.5 59t-2 62q12 17 22 29.5t20.5 27l24 32z" />
    <glyph glyph-name="afii57514" unicode="&#x6ba;" horiz-adv-x="1083" arabic-form="isolated" 
d="M654 672l60 171q33 -27 67 -89t61 -142t44 -168.5t17 -167.5q0 -101 -35.5 -187.5t-101 -150t-158.5 -99.5t-208 -36q-94 0 -168.5 23t-126 65t-78.5 100.5t-27 129.5q0 25 4 54t11.5 60t18 61.5t23.5 57.5q21 44 36 72t26 44t18 22t11 6q15 0 15 -16q0 -9 -3 -17
q-22 -58 -35.5 -97t-21 -66t-10 -45t-2.5 -36q0 -104 77.5 -164t232.5 -60q53 0 105 8.5t99 24t87 36.5t69.5 46t46 52.5t16.5 56.5q0 38 -13 91.5t-34.5 112t-49.5 117t-58 107.5z" />
    <glyph glyph-name="uniFB9F" unicode="&#x6ba;" horiz-adv-x="1160" arabic-form="final" 
d="M902 429q26 -49 49 -79t51.5 -46t66 -21t91.5 -5h10q15 0 22.5 -27t7.5 -59.5t-7.5 -59.5t-22.5 -27h-30q-41 0 -72 3.5t-57 11.5q0 -153 -42.5 -275.5t-123.5 -208t-197.5 -131t-265.5 -45.5q-80 0 -150 22t-121.5 65.5t-81 107.5t-29.5 148q0 67 20.5 140t58.5 136
q26 44 48.5 70t32.5 26q7 0 8.5 -3.5t1.5 -10.5q0 -2 -0.5 -4t-3.5 -7.5l-8.5 -15.5t-14.5 -28q-33 -65 -52 -126t-20 -102q0 -52 28.5 -95.5t78 -74.5t118 -48.5t147.5 -17.5q71 0 144.5 13.5t137 38.5t110 61t62.5 81q9 28 14 71t5 91q0 49 -4.5 95t-12.5 77l-54.5 56.5
t-40.5 54.5q23 38 47.5 74.5z" />
    <glyph glyph-name="uni06BC.ini" unicode="&#x6bc;" horiz-adv-x="560" 
d="M-27 -42q53 -44 108 -44q20 0 46 6.5t46 17.5v9q0 32 -11.5 57.5t-29 42.5t-38.5 26t-40 9q-29 0 -48 -29t-33 -95zM43 -213q-23 0 -46 10.5t-41 28.5t-29.5 42.5t-11.5 53.5q0 37 10.5 80.5t30.5 95.5q47 128 108 128q30 0 60 -23t54 -59.5t38.5 -81t14.5 -88.5
q0 -40 -12 -74.5t-35.5 -59.5t-58.5 -39t-82 -14zM116 1253q82 -84 149 -117l-27 -28t-23 -29.5t-22.5 -38l-27.5 -52.5q-33 28 -68.5 54.5t-77.5 48.5l-14 7q48 58 72.5 95t38.5 60zM-10 105q-10 0 -16.5 12.5t-10 32t-3.5 42t3.5 41.5t10 32t16.5 13h10q80 0 133.5 3
t88 11t53 22t26.5 37q-17 53 -38 94.5t-56 85.5l85 164q28 -46 45.5 -90.5t27 -84t12.5 -71.5t3 -55q0 -17 -8 -49t-20.5 -67t-29 -68t-34.5 -51q-10 -11 -28.5 -20.5t-49 -17t-77 -12t-113.5 -4.5h-30z" />
    <glyph glyph-name="uni06BC.med" unicode="&#x6bc;" horiz-adv-x="500" 
d="M-27 -42q53 -44 108 -44q20 0 46 6.5t46 17.5v9q0 32 -11.5 57.5t-29 42.5t-38.5 26t-40 9q-29 0 -48 -29t-33 -95zM43 -213q-23 0 -46 10.5t-41 28.5t-29.5 42.5t-11.5 53.5q0 37 10.5 80.5t30.5 95.5q47 128 108 128q30 0 60 -23t54 -59.5t38.5 -81t14.5 -88.5
q0 -40 -12 -74.5t-35.5 -59.5t-58.5 -39t-82 -14zM116 1064q82 -84 149 -117l-27 -28t-23 -29.5t-22.5 -38l-27.5 -52.5q-33 28 -68.5 54.5t-77.5 48.5l-14 7q48 58 72.5 95t38.5 60zM-10 105q-15 0 -22.5 27t-7.5 59.5t7.5 59.5t22.5 27h10q25 0 61.5 6.5t76 21t77.5 38
t65 57.5q25 31 38 31q9 0 14 -9.5t13 -36.5q9 -28 25.5 -48.5t38 -34t45.5 -19.5t46 -6h10q15 0 22.5 -27t7.5 -59.5t-7.5 -59.5t-22.5 -27h-30q-60 0 -95.5 21.5t-56.5 48t-32.5 48t-22.5 21.5q-7 0 -29.5 -21.5t-56 -48t-76.5 -48t-91 -21.5h-30z" />
    </font>
</defs>
</svg>
